<?xml version="1.0" encoding="UTF-8"?> <svg xmlns="http://www.w3.org/2000/svg" width="912" height="321" viewBox="0 0 912 321" fill="none"> <path d="M178.914 176.919C181.238 176.919 182.401 179.894 182.401 185.843C182.145 190.073 180.786 194.164 178.462 197.709C175.63 202.444 172.068 206.701 167.906 210.317C163.575 214.137 158.714 217.305 153.475 219.727C148.641 222.077 143.351 223.336 137.979 223.414C131.135 223.414 126.551 217.4 124.227 205.371C120.879 210.85 116.331 215.493 110.926 218.95C104.335 222.813 96.762 224.669 89.135 224.286C85.078 224.462 81.028 223.79 77.244 222.315C73.459 220.839 70.022 218.594 67.15 215.717C64.458 213.021 62.347 209.795 60.948 206.247C59.549 202.699 58.891 198.903 59.015 195.09C59.015 173.103 66.311 155.773 80.903 143.097C85.932 138.49 91.824 134.929 98.239 132.622C103.727 130.919 109.442 130.071 115.188 130.098C120.224 129.936 125.221 131.048 129.715 133.331C131.523 129.583 133.588 127.707 135.913 127.707C138.349 127.788 140.746 128.352 142.962 129.366C145.179 130.383 147.172 131.828 148.826 133.623C152.217 136.33 154.399 140.271 154.896 144.586C152.571 149.854 149.918 154.972 146.954 159.911C145.761 168.198 145.243 176.566 145.404 184.938C145.404 195.714 146.76 201.104 149.472 201.104C152.829 201.104 160.965 194.378 173.878 180.928C176.202 178.255 177.881 176.919 178.914 176.919ZM87.489 188.686C87.489 198.645 91.169 203.625 98.529 203.625C106.406 203.496 112.927 199.293 118.093 191.016C120.079 187.76 121.579 184.229 122.548 180.538C122.335 168.011 123.636 155.505 126.422 143.29C115.965 145.359 106.416 150.651 99.111 158.422C95.257 162.438 92.244 167.184 90.248 172.38C88.252 177.577 87.314 183.123 87.489 188.686Z" fill="#7A8CA7"></path> <path d="M264.334 163.988C264.334 159.677 261.881 157.523 256.974 157.523C253.616 157.523 249.871 160.755 245.739 167.221C241.628 173.696 238.618 180.809 236.829 188.272V188.659C236.86 193.258 237.545 197.831 238.863 202.24C239.922 205.378 240.605 208.638 240.896 211.938C240.896 216.249 235.408 220.561 224.432 224.872C223.017 225.462 221.508 225.791 219.977 225.842C218.458 225.883 216.969 225.405 215.755 224.489C214.541 223.573 213.674 222.274 213.294 220.798C211.912 216.375 211.29 211.752 211.455 207.121C211.455 201.365 211.616 195.975 211.938 190.955C212.261 185.931 212.584 181.213 212.907 176.793C213.23 172.482 213.553 168.666 213.876 165.345C214.198 162.028 214.36 159.344 214.36 157.296C214.36 152.984 212.359 150.83 208.355 150.83C204.352 150.83 199.703 155.518 194.409 164.894C189.115 174.269 186.467 181.708 186.467 187.203C186.42 192.352 187.104 197.478 188.501 202.434C189.561 205.575 190.244 208.831 190.535 212.132C190.535 216.443 185.047 220.754 174.071 225.065C172.656 225.656 171.147 225.985 169.616 226.036C168.097 226.073 166.612 225.591 165.399 224.675C164.187 223.763 163.318 222.464 162.933 220.992C161.486 215.951 160.864 210.71 161.093 205.473C160.783 192.179 161.496 178.886 163.224 165.701C165.214 153.534 169.699 141.906 176.395 131.557C177.098 130.091 178.159 128.823 179.479 127.876C180.799 126.927 182.336 126.323 183.949 126.126C188.254 126.126 192.192 129.62 195.765 136.601C196.7 138.205 197.479 139.894 198.089 141.645C200.568 138.12 203.842 135.23 207.645 133.209C211.447 131.184 215.672 130.088 219.977 130.007C225.454 129.979 230.753 131.943 234.892 135.536C236.954 137.201 238.609 139.314 239.728 141.719C240.847 144.124 241.402 146.753 241.348 149.406V151.539C244.663 146.984 249.004 143.273 254.018 140.712C259.033 138.151 264.58 136.808 270.209 136.797C273.085 136.591 275.973 136.967 278.701 137.9C281.429 138.833 283.943 140.305 286.093 142.228C287.861 143.972 289.254 146.058 290.187 148.361C291.12 150.661 291.572 153.13 291.517 155.613C291.558 160.423 291.168 165.23 290.354 169.972C289.579 174.283 288.708 178.289 287.739 181.997C286.77 185.704 285.899 189.035 285.124 191.99C284.463 194.198 284.073 196.477 283.962 198.78C283.962 200.395 284.479 201.206 285.511 201.206C288.249 200.826 290.777 199.527 292.678 197.519C295.52 195.059 298.36 192.376 301.201 189.466L309.046 181.416C311.522 178.893 313.19 177.634 314.049 177.634C315.857 177.634 316.762 179.788 316.762 184.1C316.762 193.153 312.21 201.949 303.106 210.483C295.477 218.427 285.05 223.068 274.051 223.417C264.754 223.417 260.105 214.947 260.105 198.004C260.295 192.068 261.008 186.159 262.236 180.348C263.386 174.965 264.088 169.49 264.334 163.988Z" fill="#7A8CA7"></path> <path d="M370.869 206.343C366.52 211.943 360.957 216.481 354.597 219.606C348.237 222.733 341.249 224.368 334.163 224.385C319.896 224.385 309.209 220.732 302.107 213.422C298.602 209.833 295.865 205.562 294.067 200.878C292.268 196.19 291.445 191.184 291.647 186.167C291.237 171.537 296.436 157.307 306.174 146.398C310.961 140.927 316.904 136.592 323.57 133.709C330.239 130.822 337.464 129.458 344.719 129.713C350.652 129.496 356.568 130.418 362.154 132.43C369.773 135.533 373.582 138.444 373.582 141.157C373.582 143.315 368.253 144.394 357.602 144.394C352.626 144.302 347.687 145.235 343.088 147.138C338.491 149.041 334.333 151.87 330.869 155.452C327.311 159.095 324.523 163.423 322.678 168.172C320.829 172.924 319.961 177.999 320.12 183.093C319.954 188.446 321.786 193.67 325.252 197.74C327.094 199.759 329.367 201.333 331.897 202.35C334.428 203.371 337.155 203.805 339.879 203.626C345.337 203.826 350.74 202.482 355.472 199.745C351.035 196.838 347.433 192.822 345.021 188.093C342.609 183.361 341.47 178.087 341.717 172.782C341.629 166.462 344.031 160.363 348.4 155.804C350.601 153.308 353.318 151.323 356.361 149.984C359.403 148.644 362.704 147.982 366.028 148.047C373.192 148.047 378.328 150.018 381.425 153.963C384.671 158.43 386.309 163.867 386.075 169.386C385.946 176.248 384.43 183.012 381.621 189.27H382.782C388.222 189.226 393.446 187.127 397.405 183.385C398.955 181.835 400.281 180.475 401.377 179.311C401.77 178.819 402.259 178.412 402.815 178.111C403.368 177.812 403.978 177.625 404.606 177.564C406.414 177.564 407.316 179.722 407.316 184.033C407.564 187.327 407.062 190.634 405.858 193.707C404.65 196.78 402.764 199.542 400.346 201.784C396.109 205.474 390.685 207.506 385.075 207.506C380.312 207.577 375.556 207.187 370.869 206.343ZM369.125 183.711C371.198 179.478 372.3 174.841 372.354 170.129C372.354 165.818 370.933 163.664 368.094 163.664C366.93 163.664 365.964 164.505 365.187 166.184C364.454 167.697 364.057 169.352 364.027 171.035C363.956 173.406 364.373 175.763 365.251 177.968C366.127 180.17 367.446 182.167 369.125 183.84V183.711Z" fill="#7A8CA7"></path> <path d="M809.628 224.352C820.326 224.352 829 215.665 829 204.953C829 194.237 820.326 185.554 809.628 185.554C798.929 185.554 790.259 194.237 790.259 204.953C790.259 215.665 798.929 224.352 809.628 224.352Z" fill="#0079F6"></path> <path d="M609.829 180.473C611.98 180.473 613.055 183.448 613.055 189.397C612.74 193.597 611.339 197.643 608.988 201.134C606.159 205.873 602.594 210.126 598.432 213.745C594.104 217.568 589.243 220.737 584.002 223.155C579.355 225.445 574.267 226.703 569.087 226.839C565.156 227.059 561.251 226.113 557.853 224.125C555.085 222.283 552.856 219.739 551.394 216.751C549.244 212.44 547.436 204.068 545.974 191.629C545.17 182.915 543.748 174.272 541.71 165.761C538.491 165.181 535.465 163.814 532.897 161.786C531.703 160.938 530.726 159.812 530.058 158.506C529.39 157.2 529.047 155.751 529.057 154.283C528.952 152.926 529.281 151.566 529.994 150.406C530.706 149.246 531.768 148.34 533.026 147.817C535.872 146.481 538.986 145.82 542.13 145.877C545.373 145.83 548.565 146.705 551.33 148.401C554.881 145.552 557.87 142.065 560.146 138.116C562.578 132.977 563.69 127.309 563.372 121.627C563.504 118.52 562.948 115.42 561.743 112.55C560.536 109.684 558.711 107.12 556.401 105.04C551.944 100.882 545.187 98.7989 536.127 98.7989C529.183 98.5679 522.243 99.2869 515.496 100.932C511.276 102.143 507.162 103.7 503.196 105.59C499.774 107.272 496.741 108.822 494.092 110.247C491.823 111.567 489.259 112.299 486.636 112.381C484.313 112.381 483.149 111.638 483.149 110.149C483.716 107.442 484.984 104.932 486.83 102.873C489.886 98.9719 493.546 95.5869 497.678 92.8489C509.567 84.4539 523.807 80.051 538.355 80.275C551.353 79.83 564.243 82.8049 575.736 88.9079C581.156 91.8249 585.644 96.2069 588.693 101.56C591.739 106.913 593.225 113.015 592.977 119.172C593.459 129.161 590.369 138.998 584.26 146.912C578.507 154.154 570.865 159.659 562.178 162.821C564.172 167.257 565.763 171.867 566.923 176.596C568.151 181.507 569.345 186.036 570.508 190.174C571.441 193.739 572.774 197.189 574.477 200.455C574.915 201.571 575.654 202.545 576.614 203.264C577.571 203.983 578.71 204.421 579.901 204.529C582.832 204.17 585.562 202.84 587.648 200.747C590.684 198.227 593.686 195.476 596.658 192.501C599.626 189.526 602.275 186.779 604.599 184.258C607.051 181.735 608.795 180.473 609.829 180.473ZM525.57 110.634C527.25 110.634 528.087 112.791 528.087 117.102C528.101 121.251 527.843 125.399 527.314 129.517C526.242 136.583 524.753 143.577 522.857 150.47C518.21 168.058 515.883 178.339 515.883 181.314V209.831C516.161 212.748 515.55 215.679 514.132 218.243C512.715 220.804 510.557 222.877 507.942 224.19L500.873 227.422C498.465 228.487 495.853 229.017 493.22 228.972C487.797 228.972 485.086 222.734 485.086 210.252C485.721 194.17 488.655 178.261 493.804 163.014C497.983 147.807 504.102 133.201 512.009 119.558C513.593 117.299 515.482 115.274 517.626 113.544C519.838 111.648 522.66 110.617 525.57 110.634Z" fill="#0079F6"></path> <path d="M776.603 180.477C778.754 180.477 779.832 183.452 779.832 189.401C779.496 193.608 778.072 197.651 775.697 201.138C772.868 205.877 769.307 210.13 765.141 213.75C760.813 217.569 755.952 220.737 750.712 223.156C745.467 225.605 739.745 226.863 733.958 226.843C731.384 226.982 728.812 226.541 726.431 225.547C724.05 224.56 721.923 223.044 720.203 221.121C716.998 217.579 715.237 212.966 715.264 208.187C715.363 202.776 716.143 197.397 717.591 192.183C719.226 186.318 720.946 180.155 722.754 173.686C727.662 156.441 730.179 144.352 730.308 137.408C730.427 135.057 730.03 132.707 729.148 130.522C728.738 129.711 728.093 129.047 727.296 128.612C726.502 128.178 725.593 127.998 724.691 128.097C720.817 128.097 716.686 130.424 712.296 135.081C707.398 140.457 703.229 146.458 699.898 152.93C691.476 167.774 686.636 184.381 685.76 201.43L686.534 206.86C686.798 208.79 686.931 210.734 686.921 212.681C686.826 214.91 686.229 217.091 685.17 219.058C684.115 221.022 682.626 222.722 680.818 224.031C677.043 227.348 672.189 229.173 667.165 229.17C665.778 229.17 664.421 228.753 663.271 227.976C662.121 227.199 661.229 226.093 660.707 224.808C659.187 221.426 658.461 217.746 658.576 214.038C658.834 208.122 659.811 202.261 661.483 196.579C663.42 189.208 665.571 181.383 667.939 173.106C674.136 151.248 677.301 134.952 677.43 124.216C677.63 119.813 676.938 115.414 675.394 111.282C674.746 109.776 673.641 108.515 672.229 107.677C670.822 106.842 669.183 106.472 667.552 106.629C660.578 106.629 653.668 111.608 646.826 121.567C639.981 131.526 633.848 146.98 628.424 167.933C627.003 173.364 625.928 178.086 625.195 182.095L625.002 185.779C626.83 193.431 628.058 201.216 628.682 209.058C628.682 216.562 626.036 221.606 620.741 224.19L613.669 227.426C611.39 228.464 608.913 228.994 606.407 228.977C599.952 228.977 596.722 222.803 596.722 210.449C596.722 198.099 600.057 173.988 606.729 138.12C609.185 125.186 610.409 117.944 610.409 116.394C610.409 105.916 607.763 100.679 602.468 100.679C600.701 100.665 598.975 101.208 597.53 102.229C596.044 103.264 594.558 104.342 593.072 105.465C591.59 106.584 590.05 107.772 588.459 109.02C586.879 110.065 585.023 110.604 583.13 110.573C581.129 110.573 580.128 108.827 580.128 105.336C580.135 101.819 581.051 98.365 582.781 95.306C584.511 92.246 587.001 89.689 590.006 87.874C596.719 83.04 604.826 80.544 613.089 80.761C624.71 80.761 631.555 86.151 633.621 96.927C634.137 100.16 634.527 103.589 634.785 107.209C644.34 89.319 656.412 80.374 671.005 80.374C686.995 80.374 696.069 88.003 698.219 103.264C699.017 107.941 699.342 112.687 699.19 117.429V118.979C707.581 107.341 717.524 101.52 729.019 101.52C745.288 101.52 753.425 111.35 753.425 131.007C753.225 141.116 751.892 151.17 749.453 160.979C746.807 172.428 744.87 180.64 743.642 185.619C742.594 189.385 741.977 193.255 741.801 197.162C741.801 202.074 743.514 204.533 746.936 204.533C750.355 204.533 758.523 197.807 771.437 184.357C773.849 181.769 775.572 180.477 776.603 180.477Z" fill="#0079F6"></path> <path d="M500.71 154.708C503.94 154.708 505.619 157.941 505.619 164.05C505.452 170.969 503.984 177.791 501.29 184.161C498.19 191.742 493.821 198.74 488.38 204.856C482.213 211.851 474.788 217.62 466.491 221.864C456.756 226.762 445.969 229.181 435.081 228.913C423.375 229.052 412.052 224.73 403.409 216.82C394.349 208.737 389.817 197.085 389.817 181.868C389.658 167.808 391.839 153.819 396.276 140.482C400.092 128.942 405.787 118.118 413.127 108.437C419.572 99.906 427.662 92.7589 436.919 87.4199C444.612 82.7419 453.391 80.1539 462.39 79.9199C476.359 79.9199 483.343 86.1509 483.343 98.6099C483.631 104.587 482.268 110.526 479.405 115.777C476.779 120.089 474.11 122.243 471.396 122.243C469.598 122.243 467.818 121.859 466.176 121.12C464.534 120.377 463.069 119.295 461.875 117.945C460.749 116.636 459.368 115.567 457.821 114.8C456.274 114.034 454.589 113.586 452.869 113.481C449.64 113.481 440.729 113.125 433.208 125.251C430.254 129.268 428.066 133.796 426.75 138.606C422.34 149.935 420.149 162.011 420.295 174.172C421.468 182.933 426.021 190.884 432.981 196.318C437.113 199.191 442.109 200.541 447.119 200.134C456.02 199.147 464.219 194.826 470.073 188.042C474.466 183.32 478.34 178.859 482.502 174.043C486.667 169.226 490.348 164.796 493.512 160.722C496.674 156.648 499.065 154.708 500.71 154.708Z" fill="#0079F6"></path> </svg> 