<svg width="20" height="20" viewBox="0 0 20 20" fill="none" xmlns="http://www.w3.org/2000/svg">
<g clip-path="url(#clip0_2554_586)">
<path fill-rule="evenodd" clip-rule="evenodd" d="M0.0136719 10.0039V16.6836H10.0137H20.0137V10.0039V3.32422H10.0137H0.0136719V10.0039Z" fill="#C589A4"/>
<path fill-rule="evenodd" clip-rule="evenodd" d="M0.0382422 3.35C0.0240234 3.36421 0.0123828 5.38546 0.0123828 7.8416V12.3073L1.76043 12.3179L3.50848 12.3285L1.76012 12.3379L0.0117188 12.3472L0.0218359 14.5054L0.0319141 16.6636H10.0124H19.9929L20.0029 14.5057L20.0131 12.3478L17.7178 12.3375L15.4225 12.3271L17.7175 12.3176L20.0124 12.3082V10.0039V7.6996L18.2643 7.68902L16.5163 7.67843L18.2646 7.66906L20.0131 7.65972L20.0029 5.50152L19.9929 3.34332L10.0285 3.33375C4.54809 3.32847 0.0524609 3.33578 0.0382422 3.35Z" fill="#9CB9DB"/>
<path fill-rule="evenodd" clip-rule="evenodd" d="M0.0406641 3.34901C0.0267969 3.36292 0.0150391 4.33878 0.0145312 5.51757L0.0136719 7.66089L2.30422 7.65905C3.56402 7.65804 4.6041 7.66655 4.61551 7.678C4.62691 7.6894 3.59621 7.69874 2.32508 7.69874H0.0138672V10.0034V12.3081H1.7782C2.74855 12.3081 3.53301 12.3176 3.52141 12.3292C3.5098 12.3408 2.71594 12.3492 1.75723 12.348L0.0141016 12.3457L0.02375 14.5046L0.0333984 16.6636L0.516172 16.6746C0.864609 16.6825 1.01617 16.6717 1.06078 16.6355C1.1082 16.5971 1.11578 16.5969 1.09328 16.6343C1.06988 16.6732 1.75051 16.6831 4.44477 16.6831H7.82563L7.83613 14.7788L7.84664 12.8745L7.85605 14.7788L7.86543 16.6831H10.0139H12.1623V15.0816C12.1623 14.2007 12.1755 13.48 12.1916 13.48C12.2077 13.48 12.2161 14.2007 12.2103 15.0816L12.1996 16.6831H15.0348C17.2926 16.6831 17.8641 16.6732 17.8407 16.6343C17.8178 16.5961 17.8247 16.5962 17.8725 16.635C17.9191 16.6727 18.1778 16.6819 18.964 16.674L19.9943 16.6636L20.0045 14.5048L20.0147 12.346L17.7238 12.3478C16.4639 12.3488 15.4236 12.3403 15.4122 12.3289C15.4008 12.3175 16.4315 12.3081 17.7027 12.3081H20.0139V10.0034V7.69874H18.2495C17.2792 7.69874 16.4947 7.68925 16.5063 7.67765C16.5179 7.66604 17.3119 7.65761 18.2706 7.65886L20.0139 7.6612V6.70108C20.0139 5.94343 20.0036 5.74718 19.965 5.77034C19.9268 5.79335 19.9269 5.78647 19.9656 5.73862C20.0036 5.69179 20.0126 5.40608 20.0047 4.51042L19.9943 3.34327L19.5116 3.33226C19.1631 3.32433 19.0116 3.33519 18.967 3.37132C18.9195 3.40972 18.912 3.40999 18.9345 3.37257C18.9579 3.33366 18.2772 3.32374 15.583 3.32374H12.2021L12.1916 5.22804L12.1811 7.13233L12.1717 5.22804L12.1623 3.32374H10.0139H7.86543V4.9253C7.86543 5.80616 7.85223 6.52686 7.83613 6.52686C7.82004 6.5269 7.8116 5.8062 7.81746 4.9253L7.82809 3.32374H4.99289C2.73605 3.32374 2.16332 3.3337 2.18527 3.37257C2.2073 3.41163 2.2023 3.41163 2.16023 3.37257C2.1041 3.3205 0.0915625 3.29811 0.0406641 3.34901Z" fill="#0052B4"/>
<path fill-rule="evenodd" clip-rule="evenodd" d="M0.0396094 3.35035C0.0252344 3.36477 0.0142578 3.76609 0.0152734 4.24227L0.0170703 5.10805L2.32984 6.39387L4.64258 7.67969L2.32812 7.68977L0.0136719 7.69984V10.0042V12.3086H1.77801C2.74836 12.3086 3.52953 12.3218 3.51387 12.3379C3.49824 12.354 2.70867 12.7995 1.75934 13.3278L0.0332031 14.2884V15.4762V16.6641L0.509219 16.675C0.974648 16.6857 0.989414 16.6834 1.17328 16.5723C1.58742 16.322 7.78547 12.8945 7.82395 12.8945C7.85238 12.8945 7.86523 13.4837 7.86523 14.7891V16.6836H10.0137H12.1621V15.0779C12.1621 13.6633 12.1691 13.4748 12.221 13.4947C12.3081 13.5281 17.6256 16.4806 17.797 16.5907C17.9436 16.6849 17.9436 16.6849 18.9689 16.6745L19.9941 16.6641L20.0029 15.7823L20.0117 14.9006L17.6982 13.6143L15.3848 12.3281L17.6992 12.318L20.0137 12.308V10.004V7.7L18.2461 7.68984L16.4785 7.67969L18.2363 6.70207L19.9941 5.72445V4.5341V3.34375L19.5181 3.33281C19.0527 3.32211 19.0379 3.32437 18.8541 3.43551C18.4399 3.68582 12.2419 7.11328 12.2034 7.11328C12.175 7.11328 12.1621 6.5241 12.1621 5.21875V3.32422H10.0137H7.86523V4.92578C7.86523 5.80664 7.85543 6.52734 7.8434 6.52734C7.81824 6.52734 2.54934 3.60609 2.26895 3.43668L2.08281 3.32422H1.0743C0.519609 3.32422 0.0539844 3.33598 0.0396094 3.35035Z" fill="#CE4466"/>
<path fill-rule="evenodd" clip-rule="evenodd" d="M0.0397324 3.35027C0.0253964 3.36457 0.0136777 3.64371 0.0136777 3.97051V4.56473L0.131685 4.61363C0.196607 4.64051 0.260084 4.67926 0.27274 4.69973C0.285357 4.7202 0.24192 4.7091 0.176178 4.67512C0.0101621 4.58926 0.0136777 4.58527 0.0136777 4.85973V5.10613L2.32813 6.39293L4.64258 7.67969L2.32813 7.68977L0.0136777 7.69984V10.0042V12.3086H1.77801C2.74837 12.3086 3.52954 12.3218 3.51387 12.3379C3.49825 12.354 2.70868 12.7995 1.75934 13.3278L0.0332089 14.2884V15.4762V16.6641L0.509225 16.675C0.974654 16.6857 0.98942 16.6834 1.17329 16.5723C1.58743 16.322 7.78547 12.8945 7.82395 12.8945C7.85239 12.8945 7.86524 13.4808 7.86524 14.7793V16.6641H10.0137H12.1621V15.0681C12.1621 13.6623 12.1691 13.4748 12.221 13.4947C12.3081 13.5281 17.6256 16.4806 17.797 16.5907C17.9436 16.6849 17.9436 16.6849 18.9689 16.6745L19.9941 16.6641L20.0049 16.0488C20.0108 15.7105 20.001 15.4336 19.9831 15.4336C19.9652 15.4336 19.9164 15.4062 19.8747 15.3729C19.8014 15.3142 19.8017 15.3135 19.8841 15.3533C20.0124 15.4152 20.0137 15.4132 20.0137 15.1481V14.9017L17.6992 13.6149L15.3848 12.3281L17.6992 12.318L20.0137 12.308V10.004V7.7L18.2461 7.68984L16.4785 7.67969L18.2363 6.70207L19.9941 5.72445V4.5341V3.34375L19.5181 3.33281C19.0527 3.32211 19.0379 3.32437 18.8541 3.43551C18.4399 3.68582 12.2419 7.11328 12.2034 7.11328C12.175 7.11328 12.1621 6.52699 12.1621 5.22852V3.34375H10.0137H7.86524V4.93555C7.86524 5.81102 7.85544 6.52734 7.8434 6.52734C7.81825 6.52734 2.54934 3.60609 2.26895 3.43668L2.08282 3.32422H1.0743C0.519615 3.32422 0.0540292 3.33594 0.0397324 3.35027ZM7.80665 7.66016C7.82258 7.68594 7.44794 7.69621 6.70544 7.69039L5.58008 7.68156L6.67383 7.66016C7.2754 7.6484 7.77094 7.6348 7.77504 7.62992C7.77915 7.62508 7.79337 7.63867 7.80665 7.66016ZM14.0762 7.67172C14.2803 7.67785 13.9409 7.68656 13.3219 7.69105C12.703 7.69555 12.2047 7.68602 12.2146 7.66992C12.2311 7.64316 13.1544 7.64406 14.0762 7.67172ZM7.81731 12.3305C7.79102 12.3568 5.63133 12.3533 5.60497 12.327C5.59485 12.3169 6.09344 12.3086 6.7129 12.3086C7.33235 12.3086 7.82934 12.3184 7.81731 12.3305ZM14.4224 12.327C14.396 12.3533 12.2363 12.3568 12.21 12.3305C12.198 12.3184 12.695 12.3086 13.3145 12.3086C13.9339 12.3086 14.4325 12.3169 14.4224 12.327Z" fill="#D80027"/>
<path fill-rule="evenodd" clip-rule="evenodd" d="M0.0911307 3.36047C0.123357 3.3791 1.86359 4.34633 3.95832 5.50984C6.05304 6.6734 7.78359 7.64199 7.80402 7.6623C7.82734 7.68551 7.42812 7.69922 6.73031 7.69922H5.61945L2.84137 6.15625C-0.35633 4.38023 0.0130057 4.54953 0.0130057 4.85973V5.10613L2.32746 6.39293L4.64191 7.67969L2.32746 7.68977L0.0130057 7.69984V8.22687V8.75391H4.38801H8.76301V6.03906V3.32422H8.31379H7.86457V4.92578C7.86457 5.80664 7.85476 6.52734 7.84273 6.52734C7.81758 6.52734 2.54867 3.60609 2.26828 3.43668L2.08215 3.32422L1.05734 3.32539C0.459021 3.32609 0.0569119 3.3407 0.0911307 3.36047ZM11.263 6.03906V8.75391H15.638H20.013V8.22695V7.7L18.2454 7.68984L16.4778 7.67969L18.2357 6.70215L19.9935 5.72457L20.0043 5.15203L20.0151 4.57953L17.2063 6.14L14.3975 7.70047L13.2893 7.69008L12.181 7.67969L16.0818 5.51172L19.9825 3.34375L19.512 3.33281C19.0526 3.32211 19.037 3.32453 18.8534 3.43551C18.4393 3.68582 12.2412 7.11328 12.2027 7.11328C12.1743 7.11328 12.1614 6.5241 12.1614 5.21875V3.32422H11.7122H11.263V6.03906ZM0.0130057 11.7812V12.3086H1.77734C2.74769 12.3086 3.52887 12.3218 3.5132 12.3379C3.49758 12.354 2.70801 12.7994 1.75867 13.3277L0.0325369 14.2883L0.0217557 14.8583L0.0109354 15.4283L2.81859 13.8684L5.62625 12.3086L6.73566 12.3098C7.61648 12.3108 7.83203 12.3209 7.78183 12.3587C7.74707 12.3848 5.99347 13.3643 3.885 14.5352L0.0513651 16.6641L0.517967 16.675C0.973045 16.6857 0.989178 16.6832 1.17262 16.5723C1.58676 16.322 7.7848 12.8945 7.82328 12.8945C7.85172 12.8945 7.86457 13.4837 7.86457 14.7891V16.6836H8.31379H8.76301V13.9688V11.2539H4.38801H0.0130057V11.7812ZM11.263 13.9688V16.6836H11.7122H12.1614V15.0779C12.1614 13.6633 12.1684 13.4748 12.2203 13.4947C12.3074 13.5281 17.625 16.4806 17.7964 16.5907C17.9429 16.6848 17.9435 16.6849 18.9586 16.6745L19.9743 16.6641L16.1409 14.5352C14.0325 13.3643 12.2789 12.3848 12.2442 12.3587C12.194 12.3209 12.4103 12.3108 13.2937 12.3098L14.4066 12.3086L17.1846 13.8516C20.3823 15.6276 20.013 15.4583 20.013 15.1481V14.9017L17.6986 13.6149L15.3841 12.3281L17.6986 12.318L20.013 12.308V11.7809V11.2539H15.638H11.263V13.9688Z" fill="#F0F0F0"/>
</g>
<defs>
<clipPath id="clip0_2554_586">
<rect width="20" height="20" fill="white"/>
</clipPath>
</defs>
</svg>
