<svg width="173" height="40" viewBox="0 0 173 40" fill="none" xmlns="http://www.w3.org/2000/svg">
<path d="M66.5667 26.6264C66.5667 26.5966 66.5667 26.5667 66.5667 26.5369C66.537 26.4175 66.5073 26.2981 66.4181 26.2085L66.2993 26.0891L65.3186 24.925L65.17 24.7459C65.0512 24.6266 64.8729 24.5669 64.6946 24.537C64.6649 24.537 64.6352 24.537 64.6054 24.537C64.5757 24.537 64.546 24.537 64.5163 24.537C64.4866 24.537 64.4569 24.537 64.4271 24.537C64.3083 24.5669 64.1894 24.6266 64.0706 24.6863C64.0706 24.6863 64.0408 24.6863 64.0408 24.7161C63.2088 25.3728 62.5253 25.8205 61.931 26.119C61.1881 26.4772 60.3263 26.6563 59.4051 26.6563C57.7113 26.6563 56.3444 26.0593 55.334 24.8057C54.294 23.5819 53.7888 21.97 53.7888 19.9403C53.7888 17.9106 54.294 16.2988 55.334 15.1048C56.3741 13.9109 57.741 13.2841 59.4646 13.2841C60.3263 13.2841 61.1584 13.4333 61.8716 13.7616C62.4362 14.0004 63.0305 14.3586 63.6842 14.8959C63.714 14.9257 63.7437 14.9556 63.7734 14.9556C63.8923 15.0451 64.0408 15.1048 64.1894 15.1048C64.2191 15.1048 64.2488 15.1048 64.2786 15.1048H64.3083C64.3677 15.1048 64.4569 15.1048 64.5163 15.075C64.6352 15.0451 64.7243 14.9854 64.8135 14.8959C64.8135 14.8959 64.8432 14.8959 64.8432 14.866L64.9026 14.8063L66.0318 13.493C66.1507 13.3736 66.2398 13.1945 66.2398 13.0154C66.2398 12.9856 66.2398 12.9557 66.2398 12.9259C66.2398 12.896 66.2398 12.8662 66.2398 12.8363C66.2398 12.8065 66.2398 12.7766 66.2398 12.7468C66.2101 12.6274 66.1804 12.5378 66.121 12.4483C66.121 12.4483 66.121 12.4483 66.121 12.4184L66.0021 12.2991C66.0021 12.2991 66.0021 12.2991 65.9724 12.2991C65.0512 11.5528 64.1597 11.0156 63.2682 10.6574C62.1687 10.2096 60.9206 10.0007 59.524 10.0007C56.6118 9.97085 54.294 10.8962 52.5407 12.7766C50.7875 14.6571 49.9554 17.045 49.9851 19.9403C49.9554 22.8356 50.8172 25.2534 52.5704 27.1637C54.3237 29.074 56.6415 30.0292 59.4646 29.9993C60.9207 29.9993 62.1984 29.7605 63.3574 29.2531C64.3083 28.8352 65.2592 28.2084 66.2398 27.3726L66.2695 27.3428C66.4181 27.1935 66.5073 27.0144 66.537 26.8055C66.537 26.7757 66.537 26.7458 66.537 26.716C66.5667 26.6861 66.5667 26.6563 66.5667 26.6264Z" fill="#191C1F"/>
<path d="M77.0854 15.8165C76.2534 15.3986 75.3619 15.1896 74.3813 15.1896C73.4304 15.1896 72.5389 15.3986 71.7365 15.7866V11.6078C71.7365 11.5779 71.7365 11.5481 71.7365 11.5183C71.7365 11.4884 71.7365 11.4586 71.7365 11.4287C71.6771 11.0705 71.3502 10.772 70.9936 10.7422C70.9639 10.7422 70.9342 10.7422 70.9045 10.7422H69.1215C69.0918 10.7422 69.0621 10.7422 69.0324 10.7422C69.0027 10.7422 68.9729 10.7422 68.9432 10.7422C68.5866 10.8019 68.2895 11.1302 68.2598 11.4884C68.2598 11.5183 68.2598 11.5481 68.2598 11.5779V28.9499C68.2598 28.9797 68.2598 29.0096 68.2598 29.0394C68.2895 29.4275 68.6164 29.7558 69.0324 29.7856C69.0621 29.7856 69.0918 29.7856 69.1215 29.7856H70.9045H70.9342C70.9936 29.7856 71.0828 29.7857 71.1422 29.7558C71.4691 29.6663 71.7068 29.3678 71.7365 29.0394C71.7365 29.0096 71.7365 28.9797 71.7365 28.9499V26.8306V21.5176C71.7365 20.652 72.004 19.9654 72.5092 19.4282C73.0143 18.8909 73.6978 18.6222 74.5001 18.6222C75.3322 18.6222 75.9562 18.861 76.3722 19.3386C76.818 19.8162 77.026 20.5326 77.026 21.428V26.8306V29.0394C77.0557 29.4275 77.3826 29.7558 77.7986 29.7856C77.8283 29.7856 77.8581 29.7856 77.8878 29.7856H79.6707H79.7004C79.7599 29.7856 79.8193 29.7857 79.9085 29.7558C80.2353 29.6663 80.4731 29.3678 80.5028 29.0394C80.5028 29.0096 80.5028 28.9797 80.5028 28.9499V21.3385C80.5028 18.8909 79.1061 16.8015 77.0854 15.8165Z" fill="#191C1F"/>
<path d="M107.396 28.6566L107.218 27.4925C107.218 27.4626 107.218 27.4328 107.218 27.4029C107.158 27.0447 106.831 26.7463 106.475 26.7164C106.445 26.7164 106.415 26.7164 106.386 26.7164C106.356 26.7164 106.326 26.7164 106.296 26.7164C106.267 26.7164 106.237 26.7164 106.207 26.7164C105.91 26.7761 105.613 26.7761 105.345 26.7761C104.87 26.7761 104.513 26.6866 104.305 26.5075C104.097 26.3284 103.979 26 103.979 25.5225V18.4185H106.415C106.504 18.4185 106.564 18.4185 106.653 18.3886C106.98 18.2991 107.218 18.0006 107.247 17.6723V16.5679C107.247 16.538 107.247 16.5082 107.247 16.4783C107.188 16.1201 106.861 15.8216 106.504 15.7918H104.008V12.389C104.008 12.3592 104.008 12.3294 104.008 12.2995C104.008 12.2697 104.008 12.2398 104.008 12.21C103.949 11.8518 103.622 11.5533 103.265 11.5234C103.236 11.5234 103.206 11.5234 103.176 11.5234H101.393C101.363 11.5234 101.334 11.5234 101.304 11.5234C101.274 11.5234 101.245 11.5234 101.215 11.5234C100.858 11.5831 100.561 11.9115 100.531 12.2697C100.531 12.2995 100.531 12.3293 100.531 12.3592V15.7619H98.8673C98.8376 15.7619 98.8079 15.7619 98.7782 15.7619C98.4216 15.8216 98.1244 16.15 98.0947 16.5082C98.0947 16.538 98.0947 16.5679 98.0947 16.5977V17.5827C98.0947 17.6126 98.0947 17.6424 98.0947 17.6723C98.1244 18.0603 98.4513 18.3886 98.8673 18.4185H100.531V25.9403C100.531 27.2537 100.829 28.2089 101.482 28.8655C102.106 29.4923 103.087 29.8207 104.424 29.8207C105.227 29.8207 106.029 29.7311 106.802 29.5222C107.128 29.4326 107.366 29.1342 107.396 28.8058C107.396 28.776 107.396 28.7461 107.396 28.7163C107.396 28.7163 107.396 28.6864 107.396 28.6566Z" fill="#191C1F"/>
<path d="M172.444 11.1056C172.415 10.7176 172.088 10.3892 171.672 10.3594C171.642 10.3594 171.612 10.3594 171.583 10.3594H169.8C169.77 10.3594 169.74 10.3594 169.711 10.3594C169.324 10.3892 168.997 10.7176 168.938 11.1056V16.4784C167.72 15.5829 166.234 15.0456 164.629 15.0456C160.617 15.0456 157.349 18.329 157.349 22.3884C157.349 26.4478 160.617 29.7013 164.629 29.7013C166.234 29.7013 167.749 29.164 168.938 28.2686V28.5671C168.938 28.5969 168.938 28.6268 168.938 28.6566C168.997 29.0745 169.354 29.4028 169.77 29.4028H171.553C171.999 29.4028 172.355 29.0745 172.385 28.6566C172.385 28.6268 172.385 28.5969 172.385 28.5671V11.1951C172.444 11.1653 172.444 11.1354 172.444 11.1056ZM168.968 22.4779C168.908 24.836 167.006 26.7164 164.659 26.7164C162.281 26.7164 160.35 24.7763 160.35 22.3884C160.35 20.0005 162.281 18.0305 164.659 18.0305C167.006 18.0305 168.908 19.911 168.968 22.269V22.4779Z" fill="#191C1F"/>
<path d="M148.316 15.0469C144.304 15.0469 141.035 18.3302 141.035 22.3598C141.035 26.3894 144.304 29.6727 148.316 29.6727C152.357 29.6727 155.596 26.3894 155.596 22.3598C155.596 18.3302 152.357 15.0469 148.316 15.0469ZM148.316 26.6282C145.938 26.6282 144.007 24.688 144.007 22.3001C144.007 19.9122 145.938 17.9721 148.316 17.9721C150.693 17.9721 152.624 19.9122 152.624 22.3001C152.624 24.688 150.693 26.6282 148.316 26.6282Z" fill="#191C1F"/>
<path d="M132.062 15.0469C128.05 15.0469 124.752 18.3302 124.752 22.3598C124.752 26.3894 128.021 29.6727 132.062 29.6727C136.103 29.6727 139.343 26.3894 139.343 22.3598C139.343 18.3302 136.074 15.0469 132.062 15.0469ZM132.062 26.6282C129.685 26.6282 127.753 24.688 127.753 22.3001C127.753 19.9122 129.685 17.9721 132.062 17.9721C134.439 17.9721 136.371 19.9122 136.371 22.3001C136.371 24.688 134.439 26.6282 132.062 26.6282Z" fill="#191C1F"/>
<path d="M123.295 11.5236C123.265 11.1355 122.938 10.8072 122.552 10.7773C122.522 10.7773 122.492 10.7773 122.463 10.7773H111.23C110.517 10.7773 109.952 11.3445 109.952 12.0608V29.0149C109.952 29.0447 109.952 29.0746 109.952 29.1044C110.012 29.5223 110.368 29.8507 110.784 29.8507H112.835C113.31 29.8507 113.667 29.4626 113.667 29.0149V22.5079C113.667 22.2691 113.845 22.09 114.053 22.09H121.839C122.284 22.09 122.641 21.7617 122.671 21.3438V19.7021C122.641 19.3141 122.314 18.9857 121.928 18.9559H114.112C113.875 18.926 113.696 18.7469 113.696 18.538V14.4189C113.696 14.1801 113.875 14.001 114.112 14.001H122.463C122.908 14.001 123.265 13.6727 123.295 13.2548C123.295 13.2249 123.295 13.1951 123.295 13.1652V11.6728C123.295 11.5833 123.295 11.5534 123.295 11.5236Z" fill="#191C1F"/>
<path d="M95.5987 26.2095C96.2227 25.1349 96.5793 23.8813 96.5793 22.5381C96.5793 18.4787 93.3105 15.1953 89.2691 15.1953C85.2278 15.1953 81.959 18.4787 81.959 22.5381C81.959 26.5975 85.2278 29.8809 89.2691 29.8809C90.6064 29.8809 91.8544 29.5227 92.9539 28.8959L95.8067 29.8212C96.0147 29.8809 96.2227 29.8212 96.3713 29.6719C96.5199 29.5227 96.5793 29.2839 96.5199 29.1048L95.5987 26.2095ZM89.2691 26.8662C86.8919 26.8662 84.9306 24.926 84.9306 22.5082C84.9306 20.0905 86.8621 18.1802 89.2691 18.1802C91.6464 18.1802 93.578 20.1203 93.578 22.5082C93.578 24.8961 91.6761 26.8662 89.2691 26.8662Z" fill="#191C1F"/>
<path d="M0 12C0 5.37258 5.37086 0 11.9961 0H27.991C34.6163 0 39.9872 5.37258 39.9872 12V28C39.9872 34.6274 34.6163 40 27.991 40H11.9961C5.37086 40 0 34.6274 0 28V12Z" fill="#009FE3"/>
<path d="M33.3222 19.6277C33.1235 19.6674 32.9249 19.6674 32.766 19.6674C30.1836 19.6674 28.1177 17.6008 28.1177 15.0176C28.1177 13.4677 28.8725 12.1165 29.9849 11.2819C29.6274 10.8845 29.2301 10.4871 28.8328 10.1294C28.6739 9.97043 28.4752 9.8512 28.3163 9.69223C28.1971 9.61275 28.078 9.49353 27.9588 9.41405C27.919 9.37431 27.8793 9.3743 27.8793 9.33456C27.7204 9.21534 27.6012 9.13586 27.4423 9.01663C27.2834 8.89741 27.1245 8.81792 26.9656 8.69869C26.7669 8.57947 26.5683 8.46024 26.3696 8.34102C26.2107 8.26154 26.0915 8.18205 25.9326 8.10257C25.7737 8.02308 25.6545 7.98334 25.4956 7.90386C25.4161 7.86412 25.3764 7.86412 25.2969 7.82438C25.138 7.7449 24.9791 7.70516 24.8202 7.62567C24.6215 7.54619 24.4626 7.50645 24.264 7.42696C24.264 7.42696 24.264 7.42696 24.2243 7.42696C24.0256 7.34748 23.827 7.30774 23.6283 7.22826C23.4297 7.18851 23.2708 7.10903 23.0721 7.06929C23.0324 7.06929 22.9927 7.06929 22.9529 7.02955C22.794 6.98981 22.5954 6.95006 22.4364 6.91032C22.2775 6.87057 22.1186 6.87058 21.9994 6.83084C21.92 6.83084 21.8405 6.7911 21.8008 6.7911C21.6021 6.75135 21.4432 6.75135 21.2446 6.71161C21.0459 6.71161 20.8473 6.67188 20.6089 6.67188C20.4103 6.67188 20.1719 6.67188 19.9733 6.67188C16.3182 6.67188 12.981 8.18205 10.5575 10.5666C10.1205 11.0037 9.68346 11.4806 9.28617 11.9973C9.16699 12.1562 9.0478 12.3549 8.92861 12.5139C8.88888 12.5934 8.80943 12.7126 8.7697 12.7921C8.61078 13.0305 8.49159 13.269 8.33268 13.5074C7.93539 14.2228 7.61756 14.9779 7.33945 15.7727C7.26 15.9317 7.22027 16.1304 7.18054 16.3291C6.86271 17.4816 6.66406 18.7136 6.66406 19.9853C6.66406 20.1443 6.66406 20.3033 6.66406 20.4622C6.66406 20.6212 6.66406 20.7802 6.70379 20.8994C6.70379 21.1776 6.74352 21.416 6.78325 21.6942C6.78325 21.8135 6.82298 21.8929 6.82298 22.0122C6.82298 22.0916 6.86271 22.1711 6.86271 22.2506C6.86271 22.3698 6.90243 22.4891 6.94216 22.6083C6.98189 22.807 7.02162 23.0057 7.06135 23.2044C7.10108 23.3236 7.10108 23.4031 7.14081 23.5223C7.22027 23.8005 7.29972 24.1185 7.41891 24.3967C7.45864 24.5159 7.49837 24.6749 7.57783 24.7941C7.61756 24.9133 7.69701 25.0723 7.73674 25.1915C7.77647 25.3107 7.85593 25.4697 7.89566 25.5889C7.97512 25.7081 8.01485 25.8274 8.09431 25.9863C8.21349 26.2248 8.33268 26.4632 8.45186 26.7017C8.45186 26.7017 8.45187 26.7414 8.4916 26.7414L6.82298 31.9476C6.70379 32.3053 6.78325 32.7424 7.06135 32.9809C7.33945 33.2591 7.73675 33.3385 8.09431 33.2193L13.2988 31.5502L13.3385 31.5899C13.5769 31.7091 13.8153 31.8284 14.0536 31.9476C14.1728 32.0271 14.292 32.0668 14.4509 32.1463C14.5701 32.186 14.6893 32.2655 14.8085 32.3053C14.8085 32.3053 14.8085 32.3053 14.8482 32.3053C14.9674 32.345 15.1263 32.4245 15.2455 32.4642C15.3647 32.504 15.5236 32.5835 15.6428 32.6232C15.7223 32.6629 15.8414 32.7027 15.9209 32.7027C16.1196 32.7822 16.3182 32.8219 16.5168 32.8616C16.5963 32.9014 16.7155 32.9014 16.7949 32.9411C17.1922 33.0206 17.5498 33.1001 17.9471 33.1796C18.0663 33.2193 18.1855 33.2193 18.2649 33.2193C18.543 33.2591 18.7814 33.2988 19.0595 33.2988C19.2184 33.2988 19.3773 33.3385 19.4965 33.3385C19.6554 33.3385 19.8143 33.3385 19.9335 33.3385C27.2834 33.3385 33.2427 27.3773 33.2427 20.0251V19.9853C33.3222 19.9059 33.3222 19.7469 33.3222 19.6277ZM14.8482 21.8134C14.0139 21.8134 13.3385 21.1378 13.3385 20.3033C13.3385 19.4687 14.0139 18.7931 14.8482 18.7931C15.6825 18.7931 16.3579 19.4687 16.3579 20.3033C16.3976 21.1378 15.6825 21.8134 14.8482 21.8134ZM20.0527 21.8134C19.2184 21.8134 18.543 21.1378 18.543 20.3033C18.543 19.4687 19.2184 18.7931 20.0527 18.7931C20.887 18.7931 21.5624 19.4687 21.5624 20.3033C21.5624 21.1378 20.887 21.8134 20.0527 21.8134ZM25.2175 21.8134C24.3832 21.8134 23.7078 21.1378 23.7078 20.3033C23.7078 19.4687 24.3832 18.7931 25.2175 18.7931C26.0518 18.7931 26.7272 19.4687 26.7272 20.3033C26.7272 21.1378 26.0518 21.8134 25.2175 21.8134Z" fill="white"/>
</svg>
