<svg width="180" height="46" viewBox="0 0 180 46" fill="none" xmlns="http://www.w3.org/2000/svg">
<g clip-path="url(#clip0_1810_11042)">
<path d="M72.7908 29.6264C72.7908 29.5966 72.7908 29.5667 72.7908 29.5369C72.7607 29.4175 72.7306 29.2981 72.6403 29.2085L72.52 29.0891L71.527 27.925L71.3766 27.7459C71.2562 27.6266 71.0757 27.5669 70.8951 27.537C70.865 27.537 70.835 27.537 70.8049 27.537C70.7748 27.537 70.7447 27.537 70.7146 27.537C70.6845 27.537 70.6544 27.537 70.6243 27.537C70.504 27.5669 70.3836 27.6266 70.2633 27.6863C70.2633 27.6863 70.2332 27.6863 70.2332 27.7161C69.3907 28.3728 68.6986 28.8205 68.0968 29.119C67.3446 29.4772 66.472 29.6563 65.5392 29.6563C63.8241 29.6563 62.44 29.0593 61.4169 27.8057C60.3638 26.5819 59.8522 24.97 59.8522 22.9403C59.8522 20.9106 60.3638 19.2988 61.4169 18.1048C62.47 16.9109 63.8542 16.2841 65.5994 16.2841C66.472 16.2841 67.3145 16.4333 68.0366 16.7616C68.6083 17.0004 69.2101 17.3586 69.8721 17.8959C69.9022 17.9257 69.9323 17.9556 69.9624 17.9556C70.0827 18.0451 70.2332 18.1048 70.3836 18.1048C70.4137 18.1048 70.4438 18.1048 70.4739 18.1048H70.504C70.5641 18.1048 70.6544 18.1048 70.7146 18.075C70.835 18.0451 70.9252 17.9854 71.0155 17.8959C71.0155 17.8959 71.0456 17.8959 71.0456 17.866L71.1058 17.8063L72.2492 16.493C72.3695 16.3736 72.4598 16.1945 72.4598 16.0154C72.4598 15.9856 72.4598 15.9557 72.4598 15.9259C72.4598 15.896 72.4598 15.8662 72.4598 15.8363C72.4598 15.8065 72.4598 15.7766 72.4598 15.7468C72.4297 15.6274 72.3996 15.5378 72.3394 15.4483C72.3394 15.4483 72.3394 15.4483 72.3394 15.4184L72.2191 15.2991C72.2191 15.2991 72.2191 15.2991 72.189 15.2991C71.2562 14.5528 70.3535 14.0156 69.4508 13.6574C68.3375 13.2096 67.0737 13.0007 65.6595 13.0007C62.7108 12.9709 60.3638 13.8962 58.5885 15.7766C56.8132 17.6571 55.9707 20.045 56.0008 22.9403C55.9707 25.8356 56.8433 28.2534 58.6186 30.1637C60.3939 32.074 62.7408 33.0292 65.5994 32.9993C67.0738 32.9993 68.3676 32.7605 69.5411 32.2531C70.504 31.8352 71.4668 31.2084 72.4598 30.3726L72.4899 30.3428C72.6403 30.1935 72.7306 30.0144 72.7607 29.8055C72.7607 29.7757 72.7607 29.7458 72.7607 29.716C72.7908 29.6861 72.7908 29.6563 72.7908 29.6264Z" fill="#191C1F"/>
<path d="M83.4425 18.8179C82.6 18.4 81.6973 18.1911 80.7043 18.1911C79.7414 18.1911 78.8388 18.4 78.0263 18.7881V14.6093C78.0263 14.5794 78.0263 14.5496 78.0263 14.5197C78.0263 14.4899 78.0263 14.46 78.0263 14.4302C77.9662 14.072 77.6352 13.7735 77.2741 13.7437C77.244 13.7437 77.2139 13.7437 77.1838 13.7437H75.3785C75.3484 13.7437 75.3183 13.7437 75.2882 13.7437C75.2581 13.7437 75.228 13.7437 75.1979 13.7437C74.8368 13.8033 74.5359 14.1317 74.5059 14.4899C74.5059 14.5197 74.5059 14.5496 74.5059 14.5794V31.9514C74.5059 31.9812 74.5059 32.011 74.5059 32.0409C74.5359 32.4289 74.8669 32.7573 75.2882 32.7871C75.3183 32.7871 75.3484 32.7871 75.3785 32.7871H77.1838H77.2139C77.2741 32.7871 77.3644 32.7871 77.4245 32.7573C77.7555 32.6677 77.9962 32.3692 78.0263 32.0409C78.0263 32.011 78.0263 31.9812 78.0263 31.9514V29.8321V24.519C78.0263 23.6534 78.2971 22.9669 78.8087 22.4296C79.3202 21.8923 80.0123 21.6237 80.8247 21.6237C81.6672 21.6237 82.2991 21.8625 82.7203 22.3401C83.1717 22.8176 83.3823 23.534 83.3823 24.4295V29.8321V32.0409C83.4124 32.4289 83.7434 32.7573 84.1646 32.7871C84.1947 32.7871 84.2248 32.7871 84.2549 32.7871H86.0603H86.0904C86.1505 32.7871 86.2107 32.7871 86.301 32.7573C86.632 32.6677 86.8727 32.3692 86.9028 32.0409C86.9028 32.011 86.9028 31.9812 86.9028 31.9514V24.3399C86.9028 21.8923 85.4886 19.8029 83.4425 18.8179Z" fill="#191C1F"/>
<path d="M114.133 31.6581L113.952 30.494C113.952 30.4641 113.952 30.4342 113.952 30.4044C113.892 30.0462 113.561 29.7477 113.2 29.7179C113.17 29.7179 113.14 29.7179 113.11 29.7179C113.08 29.7179 113.05 29.7179 113.02 29.7179C112.989 29.7179 112.959 29.7179 112.929 29.7179C112.628 29.7776 112.328 29.7776 112.057 29.7776C111.575 29.7776 111.214 29.688 111.004 29.5089C110.793 29.3298 110.673 29.0015 110.673 28.5239V21.42H113.14C113.23 21.42 113.29 21.42 113.381 21.3901C113.712 21.3006 113.952 21.0021 113.982 20.6737V19.5693C113.982 19.5395 113.982 19.5096 113.982 19.4798C113.922 19.1216 113.591 18.8231 113.23 18.7933H110.703V15.3905C110.703 15.3607 110.703 15.3308 110.703 15.301C110.703 15.2711 110.703 15.2413 110.703 15.2114C110.642 14.8532 110.312 14.5548 109.95 14.5249C109.92 14.5249 109.89 14.5249 109.86 14.5249H108.055C108.025 14.5249 107.995 14.5249 107.965 14.5249C107.934 14.5249 107.904 14.5249 107.874 14.5249C107.513 14.5846 107.212 14.9129 107.182 15.2711C107.182 15.301 107.182 15.3308 107.182 15.3607V18.7634H105.497C105.467 18.7634 105.437 18.7634 105.407 18.7634C105.046 18.8231 104.745 19.1514 104.715 19.5096C104.715 19.5395 104.715 19.5693 104.715 19.5992V20.5842C104.715 20.614 104.715 20.6439 104.715 20.6737C104.745 21.0618 105.076 21.3901 105.497 21.42H107.182V28.9418C107.182 30.2552 107.483 31.2103 108.145 31.867C108.777 32.4938 109.77 32.8221 111.124 32.8221C111.936 32.8221 112.749 32.7326 113.531 32.5237C113.862 32.4341 114.103 32.1356 114.133 31.8073C114.133 31.7774 114.133 31.7476 114.133 31.7178C114.133 31.7178 114.133 31.6879 114.133 31.6581Z" fill="#191C1F"/>
<path d="M180 14.1075C179.97 13.7195 179.639 13.3912 179.218 13.3613C179.188 13.3613 179.158 13.3613 179.128 13.3613H177.322C177.292 13.3613 177.262 13.3613 177.232 13.3613C176.841 13.3912 176.51 13.7195 176.45 14.1075V19.4803C175.216 18.5848 173.712 18.0476 172.087 18.0476C168.025 18.0476 164.715 21.3309 164.715 25.3903C164.715 29.4498 168.025 32.7033 172.087 32.7033C173.712 32.7033 175.246 32.166 176.45 31.2705V31.569C176.45 31.5989 176.45 31.6287 176.45 31.6586C176.51 32.0764 176.871 32.4048 177.292 32.4048H179.098C179.549 32.4048 179.91 32.0764 179.94 31.6586C179.94 31.6287 179.94 31.5989 179.94 31.569V14.1971C180 14.1672 180 14.1374 180 14.1075ZM176.48 25.4799C176.42 27.8379 174.494 29.7184 172.117 29.7184C169.71 29.7184 167.754 27.7782 167.754 25.3903C167.754 23.0024 169.71 21.0324 172.117 21.0324C174.494 21.0324 176.42 22.9129 176.48 25.271V25.4799Z" fill="#191C1F"/>
<path d="M155.567 18.0488C151.505 18.0488 148.195 21.3322 148.195 25.3618C148.195 29.3913 151.505 32.6747 155.567 32.6747C159.659 32.6747 162.939 29.3913 162.939 25.3618C162.939 21.3322 159.659 18.0488 155.567 18.0488ZM155.567 29.6301C153.16 29.6301 151.204 27.69 151.204 25.3021C151.204 22.9142 153.16 20.974 155.567 20.974C157.974 20.974 159.93 22.9142 159.93 25.3021C159.93 27.69 157.974 29.6301 155.567 29.6301Z" fill="#191C1F"/>
<path d="M139.109 18.0488C135.047 18.0488 131.707 21.3322 131.707 25.3618C131.707 29.3913 135.017 32.6747 139.109 32.6747C143.201 32.6747 146.481 29.3913 146.481 25.3618C146.481 21.3322 143.171 18.0488 139.109 18.0488ZM139.109 29.6301C136.702 29.6301 134.746 27.69 134.746 25.3021C134.746 22.9142 136.702 20.974 139.109 20.974C141.516 20.974 143.472 22.9142 143.472 25.3021C143.472 27.69 141.516 29.6301 139.109 29.6301Z" fill="#191C1F"/>
<path d="M130.233 14.5245C130.203 14.1365 129.872 13.8082 129.481 13.7783C129.451 13.7783 129.42 13.7783 129.39 13.7783H118.017C117.294 13.7783 116.723 14.3454 116.723 15.0618V32.0159C116.723 32.0457 116.723 32.0756 116.723 32.1054C116.783 32.5233 117.144 32.8516 117.565 32.8516H119.641C120.123 32.8516 120.484 32.4636 120.484 32.0159V25.5088C120.484 25.2701 120.664 25.091 120.875 25.091H128.759C129.21 25.091 129.571 24.7626 129.601 24.3448V22.7031C129.571 22.315 129.24 21.9867 128.849 21.9569H120.935C120.694 21.927 120.514 21.7479 120.514 21.539V17.4199C120.514 17.1811 120.694 17.002 120.935 17.002H129.39C129.842 17.002 130.203 16.6736 130.233 16.2558C130.233 16.2259 130.233 16.1961 130.233 16.1662V14.6738C130.233 14.5842 130.233 14.5544 130.233 14.5245Z" fill="#191C1F"/>
<path d="M102.188 29.208C102.82 28.1335 103.181 26.8798 103.181 25.5366C103.181 21.4772 99.8712 18.1938 95.779 18.1938C91.6868 18.1938 88.377 21.4772 88.377 25.5366C88.377 29.596 91.6868 32.8794 95.779 32.8794C97.133 32.8794 98.3968 32.5212 99.5101 31.8944L102.399 32.8197C102.609 32.8794 102.82 32.8197 102.97 32.6705C103.121 32.5212 103.181 32.2824 103.121 32.1033L102.188 29.208ZM95.779 29.8647C93.3718 29.8647 91.3859 27.9245 91.3859 25.5068C91.3859 23.089 93.3417 21.1787 95.779 21.1787C98.1862 21.1787 100.142 23.1189 100.142 25.5068C100.142 27.8947 98.2163 29.8647 95.779 29.8647Z" fill="#191C1F"/>
<path d="M0 13.8C0 6.17847 6.17847 0 13.8 0H32.2C39.8215 0 46 6.17847 46 13.8V32.2C46 39.8215 39.8215 46 32.2 46H13.8C6.17847 46 0 39.8215 0 32.2V13.8Z" fill="#009FE3"/>
<path d="M38.3327 22.57C38.1042 22.6157 37.8757 22.6158 37.6929 22.6158C34.7222 22.6158 32.3456 20.2392 32.3456 17.2685C32.3456 15.4861 33.214 13.9322 34.4936 12.9724C34.0823 12.5154 33.6253 12.0584 33.1683 11.647C32.9855 11.4642 32.7569 11.3271 32.5741 11.1443C32.437 11.0529 32.2999 10.9158 32.1628 10.8244C32.1171 10.7787 32.0714 10.7787 32.0714 10.733C31.8886 10.5959 31.7515 10.5045 31.5687 10.3674C31.3858 10.2303 31.203 10.1388 31.0202 10.0017C30.7917 9.86463 30.5632 9.72752 30.3347 9.59041C30.1519 9.49901 30.0148 9.4076 29.8319 9.31619C29.6491 9.22479 29.512 9.17908 29.3292 9.08768C29.2378 9.04198 29.1921 9.04198 29.1007 8.99628C28.9179 8.90488 28.7351 8.85917 28.5523 8.76777C28.3237 8.67636 28.1409 8.63066 27.9124 8.53925C27.9124 8.53925 27.9124 8.53925 27.8667 8.53925C27.6382 8.44785 27.4097 8.40214 27.1812 8.31074C26.9527 8.26503 26.7699 8.17363 26.5413 8.12793C26.4956 8.12793 26.4499 8.12793 26.4042 8.08222C26.2214 8.03652 25.9929 7.99081 25.8101 7.9451C25.6273 7.8994 25.4445 7.89941 25.3074 7.85371C25.216 7.85371 25.1245 7.808 25.0788 7.808C24.8503 7.7623 24.6675 7.76229 24.439 7.71659C24.2105 7.71659 23.982 7.6709 23.7078 7.6709C23.4792 7.6709 23.205 7.6709 22.9765 7.6709C18.7718 7.6709 14.9328 9.4076 12.1449 12.1498C11.6422 12.6525 11.1394 13.201 10.6824 13.7951C10.5453 13.9779 10.4082 14.2064 10.2711 14.3892C10.2254 14.4806 10.134 14.6177 10.0883 14.7091C9.90546 14.9834 9.76835 15.2576 9.58554 15.5318C9.12851 16.3544 8.76289 17.2228 8.44296 18.1369C8.35156 18.3197 8.30586 18.5482 8.26016 18.7767C7.89453 20.1021 7.66602 21.5189 7.66602 22.9814C7.66602 23.1642 7.66602 23.347 7.66602 23.5298C7.66602 23.7126 7.66602 23.8954 7.71172 24.0325C7.71172 24.3525 7.75742 24.6267 7.80313 24.9466C7.80313 25.0837 7.84882 25.1751 7.84882 25.3122C7.84882 25.4036 7.89453 25.495 7.89453 25.5864C7.89453 25.7236 7.94023 25.8607 7.98593 25.9978C8.03164 26.2263 8.07734 26.4548 8.12305 26.6833C8.16875 26.8204 8.16875 26.9118 8.21445 27.0489C8.30586 27.3689 8.39726 27.7345 8.53437 28.0544C8.58007 28.1915 8.62578 28.3743 8.71718 28.5114C8.76289 28.6485 8.85429 28.8313 8.89999 28.9685C8.9457 29.1056 9.03711 29.2884 9.08281 29.4255C9.17422 29.5626 9.21992 29.6997 9.31132 29.8825C9.44843 30.1567 9.58554 30.431 9.72265 30.7052C9.72265 30.7052 9.72265 30.7509 9.76835 30.7509L7.84882 36.738C7.71172 37.1493 7.80312 37.652 8.12305 37.9262C8.44297 38.2462 8.9 38.3376 9.31132 38.2005L15.2984 36.2809L15.3441 36.3266C15.6183 36.4637 15.8925 36.6008 16.1668 36.738C16.3039 36.8294 16.441 36.8751 16.6238 36.9665C16.7609 37.0122 16.898 37.1036 17.0351 37.1493C17.0351 37.1493 17.0351 37.1493 17.0808 37.1493C17.2179 37.195 17.4007 37.2864 17.5379 37.3321C17.675 37.3778 17.8578 37.4692 17.9949 37.5149C18.0863 37.5606 18.2234 37.6063 18.3148 37.6063C18.5433 37.6977 18.7718 37.7434 19.0003 37.7891C19.0918 37.8348 19.2289 37.8348 19.3203 37.8805C19.7773 37.9719 20.1886 38.0633 20.6457 38.1548C20.7828 38.2005 20.9199 38.2005 21.0113 38.2005C21.3312 38.2462 21.6054 38.2919 21.9253 38.2919C22.1081 38.2919 22.291 38.3376 22.4281 38.3376C22.6109 38.3376 22.7937 38.3376 22.9308 38.3376C31.3858 38.3376 38.2413 31.4821 38.2413 23.0271V22.9814C38.2413 22.9814 38.3327 22.7072 38.3327 22.57ZM17.0808 25.0837C16.1211 25.0837 15.3441 24.3068 15.3441 23.347C15.3441 22.3872 16.1211 21.6103 17.0808 21.6103C18.0406 21.6103 18.8175 22.3872 18.8175 23.347C18.8632 24.3068 18.0406 25.0837 17.0808 25.0837ZM23.0679 25.0837C22.1081 25.0837 21.3312 24.3068 21.3312 23.347C21.3312 22.3872 22.1081 21.6103 23.0679 21.6103C24.0277 21.6103 24.8046 22.3872 24.8046 23.347C24.8046 24.3068 24.0277 25.0837 23.0679 25.0837ZM29.0093 25.0837C28.0495 25.0837 27.2726 24.3068 27.2726 23.347C27.2726 22.3872 28.0495 21.6103 29.0093 21.6103C29.9691 21.6103 30.746 22.3872 30.746 23.347C30.746 24.3068 29.9691 25.0837 29.0093 25.0837Z" fill="white"/>
</g>
<defs>
<clipPath id="clip0_1810_11042">
<rect width="180" height="46" fill="white"/>
</clipPath>
</defs>
</svg>
