<svg width="96" height="96" viewBox="0 0 96 96" fill="none" xmlns="http://www.w3.org/2000/svg">
<g clip-path="url(#clip0_1656_10101)">
<path d="M96 0H0V96H96V0Z" fill="white"/>
<path d="M3.26379 0.384033H0.383789V3.26403H3.26379V0.384033Z" fill="#191C1F"/>
<path d="M6.14367 0.384033H3.26367V3.26403H6.14367V0.384033Z" fill="#191C1F"/>
<path d="M9.02355 0.384033H6.14355V3.26403H9.02355V0.384033Z" fill="#191C1F"/>
<path d="M11.9044 0.384033H9.02441V3.26403H11.9044V0.384033Z" fill="#191C1F"/>
<path d="M14.7843 0.384033H11.9043V3.26403H14.7843V0.384033Z" fill="#191C1F"/>
<path d="M17.6642 0.384033H14.7842V3.26403H17.6642V0.384033Z" fill="#191C1F"/>
<path d="M20.5441 0.384033H17.6641V3.26403H20.5441V0.384033Z" fill="#191C1F"/>
<path d="M29.1837 0.384033H26.3037V3.26403H29.1837V0.384033Z" fill="#191C1F"/>
<path d="M34.9445 0.384033H32.0645V3.26403H34.9445V0.384033Z" fill="#191C1F"/>
<path d="M37.8243 0.384033H34.9443V3.26403H37.8243V0.384033Z" fill="#191C1F"/>
<path d="M40.7042 0.384033H37.8242V3.26403H40.7042V0.384033Z" fill="#191C1F"/>
<path d="M49.3439 0.384033H46.4639V3.26403H49.3439V0.384033Z" fill="#191C1F"/>
<path d="M55.1036 0.384033H52.2236V3.26403H55.1036V0.384033Z" fill="#191C1F"/>
<path d="M57.9835 0.384033H55.1035V3.26403H57.9835V0.384033Z" fill="#191C1F"/>
<path d="M60.8644 0.384033H57.9844V3.26403H60.8644V0.384033Z" fill="#191C1F"/>
<path d="M63.7443 0.384033H60.8643V3.26403H63.7443V0.384033Z" fill="#191C1F"/>
<path d="M66.6241 0.384033H63.7441V3.26403H66.6241V0.384033Z" fill="#191C1F"/>
<path d="M69.504 0.384033H66.624V3.26403H69.504V0.384033Z" fill="#191C1F"/>
<path d="M72.3839 0.384033H69.5039V3.26403H72.3839V0.384033Z" fill="#191C1F"/>
<path d="M78.1437 0.384033H75.2637V3.26403H78.1437V0.384033Z" fill="#191C1F"/>
<path d="M81.0236 0.384033H78.1436V3.26403H81.0236V0.384033Z" fill="#191C1F"/>
<path d="M83.9044 0.384033H81.0244V3.26403H83.9044V0.384033Z" fill="#191C1F"/>
<path d="M86.7843 0.384033H83.9043V3.26403H86.7843V0.384033Z" fill="#191C1F"/>
<path d="M89.6642 0.384033H86.7842V3.26403H89.6642V0.384033Z" fill="#191C1F"/>
<path d="M92.5441 0.384033H89.6641V3.26403H92.5441V0.384033Z" fill="#191C1F"/>
<path d="M95.4239 0.384033H92.5439V3.26403H95.4239V0.384033Z" fill="#191C1F"/>
<path d="M3.26379 3.26392H0.383789V6.14392H3.26379V3.26392Z" fill="#191C1F"/>
<path d="M20.5441 3.26392H17.6641V6.14392H20.5441V3.26392Z" fill="#191C1F"/>
<path d="M29.1837 3.26392H26.3037V6.14392H29.1837V3.26392Z" fill="#191C1F"/>
<path d="M37.8243 3.26392H34.9443V6.14392H37.8243V3.26392Z" fill="#191C1F"/>
<path d="M43.5841 3.26392H40.7041V6.14392H43.5841V3.26392Z" fill="#191C1F"/>
<path d="M46.464 3.26392H43.584V6.14392H46.464V3.26392Z" fill="#191C1F"/>
<path d="M49.3439 3.26392H46.4639V6.14392H49.3439V3.26392Z" fill="#191C1F"/>
<path d="M57.9835 3.26392H55.1035V6.14392H57.9835V3.26392Z" fill="#191C1F"/>
<path d="M66.6241 3.26392H63.7441V6.14392H66.6241V3.26392Z" fill="#191C1F"/>
<path d="M69.504 3.26392H66.624V6.14392H69.504V3.26392Z" fill="#191C1F"/>
<path d="M72.3839 3.26392H69.5039V6.14392H72.3839V3.26392Z" fill="#191C1F"/>
<path d="M78.1437 3.26392H75.2637V6.14392H78.1437V3.26392Z" fill="#191C1F"/>
<path d="M95.4239 3.26392H92.5439V6.14392H95.4239V3.26392Z" fill="#191C1F"/>
<path d="M3.26379 6.14404H0.383789V9.02404H3.26379V6.14404Z" fill="#191C1F"/>
<path d="M9.02355 6.14404H6.14355V9.02404H9.02355V6.14404Z" fill="#191C1F"/>
<path d="M11.9044 6.14404H9.02441V9.02404H11.9044V6.14404Z" fill="#191C1F"/>
<path d="M14.7843 6.14404H11.9043V9.02404H14.7843V6.14404Z" fill="#191C1F"/>
<path d="M20.5441 6.14404H17.6641V9.02404H20.5441V6.14404Z" fill="#191C1F"/>
<path d="M32.0636 6.14404H29.1836V9.02404H32.0636V6.14404Z" fill="#191C1F"/>
<path d="M34.9445 6.14404H32.0645V9.02404H34.9445V6.14404Z" fill="#191C1F"/>
<path d="M49.3439 6.14404H46.4639V9.02404H49.3439V6.14404Z" fill="#191C1F"/>
<path d="M52.2238 6.14404H49.3438V9.02404H52.2238V6.14404Z" fill="#191C1F"/>
<path d="M57.9835 6.14404H55.1035V9.02404H57.9835V6.14404Z" fill="#191C1F"/>
<path d="M60.8644 6.14404H57.9844V9.02404H60.8644V6.14404Z" fill="#191C1F"/>
<path d="M66.6241 6.14404H63.7441V9.02404H66.6241V6.14404Z" fill="#191C1F"/>
<path d="M69.504 6.14404H66.624V9.02404H69.504V6.14404Z" fill="#191C1F"/>
<path d="M72.3839 6.14404H69.5039V9.02404H72.3839V6.14404Z" fill="#191C1F"/>
<path d="M78.1437 6.14404H75.2637V9.02404H78.1437V6.14404Z" fill="#191C1F"/>
<path d="M83.9044 6.14404H81.0244V9.02404H83.9044V6.14404Z" fill="#191C1F"/>
<path d="M86.7843 6.14404H83.9043V9.02404H86.7843V6.14404Z" fill="#191C1F"/>
<path d="M89.6642 6.14404H86.7842V9.02404H89.6642V6.14404Z" fill="#191C1F"/>
<path d="M95.4239 6.14404H92.5439V9.02404H95.4239V6.14404Z" fill="#191C1F"/>
<path d="M3.26379 9.02393H0.383789V11.9039H3.26379V9.02393Z" fill="#191C1F"/>
<path d="M9.02355 9.02393H6.14355V11.9039H9.02355V9.02393Z" fill="#191C1F"/>
<path d="M11.9044 9.02393H9.02441V11.9039H11.9044V9.02393Z" fill="#191C1F"/>
<path d="M14.7843 9.02393H11.9043V11.9039H14.7843V9.02393Z" fill="#191C1F"/>
<path d="M20.5441 9.02393H17.6641V11.9039H20.5441V9.02393Z" fill="#191C1F"/>
<path d="M32.0636 9.02393H29.1836V11.9039H32.0636V9.02393Z" fill="#191C1F"/>
<path d="M37.8243 9.02393H34.9443V11.9039H37.8243V9.02393Z" fill="#191C1F"/>
<path d="M43.5841 9.02393H40.7041V11.9039H43.5841V9.02393Z" fill="#191C1F"/>
<path d="M46.464 9.02393H43.584V11.9039H46.464V9.02393Z" fill="#191C1F"/>
<path d="M57.9835 9.02393H55.1035V11.9039H57.9835V9.02393Z" fill="#191C1F"/>
<path d="M60.8644 9.02393H57.9844V11.9039H60.8644V9.02393Z" fill="#191C1F"/>
<path d="M63.7443 9.02393H60.8643V11.9039H63.7443V9.02393Z" fill="#191C1F"/>
<path d="M66.6241 9.02393H63.7441V11.9039H66.6241V9.02393Z" fill="#191C1F"/>
<path d="M72.3839 9.02393H69.5039V11.9039H72.3839V9.02393Z" fill="#191C1F"/>
<path d="M78.1437 9.02393H75.2637V11.9039H78.1437V9.02393Z" fill="#191C1F"/>
<path d="M83.9044 9.02393H81.0244V11.9039H83.9044V9.02393Z" fill="#191C1F"/>
<path d="M86.7843 9.02393H83.9043V11.9039H86.7843V9.02393Z" fill="#191C1F"/>
<path d="M89.6642 9.02393H86.7842V11.9039H89.6642V9.02393Z" fill="#191C1F"/>
<path d="M95.4239 9.02393H92.5439V11.9039H95.4239V9.02393Z" fill="#191C1F"/>
<path d="M3.26379 11.9041H0.383789V14.7841H3.26379V11.9041Z" fill="#191C1F"/>
<path d="M9.02355 11.9041H6.14355V14.7841H9.02355V11.9041Z" fill="#191C1F"/>
<path d="M11.9044 11.9041H9.02441V14.7841H11.9044V11.9041Z" fill="#191C1F"/>
<path d="M14.7843 11.9041H11.9043V14.7841H14.7843V11.9041Z" fill="#191C1F"/>
<path d="M20.5441 11.9041H17.6641V14.7841H20.5441V11.9041Z" fill="#191C1F"/>
<path d="M26.3038 11.9041H23.4238V14.7841H26.3038V11.9041Z" fill="#191C1F"/>
<path d="M32.0636 11.9041H29.1836V14.7841H32.0636V11.9041Z" fill="#191C1F"/>
<path d="M37.8243 11.9041H34.9443V14.7841H37.8243V11.9041Z" fill="#191C1F"/>
<path d="M49.3439 11.9041H46.4639V14.7841H49.3439V11.9041Z" fill="#191C1F"/>
<path d="M52.2238 11.9041H49.3438V14.7841H52.2238V11.9041Z" fill="#191C1F"/>
<path d="M55.1036 11.9041H52.2236V14.7841H55.1036V11.9041Z" fill="#191C1F"/>
<path d="M69.504 11.9041H66.624V14.7841H69.504V11.9041Z" fill="#191C1F"/>
<path d="M72.3839 11.9041H69.5039V14.7841H72.3839V11.9041Z" fill="#191C1F"/>
<path d="M78.1437 11.9041H75.2637V14.7841H78.1437V11.9041Z" fill="#191C1F"/>
<path d="M83.9044 11.9041H81.0244V14.7841H83.9044V11.9041Z" fill="#191C1F"/>
<path d="M86.7843 11.9041H83.9043V14.7841H86.7843V11.9041Z" fill="#191C1F"/>
<path d="M89.6642 11.9041H86.7842V14.7841H89.6642V11.9041Z" fill="#191C1F"/>
<path d="M95.4239 11.9041H92.5439V14.7841H95.4239V11.9041Z" fill="#191C1F"/>
<path d="M3.26379 14.7839H0.383789V17.6639H3.26379V14.7839Z" fill="#191C1F"/>
<path d="M20.5441 14.7839H17.6641V17.6639H20.5441V14.7839Z" fill="#191C1F"/>
<path d="M34.9445 14.7839H32.0645V17.6639H34.9445V14.7839Z" fill="#191C1F"/>
<path d="M43.5841 14.7839H40.7041V17.6639H43.5841V14.7839Z" fill="#191C1F"/>
<path d="M46.464 14.7839H43.584V17.6639H46.464V14.7839Z" fill="#191C1F"/>
<path d="M49.3439 14.7839H46.4639V17.6639H49.3439V14.7839Z" fill="#191C1F"/>
<path d="M52.2238 14.7839H49.3438V17.6639H52.2238V14.7839Z" fill="#191C1F"/>
<path d="M55.1036 14.7839H52.2236V17.6639H55.1036V14.7839Z" fill="#191C1F"/>
<path d="M57.9835 14.7839H55.1035V17.6639H57.9835V14.7839Z" fill="#191C1F"/>
<path d="M60.8644 14.7839H57.9844V17.6639H60.8644V14.7839Z" fill="#191C1F"/>
<path d="M69.504 14.7839H66.624V17.6639H69.504V14.7839Z" fill="#191C1F"/>
<path d="M78.1437 14.7839H75.2637V17.6639H78.1437V14.7839Z" fill="#191C1F"/>
<path d="M95.4239 14.7839H92.5439V17.6639H95.4239V14.7839Z" fill="#191C1F"/>
<path d="M3.26379 17.6641H0.383789V20.5441H3.26379V17.6641Z" fill="#191C1F"/>
<path d="M6.14367 17.6641H3.26367V20.5441H6.14367V17.6641Z" fill="#191C1F"/>
<path d="M9.02355 17.6641H6.14355V20.5441H9.02355V17.6641Z" fill="#191C1F"/>
<path d="M11.9044 17.6641H9.02441V20.5441H11.9044V17.6641Z" fill="#191C1F"/>
<path d="M14.7843 17.6641H11.9043V20.5441H14.7843V17.6641Z" fill="#191C1F"/>
<path d="M17.6642 17.6641H14.7842V20.5441H17.6642V17.6641Z" fill="#191C1F"/>
<path d="M20.5441 17.6641H17.6641V20.5441H20.5441V17.6641Z" fill="#191C1F"/>
<path d="M26.3038 17.6641H23.4238V20.5441H26.3038V17.6641Z" fill="#191C1F"/>
<path d="M32.0636 17.6641H29.1836V20.5441H32.0636V17.6641Z" fill="#191C1F"/>
<path d="M37.8243 17.6641H34.9443V20.5441H37.8243V17.6641Z" fill="#191C1F"/>
<path d="M43.5841 17.6641H40.7041V20.5441H43.5841V17.6641Z" fill="#191C1F"/>
<path d="M49.3439 17.6641H46.4639V20.5441H49.3439V17.6641Z" fill="#191C1F"/>
<path d="M55.1036 17.6641H52.2236V20.5441H55.1036V17.6641Z" fill="#191C1F"/>
<path d="M60.8644 17.6641H57.9844V20.5441H60.8644V17.6641Z" fill="#191C1F"/>
<path d="M66.6241 17.6641H63.7441V20.5441H66.6241V17.6641Z" fill="#191C1F"/>
<path d="M72.3839 17.6641H69.5039V20.5441H72.3839V17.6641Z" fill="#191C1F"/>
<path d="M78.1437 17.6641H75.2637V20.5441H78.1437V17.6641Z" fill="#191C1F"/>
<path d="M81.0236 17.6641H78.1436V20.5441H81.0236V17.6641Z" fill="#191C1F"/>
<path d="M83.9044 17.6641H81.0244V20.5441H83.9044V17.6641Z" fill="#191C1F"/>
<path d="M86.7843 17.6641H83.9043V20.5441H86.7843V17.6641Z" fill="#191C1F"/>
<path d="M89.6642 17.6641H86.7842V20.5441H89.6642V17.6641Z" fill="#191C1F"/>
<path d="M92.5441 17.6641H89.6641V20.5441H92.5441V17.6641Z" fill="#191C1F"/>
<path d="M95.4239 17.6641H92.5439V20.5441H95.4239V17.6641Z" fill="#191C1F"/>
<path d="M26.3038 20.5439H23.4238V23.4239H26.3038V20.5439Z" fill="#191C1F"/>
<path d="M32.0636 20.5439H29.1836V23.4239H32.0636V20.5439Z" fill="#191C1F"/>
<path d="M34.9445 20.5439H32.0645V23.4239H34.9445V20.5439Z" fill="#191C1F"/>
<path d="M43.5841 20.5439H40.7041V23.4239H43.5841V20.5439Z" fill="#191C1F"/>
<path d="M49.3439 20.5439H46.4639V23.4239H49.3439V20.5439Z" fill="#191C1F"/>
<path d="M55.1036 20.5439H52.2236V23.4239H55.1036V20.5439Z" fill="#191C1F"/>
<path d="M57.9835 20.5439H55.1035V23.4239H57.9835V20.5439Z" fill="#191C1F"/>
<path d="M72.3839 20.5439H69.5039V23.4239H72.3839V20.5439Z" fill="#191C1F"/>
<path d="M9.02355 23.4241H6.14355V26.3041H9.02355V23.4241Z" fill="#191C1F"/>
<path d="M11.9044 23.4241H9.02441V26.3041H11.9044V23.4241Z" fill="#191C1F"/>
<path d="M20.5441 23.4241H17.6641V26.3041H20.5441V23.4241Z" fill="#191C1F"/>
<path d="M23.4239 23.4241H20.5439V26.3041H23.4239V23.4241Z" fill="#191C1F"/>
<path d="M26.3038 23.4241H23.4238V26.3041H26.3038V23.4241Z" fill="#191C1F"/>
<path d="M34.9445 23.4241H32.0645V26.3041H34.9445V23.4241Z" fill="#191C1F"/>
<path d="M40.7042 23.4241H37.8242V26.3041H40.7042V23.4241Z" fill="#191C1F"/>
<path d="M43.5841 23.4241H40.7041V26.3041H43.5841V23.4241Z" fill="#191C1F"/>
<path d="M49.3439 23.4241H46.4639V26.3041H49.3439V23.4241Z" fill="#191C1F"/>
<path d="M52.2238 23.4241H49.3438V26.3041H52.2238V23.4241Z" fill="#191C1F"/>
<path d="M55.1036 23.4241H52.2236V26.3041H55.1036V23.4241Z" fill="#191C1F"/>
<path d="M57.9835 23.4241H55.1035V26.3041H57.9835V23.4241Z" fill="#191C1F"/>
<path d="M63.7443 23.4241H60.8643V26.3041H63.7443V23.4241Z" fill="#191C1F"/>
<path d="M69.504 23.4241H66.624V26.3041H69.504V23.4241Z" fill="#191C1F"/>
<path d="M75.2638 23.4241H72.3838V26.3041H75.2638V23.4241Z" fill="#191C1F"/>
<path d="M78.1437 23.4241H75.2637V26.3041H78.1437V23.4241Z" fill="#191C1F"/>
<path d="M83.9044 23.4241H81.0244V26.3041H83.9044V23.4241Z" fill="#191C1F"/>
<path d="M14.7843 26.304H11.9043V29.184H14.7843V26.304Z" fill="#191C1F"/>
<path d="M23.4239 26.304H20.5439V29.184H23.4239V26.304Z" fill="#191C1F"/>
<path d="M29.1837 26.304H26.3037V29.184H29.1837V26.304Z" fill="#191C1F"/>
<path d="M34.9445 26.304H32.0645V29.184H34.9445V26.304Z" fill="#191C1F"/>
<path d="M37.8243 26.304H34.9443V29.184H37.8243V26.304Z" fill="#191C1F"/>
<path d="M43.5841 26.304H40.7041V29.184H43.5841V26.304Z" fill="#191C1F"/>
<path d="M55.1036 26.304H52.2236V29.184H55.1036V26.304Z" fill="#191C1F"/>
<path d="M57.9835 26.304H55.1035V29.184H57.9835V26.304Z" fill="#191C1F"/>
<path d="M60.8644 26.304H57.9844V29.184H60.8644V26.304Z" fill="#191C1F"/>
<path d="M63.7443 26.304H60.8643V29.184H63.7443V26.304Z" fill="#191C1F"/>
<path d="M86.7843 26.304H83.9043V29.184H86.7843V26.304Z" fill="#191C1F"/>
<path d="M89.6642 26.304H86.7842V29.184H89.6642V26.304Z" fill="#191C1F"/>
<path d="M92.5441 26.304H89.6641V29.184H92.5441V26.304Z" fill="#191C1F"/>
<path d="M95.4239 26.304H92.5439V29.184H95.4239V26.304Z" fill="#191C1F"/>
<path d="M6.14367 29.1841H3.26367V32.0641H6.14367V29.1841Z" fill="#191C1F"/>
<path d="M11.9044 29.1841H9.02441V32.0641H11.9044V29.1841Z" fill="#191C1F"/>
<path d="M14.7843 29.1841H11.9043V32.0641H14.7843V29.1841Z" fill="#191C1F"/>
<path d="M17.6642 29.1841H14.7842V32.0641H17.6642V29.1841Z" fill="#191C1F"/>
<path d="M20.5441 29.1841H17.6641V32.0641H20.5441V29.1841Z" fill="#191C1F"/>
<path d="M26.3038 29.1841H23.4238V32.0641H26.3038V29.1841Z" fill="#191C1F"/>
<path d="M29.1837 29.1841H26.3037V32.0641H29.1837V29.1841Z" fill="#191C1F"/>
<path d="M32.0636 29.1841H29.1836V32.0641H32.0636V29.1841Z" fill="#191C1F"/>
<path d="M34.9445 29.1841H32.0645V32.0641H34.9445V29.1841Z" fill="#191C1F"/>
<path d="M43.5841 29.1841H40.7041V32.0641H43.5841V29.1841Z" fill="#191C1F"/>
<path d="M60.8644 29.1841H57.9844V32.0641H60.8644V29.1841Z" fill="#191C1F"/>
<path d="M69.504 29.1841H66.624V32.0641H69.504V29.1841Z" fill="#191C1F"/>
<path d="M72.3839 29.1841H69.5039V32.0641H72.3839V29.1841Z" fill="#191C1F"/>
<path d="M75.2638 29.1841H72.3838V32.0641H75.2638V29.1841Z" fill="#191C1F"/>
<path d="M78.1437 29.1841H75.2637V32.0641H78.1437V29.1841Z" fill="#191C1F"/>
<path d="M81.0236 29.1841H78.1436V32.0641H81.0236V29.1841Z" fill="#191C1F"/>
<path d="M83.9044 29.1841H81.0244V32.0641H83.9044V29.1841Z" fill="#191C1F"/>
<path d="M89.6642 29.1841H86.7842V32.0641H89.6642V29.1841Z" fill="#191C1F"/>
<path d="M92.5441 29.1841H89.6641V32.0641H92.5441V29.1841Z" fill="#191C1F"/>
<path d="M3.26379 32.064H0.383789V34.944H3.26379V32.064Z" fill="#191C1F"/>
<path d="M9.02355 32.064H6.14355V34.944H9.02355V32.064Z" fill="#191C1F"/>
<path d="M11.9044 32.064H9.02441V34.944H11.9044V32.064Z" fill="#191C1F"/>
<path d="M14.7843 32.064H11.9043V34.944H14.7843V32.064Z" fill="#191C1F"/>
<path d="M23.4239 32.064H20.5439V34.944H23.4239V32.064Z" fill="#191C1F"/>
<path d="M29.1837 32.064H26.3037V34.944H29.1837V32.064Z" fill="#191C1F"/>
<path d="M32.0636 32.064H29.1836V34.944H32.0636V32.064Z" fill="#191C1F"/>
<path d="M37.8243 32.064H34.9443V34.944H37.8243V32.064Z" fill="#191C1F"/>
<path d="M46.464 32.064H43.584V34.944H46.464V32.064Z" fill="#191C1F"/>
<path d="M52.2238 32.064H49.3438V34.944H52.2238V32.064Z" fill="#191C1F"/>
<path d="M55.1036 32.064H52.2236V34.944H55.1036V32.064Z" fill="#191C1F"/>
<path d="M57.9835 32.064H55.1035V34.944H57.9835V32.064Z" fill="#191C1F"/>
<path d="M69.504 32.064H66.624V34.944H69.504V32.064Z" fill="#191C1F"/>
<path d="M72.3839 32.064H69.5039V34.944H72.3839V32.064Z" fill="#191C1F"/>
<path d="M75.2638 32.064H72.3838V34.944H75.2638V32.064Z" fill="#191C1F"/>
<path d="M78.1437 32.064H75.2637V34.944H78.1437V32.064Z" fill="#191C1F"/>
<path d="M81.0236 32.064H78.1436V34.944H81.0236V32.064Z" fill="#191C1F"/>
<path d="M83.9044 32.064H81.0244V34.944H83.9044V32.064Z" fill="#191C1F"/>
<path d="M86.7843 32.064H83.9043V34.944H86.7843V32.064Z" fill="#191C1F"/>
<path d="M92.5441 32.064H89.6641V34.944H92.5441V32.064Z" fill="#191C1F"/>
<path d="M95.4239 32.064H92.5439V34.944H95.4239V32.064Z" fill="#191C1F"/>
<path d="M3.26379 34.9441H0.383789V37.8241H3.26379V34.9441Z" fill="#191C1F"/>
<path d="M11.9044 34.9441H9.02441V37.8241H11.9044V34.9441Z" fill="#191C1F"/>
<path d="M17.6642 34.9441H14.7842V37.8241H17.6642V34.9441Z" fill="#191C1F"/>
<path d="M20.5441 34.9441H17.6641V37.8241H20.5441V34.9441Z" fill="#191C1F"/>
<path d="M23.4239 34.9441H20.5439V37.8241H23.4239V34.9441Z" fill="#191C1F"/>
<path d="M26.3038 34.9441H23.4238V37.8241H26.3038V34.9441Z" fill="#191C1F"/>
<path d="M34.9445 34.9441H32.0645V37.8241H34.9445V34.9441Z" fill="#191C1F"/>
<path d="M37.8243 34.9441H34.9443V37.8241H37.8243V34.9441Z" fill="#191C1F"/>
<path d="M55.1036 34.9441H52.2236V37.8241H55.1036V34.9441Z" fill="#191C1F"/>
<path d="M57.9835 34.9441H55.1035V37.8241H57.9835V34.9441Z" fill="#191C1F"/>
<path d="M63.7443 34.9441H60.8643V37.8241H63.7443V34.9441Z" fill="#191C1F"/>
<path d="M75.2638 34.9441H72.3838V37.8241H75.2638V34.9441Z" fill="#191C1F"/>
<path d="M78.1437 34.9441H75.2637V37.8241H78.1437V34.9441Z" fill="#191C1F"/>
<path d="M83.9044 34.9441H81.0244V37.8241H83.9044V34.9441Z" fill="#191C1F"/>
<path d="M86.7843 34.9441H83.9043V37.8241H86.7843V34.9441Z" fill="#191C1F"/>
<path d="M89.6642 34.9441H86.7842V37.8241H89.6642V34.9441Z" fill="#191C1F"/>
<path d="M6.14367 37.824H3.26367V40.704H6.14367V37.824Z" fill="#191C1F"/>
<path d="M11.9044 37.824H9.02441V40.704H11.9044V37.824Z" fill="#191C1F"/>
<path d="M17.6642 37.824H14.7842V40.704H17.6642V37.824Z" fill="#191C1F"/>
<path d="M23.4239 37.824H20.5439V40.704H23.4239V37.824Z" fill="#191C1F"/>
<path d="M32.0636 37.824H29.1836V40.704H32.0636V37.824Z" fill="#191C1F"/>
<path d="M34.9445 37.824H32.0645V40.704H34.9445V37.824Z" fill="#191C1F"/>
<path d="M40.7042 37.824H37.8242V40.704H40.7042V37.824Z" fill="#191C1F"/>
<path d="M49.3439 37.824H46.4639V40.704H49.3439V37.824Z" fill="#191C1F"/>
<path d="M52.2238 37.824H49.3438V40.704H52.2238V37.824Z" fill="#191C1F"/>
<path d="M55.1036 37.824H52.2236V40.704H55.1036V37.824Z" fill="#191C1F"/>
<path d="M60.8644 37.824H57.9844V40.704H60.8644V37.824Z" fill="#191C1F"/>
<path d="M66.6241 37.824H63.7441V40.704H66.6241V37.824Z" fill="#191C1F"/>
<path d="M72.3839 37.824H69.5039V40.704H72.3839V37.824Z" fill="#191C1F"/>
<path d="M75.2638 37.824H72.3838V40.704H75.2638V37.824Z" fill="#191C1F"/>
<path d="M78.1437 37.824H75.2637V40.704H78.1437V37.824Z" fill="#191C1F"/>
<path d="M81.0236 37.824H78.1436V40.704H81.0236V37.824Z" fill="#191C1F"/>
<path d="M83.9044 37.824H81.0244V40.704H83.9044V37.824Z" fill="#191C1F"/>
<path d="M95.4239 37.824H92.5439V40.704H95.4239V37.824Z" fill="#191C1F"/>
<path d="M9.02355 40.7041H6.14355V43.5841H9.02355V40.7041Z" fill="#191C1F"/>
<path d="M17.6642 40.7041H14.7842V43.5841H17.6642V40.7041Z" fill="#191C1F"/>
<path d="M20.5441 40.7041H17.6641V43.5841H20.5441V40.7041Z" fill="#191C1F"/>
<path d="M23.4239 40.7041H20.5439V43.5841H23.4239V40.7041Z" fill="#191C1F"/>
<path d="M26.3038 40.7041H23.4238V43.5841H26.3038V40.7041Z" fill="#191C1F"/>
<path d="M32.0636 40.7041H29.1836V43.5841H32.0636V40.7041Z" fill="#191C1F"/>
<path d="M46.464 40.7041H43.584V43.5841H46.464V40.7041Z" fill="#191C1F"/>
<path d="M49.3439 40.7041H46.4639V43.5841H49.3439V40.7041Z" fill="#191C1F"/>
<path d="M63.7443 40.7041H60.8643V43.5841H63.7443V40.7041Z" fill="#191C1F"/>
<path d="M66.6241 40.7041H63.7441V43.5841H66.6241V40.7041Z" fill="#191C1F"/>
<path d="M69.504 40.7041H66.624V43.5841H69.504V40.7041Z" fill="#191C1F"/>
<path d="M89.6642 40.7041H86.7842V43.5841H89.6642V40.7041Z" fill="#191C1F"/>
<path d="M9.02355 43.584H6.14355V46.464H9.02355V43.584Z" fill="#191C1F"/>
<path d="M14.7843 43.584H11.9043V46.464H14.7843V43.584Z" fill="#191C1F"/>
<path d="M17.6642 43.584H14.7842V46.464H17.6642V43.584Z" fill="#191C1F"/>
<path d="M37.8243 43.584H34.9443V46.464H37.8243V43.584Z" fill="#191C1F"/>
<path d="M43.5841 43.584H40.7041V46.464H43.5841V43.584Z" fill="#191C1F"/>
<path d="M49.3439 43.584H46.4639V46.464H49.3439V43.584Z" fill="#191C1F"/>
<path d="M55.1036 43.584H52.2236V46.464H55.1036V43.584Z" fill="#191C1F"/>
<path d="M57.9835 43.584H55.1035V46.464H57.9835V43.584Z" fill="#191C1F"/>
<path d="M66.6241 43.584H63.7441V46.464H66.6241V43.584Z" fill="#191C1F"/>
<path d="M69.504 43.584H66.624V46.464H69.504V43.584Z" fill="#191C1F"/>
<path d="M72.3839 43.584H69.5039V46.464H72.3839V43.584Z" fill="#191C1F"/>
<path d="M78.1437 43.584H75.2637V46.464H78.1437V43.584Z" fill="#191C1F"/>
<path d="M86.7843 43.584H83.9043V46.464H86.7843V43.584Z" fill="#191C1F"/>
<path d="M89.6642 43.584H86.7842V46.464H89.6642V43.584Z" fill="#191C1F"/>
<path d="M95.4239 43.584H92.5439V46.464H95.4239V43.584Z" fill="#191C1F"/>
<path d="M3.26379 46.4641H0.383789V49.3441H3.26379V46.4641Z" fill="#191C1F"/>
<path d="M6.14367 46.4641H3.26367V49.3441H6.14367V46.4641Z" fill="#191C1F"/>
<path d="M20.5441 46.4641H17.6641V49.3441H20.5441V46.4641Z" fill="#191C1F"/>
<path d="M29.1837 46.4641H26.3037V49.3441H29.1837V46.4641Z" fill="#191C1F"/>
<path d="M32.0636 46.4641H29.1836V49.3441H32.0636V46.4641Z" fill="#191C1F"/>
<path d="M34.9445 46.4641H32.0645V49.3441H34.9445V46.4641Z" fill="#191C1F"/>
<path d="M37.8243 46.4641H34.9443V49.3441H37.8243V46.4641Z" fill="#191C1F"/>
<path d="M52.2238 46.4641H49.3438V49.3441H52.2238V46.4641Z" fill="#191C1F"/>
<path d="M55.1036 46.4641H52.2236V49.3441H55.1036V46.4641Z" fill="#191C1F"/>
<path d="M57.9835 46.4641H55.1035V49.3441H57.9835V46.4641Z" fill="#191C1F"/>
<path d="M63.7443 46.4641H60.8643V49.3441H63.7443V46.4641Z" fill="#191C1F"/>
<path d="M69.504 46.4641H66.624V49.3441H69.504V46.4641Z" fill="#191C1F"/>
<path d="M81.0236 46.4641H78.1436V49.3441H81.0236V46.4641Z" fill="#191C1F"/>
<path d="M83.9044 46.4641H81.0244V49.3441H83.9044V46.4641Z" fill="#191C1F"/>
<path d="M86.7843 46.4641H83.9043V49.3441H86.7843V46.4641Z" fill="#191C1F"/>
<path d="M3.26379 49.344H0.383789V52.224H3.26379V49.344Z" fill="#191C1F"/>
<path d="M6.14367 49.344H3.26367V52.224H6.14367V49.344Z" fill="#191C1F"/>
<path d="M9.02355 49.344H6.14355V52.224H9.02355V49.344Z" fill="#191C1F"/>
<path d="M14.7843 49.344H11.9043V52.224H14.7843V49.344Z" fill="#191C1F"/>
<path d="M17.6642 49.344H14.7842V52.224H17.6642V49.344Z" fill="#191C1F"/>
<path d="M23.4239 49.344H20.5439V52.224H23.4239V49.344Z" fill="#191C1F"/>
<path d="M26.3038 49.344H23.4238V52.224H26.3038V49.344Z" fill="#191C1F"/>
<path d="M29.1837 49.344H26.3037V52.224H29.1837V49.344Z" fill="#191C1F"/>
<path d="M32.0636 49.344H29.1836V52.224H32.0636V49.344Z" fill="#191C1F"/>
<path d="M37.8243 49.344H34.9443V52.224H37.8243V49.344Z" fill="#191C1F"/>
<path d="M40.7042 49.344H37.8242V52.224H40.7042V49.344Z" fill="#191C1F"/>
<path d="M43.5841 49.344H40.7041V52.224H43.5841V49.344Z" fill="#191C1F"/>
<path d="M49.3439 49.344H46.4639V52.224H49.3439V49.344Z" fill="#191C1F"/>
<path d="M60.8644 49.344H57.9844V52.224H60.8644V49.344Z" fill="#191C1F"/>
<path d="M66.6241 49.344H63.7441V52.224H66.6241V49.344Z" fill="#191C1F"/>
<path d="M75.2638 49.344H72.3838V52.224H75.2638V49.344Z" fill="#191C1F"/>
<path d="M83.9044 49.344H81.0244V52.224H83.9044V49.344Z" fill="#191C1F"/>
<path d="M95.4239 49.344H92.5439V52.224H95.4239V49.344Z" fill="#191C1F"/>
<path d="M14.7843 52.2241H11.9043V55.1041H14.7843V52.2241Z" fill="#191C1F"/>
<path d="M17.6642 52.2241H14.7842V55.1041H17.6642V52.2241Z" fill="#191C1F"/>
<path d="M20.5441 52.2241H17.6641V55.1041H20.5441V52.2241Z" fill="#191C1F"/>
<path d="M23.4239 52.2241H20.5439V55.1041H23.4239V52.2241Z" fill="#191C1F"/>
<path d="M26.3038 52.2241H23.4238V55.1041H26.3038V52.2241Z" fill="#191C1F"/>
<path d="M37.8243 52.2241H34.9443V55.1041H37.8243V52.2241Z" fill="#191C1F"/>
<path d="M46.464 52.2241H43.584V55.1041H46.464V52.2241Z" fill="#191C1F"/>
<path d="M49.3439 52.2241H46.4639V55.1041H49.3439V52.2241Z" fill="#191C1F"/>
<path d="M52.2238 52.2241H49.3438V55.1041H52.2238V52.2241Z" fill="#191C1F"/>
<path d="M57.9835 52.2241H55.1035V55.1041H57.9835V52.2241Z" fill="#191C1F"/>
<path d="M60.8644 52.2241H57.9844V55.1041H60.8644V52.2241Z" fill="#191C1F"/>
<path d="M66.6241 52.2241H63.7441V55.1041H66.6241V52.2241Z" fill="#191C1F"/>
<path d="M75.2638 52.2241H72.3838V55.1041H75.2638V52.2241Z" fill="#191C1F"/>
<path d="M81.0236 52.2241H78.1436V55.1041H81.0236V52.2241Z" fill="#191C1F"/>
<path d="M86.7843 52.2241H83.9043V55.1041H86.7843V52.2241Z" fill="#191C1F"/>
<path d="M89.6642 52.2241H86.7842V55.1041H89.6642V52.2241Z" fill="#191C1F"/>
<path d="M92.5441 52.2241H89.6641V55.1041H92.5441V52.2241Z" fill="#191C1F"/>
<path d="M95.4239 52.2241H92.5439V55.1041H95.4239V52.2241Z" fill="#191C1F"/>
<path d="M9.02355 55.104H6.14355V57.984H9.02355V55.104Z" fill="#191C1F"/>
<path d="M11.9044 55.104H9.02441V57.984H11.9044V55.104Z" fill="#191C1F"/>
<path d="M14.7843 55.104H11.9043V57.984H14.7843V55.104Z" fill="#191C1F"/>
<path d="M23.4239 55.104H20.5439V57.984H23.4239V55.104Z" fill="#191C1F"/>
<path d="M26.3038 55.104H23.4238V57.984H26.3038V55.104Z" fill="#191C1F"/>
<path d="M37.8243 55.104H34.9443V57.984H37.8243V55.104Z" fill="#191C1F"/>
<path d="M43.5841 55.104H40.7041V57.984H43.5841V55.104Z" fill="#191C1F"/>
<path d="M46.464 55.104H43.584V57.984H46.464V55.104Z" fill="#191C1F"/>
<path d="M55.1036 55.104H52.2236V57.984H55.1036V55.104Z" fill="#191C1F"/>
<path d="M57.9835 55.104H55.1035V57.984H57.9835V55.104Z" fill="#191C1F"/>
<path d="M60.8644 55.104H57.9844V57.984H60.8644V55.104Z" fill="#191C1F"/>
<path d="M72.3839 55.104H69.5039V57.984H72.3839V55.104Z" fill="#191C1F"/>
<path d="M75.2638 55.104H72.3838V57.984H75.2638V55.104Z" fill="#191C1F"/>
<path d="M81.0236 55.104H78.1436V57.984H81.0236V55.104Z" fill="#191C1F"/>
<path d="M89.6642 55.104H86.7842V57.984H89.6642V55.104Z" fill="#191C1F"/>
<path d="M6.14367 57.9839H3.26367V60.8639H6.14367V57.9839Z" fill="#191C1F"/>
<path d="M9.02355 57.9839H6.14355V60.8639H9.02355V57.9839Z" fill="#191C1F"/>
<path d="M14.7843 57.9839H11.9043V60.8639H14.7843V57.9839Z" fill="#191C1F"/>
<path d="M20.5441 57.9839H17.6641V60.8639H20.5441V57.9839Z" fill="#191C1F"/>
<path d="M23.4239 57.9839H20.5439V60.8639H23.4239V57.9839Z" fill="#191C1F"/>
<path d="M32.0636 57.9839H29.1836V60.8639H32.0636V57.9839Z" fill="#191C1F"/>
<path d="M34.9445 57.9839H32.0645V60.8639H34.9445V57.9839Z" fill="#191C1F"/>
<path d="M52.2238 57.9839H49.3438V60.8639H52.2238V57.9839Z" fill="#191C1F"/>
<path d="M57.9835 57.9839H55.1035V60.8639H57.9835V57.9839Z" fill="#191C1F"/>
<path d="M86.7843 57.9839H83.9043V60.8639H86.7843V57.9839Z" fill="#191C1F"/>
<path d="M3.26379 60.864H0.383789V63.744H3.26379V60.864Z" fill="#191C1F"/>
<path d="M17.6642 60.864H14.7842V63.744H17.6642V60.864Z" fill="#191C1F"/>
<path d="M23.4239 60.864H20.5439V63.744H23.4239V60.864Z" fill="#191C1F"/>
<path d="M32.0636 60.864H29.1836V63.744H32.0636V60.864Z" fill="#191C1F"/>
<path d="M34.9445 60.864H32.0645V63.744H34.9445V60.864Z" fill="#191C1F"/>
<path d="M40.7042 60.864H37.8242V63.744H40.7042V60.864Z" fill="#191C1F"/>
<path d="M43.5841 60.864H40.7041V63.744H43.5841V60.864Z" fill="#191C1F"/>
<path d="M55.1036 60.864H52.2236V63.744H55.1036V60.864Z" fill="#191C1F"/>
<path d="M63.7443 60.864H60.8643V63.744H63.7443V60.864Z" fill="#191C1F"/>
<path d="M66.6241 60.864H63.7441V63.744H66.6241V60.864Z" fill="#191C1F"/>
<path d="M72.3839 60.864H69.5039V63.744H72.3839V60.864Z" fill="#191C1F"/>
<path d="M83.9044 60.864H81.0244V63.744H83.9044V60.864Z" fill="#191C1F"/>
<path d="M86.7843 60.864H83.9043V63.744H86.7843V60.864Z" fill="#191C1F"/>
<path d="M89.6642 60.864H86.7842V63.744H89.6642V60.864Z" fill="#191C1F"/>
<path d="M95.4239 60.864H92.5439V63.744H95.4239V60.864Z" fill="#191C1F"/>
<path d="M9.02355 63.7439H6.14355V66.6239H9.02355V63.7439Z" fill="#191C1F"/>
<path d="M11.9044 63.7439H9.02441V66.6239H11.9044V63.7439Z" fill="#191C1F"/>
<path d="M14.7843 63.7439H11.9043V66.6239H14.7843V63.7439Z" fill="#191C1F"/>
<path d="M17.6642 63.7439H14.7842V66.6239H17.6642V63.7439Z" fill="#191C1F"/>
<path d="M20.5441 63.7439H17.6641V66.6239H20.5441V63.7439Z" fill="#191C1F"/>
<path d="M23.4239 63.7439H20.5439V66.6239H23.4239V63.7439Z" fill="#191C1F"/>
<path d="M29.1837 63.7439H26.3037V66.6239H29.1837V63.7439Z" fill="#191C1F"/>
<path d="M32.0636 63.7439H29.1836V66.6239H32.0636V63.7439Z" fill="#191C1F"/>
<path d="M43.5841 63.7439H40.7041V66.6239H43.5841V63.7439Z" fill="#191C1F"/>
<path d="M46.464 63.7439H43.584V66.6239H46.464V63.7439Z" fill="#191C1F"/>
<path d="M55.1036 63.7439H52.2236V66.6239H55.1036V63.7439Z" fill="#191C1F"/>
<path d="M57.9835 63.7439H55.1035V66.6239H57.9835V63.7439Z" fill="#191C1F"/>
<path d="M60.8644 63.7439H57.9844V66.6239H60.8644V63.7439Z" fill="#191C1F"/>
<path d="M63.7443 63.7439H60.8643V66.6239H63.7443V63.7439Z" fill="#191C1F"/>
<path d="M66.6241 63.7439H63.7441V66.6239H66.6241V63.7439Z" fill="#191C1F"/>
<path d="M69.504 63.7439H66.624V66.6239H69.504V63.7439Z" fill="#191C1F"/>
<path d="M75.2638 63.7439H72.3838V66.6239H75.2638V63.7439Z" fill="#191C1F"/>
<path d="M78.1437 63.7439H75.2637V66.6239H78.1437V63.7439Z" fill="#191C1F"/>
<path d="M83.9044 63.7439H81.0244V66.6239H83.9044V63.7439Z" fill="#191C1F"/>
<path d="M89.6642 63.7439H86.7842V66.6239H89.6642V63.7439Z" fill="#191C1F"/>
<path d="M95.4239 63.7439H92.5439V66.6239H95.4239V63.7439Z" fill="#191C1F"/>
<path d="M6.14367 66.624H3.26367V69.504H6.14367V66.624Z" fill="#191C1F"/>
<path d="M11.9044 66.624H9.02441V69.504H11.9044V66.624Z" fill="#191C1F"/>
<path d="M14.7843 66.624H11.9043V69.504H14.7843V66.624Z" fill="#191C1F"/>
<path d="M26.3038 66.624H23.4238V69.504H26.3038V66.624Z" fill="#191C1F"/>
<path d="M32.0636 66.624H29.1836V69.504H32.0636V66.624Z" fill="#191C1F"/>
<path d="M37.8243 66.624H34.9443V69.504H37.8243V66.624Z" fill="#191C1F"/>
<path d="M40.7042 66.624H37.8242V69.504H40.7042V66.624Z" fill="#191C1F"/>
<path d="M43.5841 66.624H40.7041V69.504H43.5841V66.624Z" fill="#191C1F"/>
<path d="M49.3439 66.624H46.4639V69.504H49.3439V66.624Z" fill="#191C1F"/>
<path d="M60.8644 66.624H57.9844V69.504H60.8644V66.624Z" fill="#191C1F"/>
<path d="M63.7443 66.624H60.8643V69.504H63.7443V66.624Z" fill="#191C1F"/>
<path d="M66.6241 66.624H63.7441V69.504H66.6241V66.624Z" fill="#191C1F"/>
<path d="M78.1437 66.624H75.2637V69.504H78.1437V66.624Z" fill="#191C1F"/>
<path d="M83.9044 66.624H81.0244V69.504H83.9044V66.624Z" fill="#191C1F"/>
<path d="M86.7843 66.624H83.9043V69.504H86.7843V66.624Z" fill="#191C1F"/>
<path d="M92.5441 66.624H89.6641V69.504H92.5441V66.624Z" fill="#191C1F"/>
<path d="M95.4239 66.624H92.5439V69.504H95.4239V66.624Z" fill="#191C1F"/>
<path d="M3.26379 69.5039H0.383789V72.3839H3.26379V69.5039Z" fill="#191C1F"/>
<path d="M9.02355 69.5039H6.14355V72.3839H9.02355V69.5039Z" fill="#191C1F"/>
<path d="M11.9044 69.5039H9.02441V72.3839H11.9044V69.5039Z" fill="#191C1F"/>
<path d="M17.6642 69.5039H14.7842V72.3839H17.6642V69.5039Z" fill="#191C1F"/>
<path d="M20.5441 69.5039H17.6641V72.3839H20.5441V69.5039Z" fill="#191C1F"/>
<path d="M23.4239 69.5039H20.5439V72.3839H23.4239V69.5039Z" fill="#191C1F"/>
<path d="M26.3038 69.5039H23.4238V72.3839H26.3038V69.5039Z" fill="#191C1F"/>
<path d="M29.1837 69.5039H26.3037V72.3839H29.1837V69.5039Z" fill="#191C1F"/>
<path d="M37.8243 69.5039H34.9443V72.3839H37.8243V69.5039Z" fill="#191C1F"/>
<path d="M43.5841 69.5039H40.7041V72.3839H43.5841V69.5039Z" fill="#191C1F"/>
<path d="M49.3439 69.5039H46.4639V72.3839H49.3439V69.5039Z" fill="#191C1F"/>
<path d="M52.2238 69.5039H49.3438V72.3839H52.2238V69.5039Z" fill="#191C1F"/>
<path d="M55.1036 69.5039H52.2236V72.3839H55.1036V69.5039Z" fill="#191C1F"/>
<path d="M57.9835 69.5039H55.1035V72.3839H57.9835V69.5039Z" fill="#191C1F"/>
<path d="M60.8644 69.5039H57.9844V72.3839H60.8644V69.5039Z" fill="#191C1F"/>
<path d="M66.6241 69.5039H63.7441V72.3839H66.6241V69.5039Z" fill="#191C1F"/>
<path d="M72.3839 69.5039H69.5039V72.3839H72.3839V69.5039Z" fill="#191C1F"/>
<path d="M75.2638 69.5039H72.3838V72.3839H75.2638V69.5039Z" fill="#191C1F"/>
<path d="M78.1437 69.5039H75.2637V72.3839H78.1437V69.5039Z" fill="#191C1F"/>
<path d="M81.0236 69.5039H78.1436V72.3839H81.0236V69.5039Z" fill="#191C1F"/>
<path d="M83.9044 69.5039H81.0244V72.3839H83.9044V69.5039Z" fill="#191C1F"/>
<path d="M89.6642 69.5039H86.7842V72.3839H89.6642V69.5039Z" fill="#191C1F"/>
<path d="M92.5441 69.5039H89.6641V72.3839H92.5441V69.5039Z" fill="#191C1F"/>
<path d="M26.3038 72.384H23.4238V75.264H26.3038V72.384Z" fill="#191C1F"/>
<path d="M29.1837 72.384H26.3037V75.264H29.1837V72.384Z" fill="#191C1F"/>
<path d="M34.9445 72.384H32.0645V75.264H34.9445V72.384Z" fill="#191C1F"/>
<path d="M37.8243 72.384H34.9443V75.264H37.8243V72.384Z" fill="#191C1F"/>
<path d="M43.5841 72.384H40.7041V75.264H43.5841V72.384Z" fill="#191C1F"/>
<path d="M46.464 72.384H43.584V75.264H46.464V72.384Z" fill="#191C1F"/>
<path d="M52.2238 72.384H49.3438V75.264H52.2238V72.384Z" fill="#191C1F"/>
<path d="M57.9835 72.384H55.1035V75.264H57.9835V72.384Z" fill="#191C1F"/>
<path d="M60.8644 72.384H57.9844V75.264H60.8644V72.384Z" fill="#191C1F"/>
<path d="M63.7443 72.384H60.8643V75.264H63.7443V72.384Z" fill="#191C1F"/>
<path d="M66.6241 72.384H63.7441V75.264H66.6241V72.384Z" fill="#191C1F"/>
<path d="M72.3839 72.384H69.5039V75.264H72.3839V72.384Z" fill="#191C1F"/>
<path d="M83.9044 72.384H81.0244V75.264H83.9044V72.384Z" fill="#191C1F"/>
<path d="M92.5441 72.384H89.6641V75.264H92.5441V72.384Z" fill="#191C1F"/>
<path d="M3.26379 75.2639H0.383789V78.1439H3.26379V75.2639Z" fill="#191C1F"/>
<path d="M6.14367 75.2639H3.26367V78.1439H6.14367V75.2639Z" fill="#191C1F"/>
<path d="M9.02355 75.2639H6.14355V78.1439H9.02355V75.2639Z" fill="#191C1F"/>
<path d="M11.9044 75.2639H9.02441V78.1439H11.9044V75.2639Z" fill="#191C1F"/>
<path d="M14.7843 75.2639H11.9043V78.1439H14.7843V75.2639Z" fill="#191C1F"/>
<path d="M17.6642 75.2639H14.7842V78.1439H17.6642V75.2639Z" fill="#191C1F"/>
<path d="M20.5441 75.2639H17.6641V78.1439H20.5441V75.2639Z" fill="#191C1F"/>
<path d="M26.3038 75.2639H23.4238V78.1439H26.3038V75.2639Z" fill="#191C1F"/>
<path d="M29.1837 75.2639H26.3037V78.1439H29.1837V75.2639Z" fill="#191C1F"/>
<path d="M43.5841 75.2639H40.7041V78.1439H43.5841V75.2639Z" fill="#191C1F"/>
<path d="M46.464 75.2639H43.584V78.1439H46.464V75.2639Z" fill="#191C1F"/>
<path d="M52.2238 75.2639H49.3438V78.1439H52.2238V75.2639Z" fill="#191C1F"/>
<path d="M60.8644 75.2639H57.9844V78.1439H60.8644V75.2639Z" fill="#191C1F"/>
<path d="M63.7443 75.2639H60.8643V78.1439H63.7443V75.2639Z" fill="#191C1F"/>
<path d="M72.3839 75.2639H69.5039V78.1439H72.3839V75.2639Z" fill="#191C1F"/>
<path d="M78.1437 75.2639H75.2637V78.1439H78.1437V75.2639Z" fill="#191C1F"/>
<path d="M83.9044 75.2639H81.0244V78.1439H83.9044V75.2639Z" fill="#191C1F"/>
<path d="M89.6642 75.2639H86.7842V78.1439H89.6642V75.2639Z" fill="#191C1F"/>
<path d="M95.4239 75.2639H92.5439V78.1439H95.4239V75.2639Z" fill="#191C1F"/>
<path d="M3.26379 78.144H0.383789V81.024H3.26379V78.144Z" fill="#191C1F"/>
<path d="M20.5441 78.144H17.6641V81.024H20.5441V78.144Z" fill="#191C1F"/>
<path d="M34.9445 78.144H32.0645V81.024H34.9445V78.144Z" fill="#191C1F"/>
<path d="M46.464 78.144H43.584V81.024H46.464V78.144Z" fill="#191C1F"/>
<path d="M49.3439 78.144H46.4639V81.024H49.3439V78.144Z" fill="#191C1F"/>
<path d="M52.2238 78.144H49.3438V81.024H52.2238V78.144Z" fill="#191C1F"/>
<path d="M55.1036 78.144H52.2236V81.024H55.1036V78.144Z" fill="#191C1F"/>
<path d="M57.9835 78.144H55.1035V81.024H57.9835V78.144Z" fill="#191C1F"/>
<path d="M60.8644 78.144H57.9844V81.024H60.8644V78.144Z" fill="#191C1F"/>
<path d="M72.3839 78.144H69.5039V81.024H72.3839V78.144Z" fill="#191C1F"/>
<path d="M83.9044 78.144H81.0244V81.024H83.9044V78.144Z" fill="#191C1F"/>
<path d="M86.7843 78.144H83.9043V81.024H86.7843V78.144Z" fill="#191C1F"/>
<path d="M89.6642 78.144H86.7842V81.024H89.6642V78.144Z" fill="#191C1F"/>
<path d="M95.4239 78.144H92.5439V81.024H95.4239V78.144Z" fill="#191C1F"/>
<path d="M3.26379 81.0239H0.383789V83.9039H3.26379V81.0239Z" fill="#191C1F"/>
<path d="M9.02355 81.0239H6.14355V83.9039H9.02355V81.0239Z" fill="#191C1F"/>
<path d="M11.9044 81.0239H9.02441V83.9039H11.9044V81.0239Z" fill="#191C1F"/>
<path d="M14.7843 81.0239H11.9043V83.9039H14.7843V81.0239Z" fill="#191C1F"/>
<path d="M20.5441 81.0239H17.6641V83.9039H20.5441V81.0239Z" fill="#191C1F"/>
<path d="M37.8243 81.0239H34.9443V83.9039H37.8243V81.0239Z" fill="#191C1F"/>
<path d="M46.464 81.0239H43.584V83.9039H46.464V81.0239Z" fill="#191C1F"/>
<path d="M55.1036 81.0239H52.2236V83.9039H55.1036V81.0239Z" fill="#191C1F"/>
<path d="M66.6241 81.0239H63.7441V83.9039H66.6241V81.0239Z" fill="#191C1F"/>
<path d="M69.504 81.0239H66.624V83.9039H69.504V81.0239Z" fill="#191C1F"/>
<path d="M72.3839 81.0239H69.5039V83.9039H72.3839V81.0239Z" fill="#191C1F"/>
<path d="M75.2638 81.0239H72.3838V83.9039H75.2638V81.0239Z" fill="#191C1F"/>
<path d="M78.1437 81.0239H75.2637V83.9039H78.1437V81.0239Z" fill="#191C1F"/>
<path d="M81.0236 81.0239H78.1436V83.9039H81.0236V81.0239Z" fill="#191C1F"/>
<path d="M83.9044 81.0239H81.0244V83.9039H83.9044V81.0239Z" fill="#191C1F"/>
<path d="M89.6642 81.0239H86.7842V83.9039H89.6642V81.0239Z" fill="#191C1F"/>
<path d="M95.4239 81.0239H92.5439V83.9039H95.4239V81.0239Z" fill="#191C1F"/>
<path d="M3.26379 83.9041H0.383789V86.7841H3.26379V83.9041Z" fill="#191C1F"/>
<path d="M9.02355 83.9041H6.14355V86.7841H9.02355V83.9041Z" fill="#191C1F"/>
<path d="M11.9044 83.9041H9.02441V86.7841H11.9044V83.9041Z" fill="#191C1F"/>
<path d="M14.7843 83.9041H11.9043V86.7841H14.7843V83.9041Z" fill="#191C1F"/>
<path d="M20.5441 83.9041H17.6641V86.7841H20.5441V83.9041Z" fill="#191C1F"/>
<path d="M26.3038 83.9041H23.4238V86.7841H26.3038V83.9041Z" fill="#191C1F"/>
<path d="M32.0636 83.9041H29.1836V86.7841H32.0636V83.9041Z" fill="#191C1F"/>
<path d="M49.3439 83.9041H46.4639V86.7841H49.3439V83.9041Z" fill="#191C1F"/>
<path d="M57.9835 83.9041H55.1035V86.7841H57.9835V83.9041Z" fill="#191C1F"/>
<path d="M60.8644 83.9041H57.9844V86.7841H60.8644V83.9041Z" fill="#191C1F"/>
<path d="M66.6241 83.9041H63.7441V86.7841H66.6241V83.9041Z" fill="#191C1F"/>
<path d="M72.3839 83.9041H69.5039V86.7841H72.3839V83.9041Z" fill="#191C1F"/>
<path d="M83.9044 83.9041H81.0244V86.7841H83.9044V83.9041Z" fill="#191C1F"/>
<path d="M86.7843 83.9041H83.9043V86.7841H86.7843V83.9041Z" fill="#191C1F"/>
<path d="M3.26379 86.7839H0.383789V89.6639H3.26379V86.7839Z" fill="#191C1F"/>
<path d="M9.02355 86.7839H6.14355V89.6639H9.02355V86.7839Z" fill="#191C1F"/>
<path d="M11.9044 86.7839H9.02441V89.6639H11.9044V86.7839Z" fill="#191C1F"/>
<path d="M14.7843 86.7839H11.9043V89.6639H14.7843V86.7839Z" fill="#191C1F"/>
<path d="M20.5441 86.7839H17.6641V89.6639H20.5441V86.7839Z" fill="#191C1F"/>
<path d="M26.3038 86.7839H23.4238V89.6639H26.3038V86.7839Z" fill="#191C1F"/>
<path d="M32.0636 86.7839H29.1836V89.6639H32.0636V86.7839Z" fill="#191C1F"/>
<path d="M37.8243 86.7839H34.9443V89.6639H37.8243V86.7839Z" fill="#191C1F"/>
<path d="M40.7042 86.7839H37.8242V89.6639H40.7042V86.7839Z" fill="#191C1F"/>
<path d="M43.5841 86.7839H40.7041V89.6639H43.5841V86.7839Z" fill="#191C1F"/>
<path d="M52.2238 86.7839H49.3438V89.6639H52.2238V86.7839Z" fill="#191C1F"/>
<path d="M57.9835 86.7839H55.1035V89.6639H57.9835V86.7839Z" fill="#191C1F"/>
<path d="M60.8644 86.7839H57.9844V89.6639H60.8644V86.7839Z" fill="#191C1F"/>
<path d="M63.7443 86.7839H60.8643V89.6639H63.7443V86.7839Z" fill="#191C1F"/>
<path d="M69.504 86.7839H66.624V89.6639H69.504V86.7839Z" fill="#191C1F"/>
<path d="M72.3839 86.7839H69.5039V89.6639H72.3839V86.7839Z" fill="#191C1F"/>
<path d="M81.0236 86.7839H78.1436V89.6639H81.0236V86.7839Z" fill="#191C1F"/>
<path d="M83.9044 86.7839H81.0244V89.6639H83.9044V86.7839Z" fill="#191C1F"/>
<path d="M89.6642 86.7839H86.7842V89.6639H89.6642V86.7839Z" fill="#191C1F"/>
<path d="M3.26379 89.6641H0.383789V92.5441H3.26379V89.6641Z" fill="#191C1F"/>
<path d="M20.5441 89.6641H17.6641V92.5441H20.5441V89.6641Z" fill="#191C1F"/>
<path d="M32.0636 89.6641H29.1836V92.5441H32.0636V89.6641Z" fill="#191C1F"/>
<path d="M34.9445 89.6641H32.0645V92.5441H34.9445V89.6641Z" fill="#191C1F"/>
<path d="M37.8243 89.6641H34.9443V92.5441H37.8243V89.6641Z" fill="#191C1F"/>
<path d="M43.5841 89.6641H40.7041V92.5441H43.5841V89.6641Z" fill="#191C1F"/>
<path d="M49.3439 89.6641H46.4639V92.5441H49.3439V89.6641Z" fill="#191C1F"/>
<path d="M60.8644 89.6641H57.9844V92.5441H60.8644V89.6641Z" fill="#191C1F"/>
<path d="M66.6241 89.6641H63.7441V92.5441H66.6241V89.6641Z" fill="#191C1F"/>
<path d="M75.2638 89.6641H72.3838V92.5441H75.2638V89.6641Z" fill="#191C1F"/>
<path d="M78.1437 89.6641H75.2637V92.5441H78.1437V89.6641Z" fill="#191C1F"/>
<path d="M83.9044 89.6641H81.0244V92.5441H83.9044V89.6641Z" fill="#191C1F"/>
<path d="M86.7843 89.6641H83.9043V92.5441H86.7843V89.6641Z" fill="#191C1F"/>
<path d="M92.5441 89.6641H89.6641V92.5441H92.5441V89.6641Z" fill="#191C1F"/>
<path d="M3.26379 92.5439H0.383789V95.4239H3.26379V92.5439Z" fill="#191C1F"/>
<path d="M6.14367 92.5439H3.26367V95.4239H6.14367V92.5439Z" fill="#191C1F"/>
<path d="M9.02355 92.5439H6.14355V95.4239H9.02355V92.5439Z" fill="#191C1F"/>
<path d="M11.9044 92.5439H9.02441V95.4239H11.9044V92.5439Z" fill="#191C1F"/>
<path d="M14.7843 92.5439H11.9043V95.4239H14.7843V92.5439Z" fill="#191C1F"/>
<path d="M17.6642 92.5439H14.7842V95.4239H17.6642V92.5439Z" fill="#191C1F"/>
<path d="M20.5441 92.5439H17.6641V95.4239H20.5441V92.5439Z" fill="#191C1F"/>
<path d="M32.0636 92.5439H29.1836V95.4239H32.0636V92.5439Z" fill="#191C1F"/>
<path d="M34.9445 92.5439H32.0645V95.4239H34.9445V92.5439Z" fill="#191C1F"/>
<path d="M37.8243 92.5439H34.9443V95.4239H37.8243V92.5439Z" fill="#191C1F"/>
<path d="M40.7042 92.5439H37.8242V95.4239H40.7042V92.5439Z" fill="#191C1F"/>
<path d="M46.464 92.5439H43.584V95.4239H46.464V92.5439Z" fill="#191C1F"/>
<path d="M52.2238 92.5439H49.3438V95.4239H52.2238V92.5439Z" fill="#191C1F"/>
<path d="M55.1036 92.5439H52.2236V95.4239H55.1036V92.5439Z" fill="#191C1F"/>
<path d="M60.8644 92.5439H57.9844V95.4239H60.8644V92.5439Z" fill="#191C1F"/>
<path d="M63.7443 92.5439H60.8643V95.4239H63.7443V92.5439Z" fill="#191C1F"/>
<path d="M66.6241 92.5439H63.7441V95.4239H66.6241V92.5439Z" fill="#191C1F"/>
<path d="M69.504 92.5439H66.624V95.4239H69.504V92.5439Z" fill="#191C1F"/>
<path d="M75.2638 92.5439H72.3838V95.4239H75.2638V92.5439Z" fill="#191C1F"/>
<path d="M78.1437 92.5439H75.2637V95.4239H78.1437V92.5439Z" fill="#191C1F"/>
<path d="M81.0236 92.5439H78.1436V95.4239H81.0236V92.5439Z" fill="#191C1F"/>
<path d="M83.9044 92.5439H81.0244V95.4239H83.9044V92.5439Z" fill="#191C1F"/>
<path d="M89.6642 92.5439H86.7842V95.4239H89.6642V92.5439Z" fill="#191C1F"/>
</g>
<defs>
<clipPath id="clip0_1656_10101">
<rect width="96" height="96" fill="white"/>
</clipPath>
</defs>
</svg>
