<svg width="40" height="40" viewBox="0 0 40 40" fill="none" xmlns="http://www.w3.org/2000/svg">
<g clip-path="url(#clip0_1741_12794)">
<path fill-rule="evenodd" clip-rule="evenodd" d="M29.5463 0.156641L28.9604 0.313203L28.3937 0.591328L27.8271 0.869375L27.3234 1.27516L26.8198 1.68094L26.4209 2.17984L26.022 2.67867L25.7474 3.22391L25.4729 3.76914L25.3162 4.36562L25.1597 4.96219L25.1589 5.86062L25.1581 6.75906L25.3215 7.555L25.4848 8.35102L25.7225 9.03938L25.9602 9.72781L26.4263 10.6759L26.8925 11.6241L27.5148 12.5645L28.137 13.505L28.7562 14.2727L29.3755 15.0403L29.7596 15.4487L30.1437 15.857L30.4284 15.976L30.7132 16.095L30.9696 16.0933L31.226 16.0916L31.5385 15.9491L31.851 15.8066L32.3648 15.2281L32.8785 14.6497L33.3591 14.0413L33.8398 13.4328L34.4214 12.5569L35.003 11.6809L35.4826 10.7161L35.9622 9.75125L36.2259 8.95828L36.4897 8.16531L36.6266 7.50125L36.7635 6.83719L36.7663 5.86062L36.7689 4.88406L36.6297 4.37625L36.4904 3.86844L36.1806 3.23695L35.8709 2.60555L35.4383 2.08102L35.0056 1.55648L34.5221 1.20016L34.0385 0.84375L33.6063 0.625234L33.174 0.406719L32.6688 0.234609L32.1635 0.0624219L31.1479 0.03125L30.1323 0L29.5463 0.156641ZM31.8566 2.94266L32.2416 3.07156L32.6563 3.34391L33.0709 3.61617L33.3371 3.96477L33.6033 4.31336L33.7743 4.75492L33.9453 5.19656L33.9498 5.89969L33.9543 6.60281L33.8195 7.17008L33.6847 7.73727L33.4537 8.37031L33.2227 9.00344L32.8213 9.75445L32.4201 10.5055L32.1817 10.8588L31.9433 11.2122L31.4709 11.8567L30.9986 12.5013L30.956 12.4987L30.9135 12.4961L30.4734 11.8932L30.0334 11.2903L29.6625 10.7141L29.2916 10.1377L28.9435 9.43719L28.5954 8.73656L28.4392 8.29469L28.2831 7.85281L28.1314 7.23359L27.9796 6.61445L27.9798 5.94453L27.98 5.27469L28.0929 4.91195L28.2057 4.54922L28.4037 4.23562L28.6016 3.92203L28.8982 3.63336L29.1948 3.34469L29.5073 3.18352L29.8198 3.02234L30.1323 2.92328L30.4448 2.82422L30.9582 2.81898L31.4716 2.81375L31.8566 2.94266ZM7.72133 5.12617L7.10727 5.23711L6.51039 5.4418L5.91352 5.64648L5.52289 5.84289L5.13227 6.0393L4.61773 6.37828L4.10313 6.71727L3.58453 7.1925L3.06586 7.66773L2.59352 8.29469L2.12109 8.92156L1.77023 9.64281L1.41938 10.364L1.21656 11.1396L1.01375 11.9153L0.975625 12.9309L0.9375 13.9466L1.10156 14.7413L1.26562 15.5361L1.49969 16.1492L1.73383 16.7623L2.07727 17.3466L2.4207 17.9309L2.88008 18.4758L3.33945 19.0206L3.86945 19.4657L4.39945 19.9109L4.94836 20.2425L5.49719 20.5741L6.13508 20.8273L6.77289 21.0805L7.35883 21.2211L7.94477 21.3616L19.8979 21.4066L31.851 21.4516L32.2807 21.5834L32.7104 21.7151L33.3735 22.043L34.0366 22.3709L34.6698 23.0042L35.303 23.6374L35.6686 24.378L36.0341 25.1184L36.1483 25.6653L36.2623 26.2122V26.7981V27.3841L36.1483 27.9309L36.0341 28.4778L35.6686 29.2183L35.303 29.9588L34.6698 30.592L34.0366 31.2253L33.3735 31.5532L32.7104 31.8812L32.2807 32.012L31.851 32.143L24.2605 32.1854L16.6701 32.2278L16.3699 32.4677L16.0698 32.7077L15.9332 32.9755L15.7966 33.2434V33.595V33.9466L15.9332 34.2145L16.0698 34.4823L16.37 34.7223L16.6702 34.9622L24.1021 34.9829L31.5341 35.0036L32.2327 34.883L32.9312 34.7625L33.524 34.5593L34.1166 34.356L34.5073 34.1596L34.8979 33.9632L35.4124 33.6242L35.927 33.2852L36.4456 32.81L36.9643 32.3348L37.4366 31.7078L37.9091 31.0809L38.2599 30.3597L38.6108 29.6385L38.8136 28.8629L39.0164 28.0872L39.0545 27.0716L39.0927 26.0559L38.9286 25.2612L38.7645 24.4664L38.5305 23.8533L38.2963 23.2402L37.9529 22.6559L37.6095 22.0716L37.1501 21.5267L36.6907 20.9819L36.1607 20.5368L35.6307 20.0916L35.0818 19.76L34.533 19.4284L33.8951 19.1752L33.2573 18.922L32.6713 18.7814L32.0854 18.6409L20.1323 18.5959L8.17914 18.5509L7.74945 18.4191L7.31977 18.2874L6.65664 17.9595L5.99359 17.6316L5.36031 16.9983L4.72711 16.3651L4.36156 15.6245L3.99602 14.8841L3.88188 14.3372L3.76781 13.7903V13.2044V12.6184L3.88188 12.0716L3.99602 11.5247L4.36156 10.7842L4.72711 10.0437L5.36461 9.40617L6.00219 8.76859L6.73906 8.41305L7.47602 8.0575L8.0782 7.93562L8.68039 7.81375H15.8465H23.0127L23.3549 7.64805L23.6973 7.48234L23.9056 7.16742L24.1141 6.8525V6.4075V5.9625L23.9056 5.64758L23.6973 5.33266L23.3549 5.16695L23.0127 5.00125L15.674 5.00828L8.33539 5.01523L7.72133 5.12617ZM7.82758 24.0289L7.31977 24.1379L6.9682 24.2665L6.61664 24.395L6.12672 24.6638L5.6368 24.9326L5.16383 25.3262L4.69094 25.7198L4.33437 26.2004L3.97789 26.6809L3.67602 27.3059L3.37414 27.9309L3.25844 28.4778L3.14281 29.0247L3.14172 29.8059L3.14055 30.5872L3.26258 31.2903L3.38453 31.9934L3.66656 32.8458L3.94859 33.6982L4.46609 34.7236L4.98352 35.749L5.48 36.4884L5.97641 37.2278L6.38688 37.7747L6.79727 38.3216L7.40562 39.0112L8.01398 39.7009L8.30828 39.8511L8.60258 40.0013L8.9768 40.0009L9.35102 40.0005L9.63578 39.8251L9.92062 39.6497L10.3782 39.1419L10.8359 38.6341L11.3524 37.97L11.8691 37.3059L12.3957 36.5247L12.9223 35.7434L13.4959 34.5716L14.0696 33.3997L14.3386 32.5013L14.6076 31.6028L14.7057 30.8766L14.8039 30.1503L14.7572 29.3922L14.7105 28.6341L14.5437 28.0872L14.3769 27.5403L14.1012 27.0325L13.8257 26.5247L13.4448 26.0559L13.0638 25.5872L12.6137 25.228L12.1635 24.8687L11.8037 24.6607L11.4438 24.4527L10.8975 24.2619L10.3512 24.0709L9.85109 23.9898L9.35102 23.9087L8.8432 23.9143L8.33539 23.9199L7.82758 24.0289ZM9.47133 26.7987L9.88648 26.8774L10.283 27.059L10.6795 27.2405L11.0541 27.6151L11.4287 27.9897L11.6096 28.3509L11.7905 28.7122L11.8901 29.1343L11.9895 29.5564L11.9427 30.1499L11.8959 30.7434L11.7384 31.3552L11.5808 31.9669L11.309 32.6335L11.0373 33.3001L10.6016 34.0696L10.1659 34.8391L9.55797 35.6592L8.95016 36.4794L8.36086 35.6817L7.77156 34.8841L7.38734 34.22L7.00305 33.5559L6.71578 32.9309L6.42852 32.3059L6.2232 31.6028L6.01789 30.8997L5.9757 30.1184L5.93344 29.3372L6.05594 28.9271L6.17844 28.517L6.46297 28.0884L6.7475 27.6598L7.04695 27.4227L7.34641 27.1855L7.7057 27.0265L8.065 26.8676L8.39555 26.8023L8.72602 26.7371L8.89117 26.7286L9.05625 26.72L9.47133 26.7987Z" fill="#FF7A00"/>
</g>
<defs>
<clipPath id="clip0_1741_12794">
<rect width="40" height="40" fill="white"/>
</clipPath>
</defs>
</svg>
