<svg width="40" height="40" viewBox="0 0 40 40" fill="none" xmlns="http://www.w3.org/2000/svg">
<path fill-rule="evenodd" clip-rule="evenodd" d="M10.5149 1.12742C8.73738 1.60537 7.42754 3.72179 7.55148 5.91554L7.57984 6.41731L7.318 6.46474C3.90904 7.08147 4.40384 13.4779 7.86052 13.4783H8.24355L9.38069 25.8167C10.5923 38.9633 10.5338 38.4875 10.9801 38.8059L11.2122 38.9714L19.747 38.9911C28.9712 39.0123 28.524 39.0317 28.908 38.5943C29.1255 38.3467 31.436 15.4947 31.436 13.5916C31.436 13.5001 31.5422 13.4782 31.9861 13.4782C33.8753 13.4782 34.8487 12.4031 34.9088 10.2498C34.9755 7.86415 34.1927 6.62252 32.513 6.44915L32.1051 6.40707L32.1504 6.02219C32.3923 3.96344 31.0049 1.65012 29.2146 1.12757C28.6323 0.957613 11.147 0.957391 10.5149 1.12742ZM28.8343 3.40355C29.4997 3.75541 29.8775 4.59479 29.8775 5.7208V6.4277H19.8584H9.83919L9.82658 6.07518C9.77871 4.73476 10.1501 3.79081 10.8764 3.40674L11.1985 3.23642H19.8584H28.5182L28.8343 3.40355ZM32.4694 8.78406C32.7324 8.99847 32.674 11.0177 32.4009 11.1558C32.2536 11.2302 29.6949 11.2496 20.0068 11.2496C5.69133 11.2496 7.4343 11.4241 7.40602 9.98799C7.37596 8.46033 5.54446 8.65418 20.0068 8.65418C31.6142 8.65418 32.3192 8.66153 32.4694 8.78406ZM29.1689 13.7936C29.1146 14.2469 28.9127 16.3746 28.9127 16.4944C28.9127 16.5789 27.4433 16.5953 19.8629 16.5953H10.8131L10.7723 16.2799C10.7342 15.9851 10.5071 13.6259 10.5071 13.5245C10.5071 13.499 14.7145 13.4782 19.8569 13.4782H29.2067L29.1689 13.7936ZM28.6901 18.8604C28.6901 18.9781 27.8683 27.8167 27.8328 28.0802L27.7903 28.3956H19.8348H11.8792L11.4494 23.6644C11.213 21.0622 11.0212 18.908 11.0231 18.8774C11.027 18.8158 28.6901 18.7988 28.6901 18.8604ZM27.576 30.7891C27.5756 30.881 27.4589 32.1918 27.3168 33.7021C27.1747 35.2124 27.0582 36.5232 27.0579 36.6151L27.0573 36.782H19.8653H12.6734L12.6298 36.4295C12.6059 36.2356 12.4861 34.9582 12.3636 33.5908C12.2412 32.2233 12.1262 30.996 12.108 30.8633L12.075 30.6221H19.8259H27.5768L27.576 30.7891Z" fill="#FF7A00"/>
</svg>
