<svg width="40" height="40" viewBox="0 0 40 40" fill="none" xmlns="http://www.w3.org/2000/svg">
<path fill-rule="evenodd" clip-rule="evenodd" d="M9.76461 1.37474C8.82734 1.70029 8.16594 2.29021 7.74727 3.17388L7.5 3.69576L7.4593 6.89888L7.41859 10.102L7.16727 10.727C7.02906 11.0708 6.5775 11.9145 6.16383 12.602C4.87289 14.7472 4.31703 16.0403 3.93047 17.7973L3.75 18.6176V27.4458V36.2739L4.0007 36.8031C4.33 37.4983 4.94742 38.1158 5.64266 38.445L6.17188 38.6958H19.9609H33.75L34.2792 38.445C34.9745 38.1158 35.5919 37.4983 35.9212 36.8031L36.1719 36.2739V27.5239C36.1719 19.3078 36.163 18.7262 36.0258 17.9926C35.7067 16.2859 35.0835 14.8046 33.758 12.602C33.3444 11.9145 32.8928 11.0708 32.7546 10.727L32.5033 10.102L32.4626 6.89888L32.4219 3.69576L32.1799 3.18794C31.8252 2.44349 31.3159 1.92021 30.6034 1.5681L30.0082 1.27388L20.0822 1.2563C10.8228 1.2399 10.1299 1.24786 9.76461 1.37474ZM29.5657 3.84966C29.9382 4.04224 29.9609 4.23794 29.9623 7.28162C29.9641 11.0927 30.0122 11.2898 31.5748 13.8951C33.0135 16.294 33.6328 17.8828 33.6328 19.1747V19.3598H19.9609H6.28906V19.134C6.28906 17.867 6.86852 16.3815 8.29453 13.9932C9.90789 11.291 9.96094 11.0764 9.96094 7.25701C9.96094 4.26427 9.98523 4.04615 10.3403 3.85326C10.6549 3.6824 29.2355 3.6788 29.5657 3.84966ZM15.6399 6.35208C11.6805 7.44052 11.804 13.2076 15.8046 14.0393C16.3712 14.1572 23.5507 14.1572 24.1173 14.0393C28.1105 13.2092 28.2445 7.38349 24.2941 6.35458C23.6662 6.19099 16.2337 6.18888 15.6399 6.35208ZM24.0391 8.95357C24.9501 9.52005 24.9108 10.9712 23.9718 11.4375C23.5087 11.6674 16.4131 11.6674 15.9501 11.4375C15.135 11.0328 14.9648 9.8299 15.6287 9.16607C16.0438 8.75091 16.1103 8.74482 20.0781 8.7599L23.75 8.77388L24.0391 8.95357ZM33.7109 28.7387C33.7109 36.3106 33.7327 35.974 33.2329 36.1483C32.8802 36.2711 7.04164 36.2711 6.68898 36.1483C6.18922 35.974 6.21094 36.3106 6.21094 28.7387V21.8598H19.9609H33.7109V28.7387ZM10.3455 25.2406C9.52086 25.7963 9.52422 26.9323 10.3519 27.3975C10.8216 27.6615 14.4155 27.6517 14.8108 27.3853C15.642 26.8251 15.642 25.8008 14.8108 25.2406C14.401 24.9644 10.7552 24.9644 10.3455 25.2406ZM10.3455 30.3187C9.94055 30.5915 9.72656 30.9623 9.72656 31.3911C9.72656 31.8198 9.94055 32.1906 10.3455 32.4634L10.6091 32.6411H14.8828H19.1566L19.4202 32.4634C20.2514 31.9033 20.2514 30.8789 19.4202 30.3187L19.1566 30.1411H14.8828H10.6091L10.3455 30.3187Z" fill="#FF7A00"/>
</svg>
