<svg width="40" height="40" viewBox="0 0 40 40" fill="none" xmlns="http://www.w3.org/2000/svg">
<path fill-rule="evenodd" clip-rule="evenodd" d="M15.8389 1.07769C15.4741 1.23044 15.1338 1.74711 15.1338 2.14821C15.1338 2.24826 15.483 3.03236 15.9098 3.89061L16.6858 5.45108L15.1727 5.47387C13.7802 5.49487 13.6434 5.50883 13.455 5.6497C12.9347 6.03863 12.7807 6.5818 13.0462 7.09127C13.2437 7.47033 13.2534 7.43797 12.9256 7.49846C8.35983 8.34119 5.32008 13.9824 6.89644 18.6875C7.48711 20.4507 7.76292 20.8049 11.3651 24.4279L14.4689 27.5496L13.9916 27.9369C11.1613 30.2332 9.97664 33.8797 11.1604 36.6519C11.2127 36.7745 11.0342 36.7818 7.99769 36.7821C4.91742 36.7823 4.7692 36.7887 4.53769 36.9299C3.82077 37.367 3.82077 38.4234 4.53769 38.8605C4.87177 39.0642 27.235 39.0952 28.3912 38.8936C31.7539 38.3072 34.4684 35.8244 35.3796 32.5019L35.5798 31.7717L35.5811 29.0255C35.5825 25.9866 35.5647 25.8429 35.016 24.4607C34.3912 22.8868 34.171 22.6311 28.8155 17.2587L24.1148 12.5431V11.8033L24.1149 11.0634L24.4947 10.7363C25.1901 10.1374 25.7735 9.22378 26.0868 8.24292L26.2528 7.72336L27.0618 7.68624C28.1532 7.63614 28.5672 7.33999 28.5679 6.60882C28.5688 5.6811 28.134 5.46236 26.2858 5.46073C25.5 5.46006 24.857 5.44403 24.857 5.4251C24.857 5.4061 25.1942 4.71308 25.6062 3.88497C26.536 2.01632 26.5562 1.52369 25.7194 1.1266C25.4381 0.993146 16.1507 0.947127 15.8389 1.07769ZM23.3726 3.26928C23.3726 3.28932 23.131 3.79033 22.8356 4.38263L22.2987 5.45954H20.7578H19.217L18.6594 4.34619L18.1017 3.23284H20.7372C22.1866 3.23284 23.3726 3.24924 23.3726 3.26928ZM23.8921 7.72581C23.8921 7.85718 23.4903 8.51792 23.233 8.80969C21.729 10.515 19.0248 10.2136 17.8145 8.20581C17.4809 7.65232 17.2877 7.68624 20.7747 7.68624C22.4893 7.68624 23.8921 7.70406 23.8921 7.72581ZM15.887 9.52847C15.9542 9.55623 16.166 9.78788 16.3575 10.0434C16.5491 10.2988 16.8531 10.6284 17.0331 10.7759L17.3605 11.0442V16.3733V21.7024L17.1085 21.8581C16.3094 22.352 15.4604 23.6083 15.2592 24.5949L15.1659 25.0524L12.5995 22.4741C9.95452 19.8169 9.73645 19.564 9.30455 18.6523C7.52088 14.8876 9.84222 10.3224 13.9139 9.58725C14.53 9.47607 15.677 9.44185 15.887 9.52847ZM21.8881 16.6673V21.1207H20.7747H19.6614V16.6673V12.2139H20.7747H21.8881V16.6673ZM32.314 24.1515C33.192 25.4937 33.3906 26.3786 33.3912 28.9513C33.3919 32.2874 32.6932 34.1197 30.9434 35.3712L30.7578 35.5039L30.7835 34.7608C30.8797 31.9904 29.37 29.1736 26.8772 27.4722L26.3415 27.1066L26.3404 26.062C26.3384 24.1368 25.8055 22.9053 24.5947 22.0272L24.1148 21.6791L24.1155 18.7093L24.1161 15.7395L28.0371 19.6733C30.9497 22.5954 32.0497 23.7472 32.314 24.1515ZM22.7826 23.543C23.5854 23.9092 24.0063 24.5485 24.0888 25.5271C24.1353 26.0786 24.1302 26.1086 23.9966 26.0674C22.0319 25.461 19.1209 25.4573 17.5646 26.0593C16.9535 26.2957 17.6494 24.2118 18.3326 23.7597C19.0107 23.3109 21.9588 23.1673 22.7826 23.543ZM22.9398 28.1203C26.1217 28.9559 28.3193 31.3505 28.5416 34.2242C28.6271 35.3295 28.1808 36.1651 27.29 36.5676L26.8982 36.7447H20.7376H14.5771L14.1553 36.5376C13.3023 36.1187 12.941 35.4751 12.959 34.4067C13.0321 30.0812 18.1447 26.861 22.9398 28.1203Z" fill="#FF7A00"/>
</svg>
