<svg width="40" height="40" viewBox="0 0 40 40" fill="none" xmlns="http://www.w3.org/2000/svg">
<path fill-rule="evenodd" clip-rule="evenodd" d="M19.7461 1.12335L19.5234 1.24069L19.3493 1.3987L19.175 1.55664L19.0338 1.83199L18.8926 2.10734V3.06989V4.03243L18.4658 4.11466L18.0391 4.19682L17.2969 4.42289L16.5547 4.64904L15.7935 5.01984L15.0323 5.39071L14.4576 5.80247L13.8828 6.21424L13.4427 6.59439L13.0026 6.97461L12.5264 7.53125L12.0502 8.08789L11.6811 8.64453L11.312 9.20117L10.9923 9.86914L10.6726 10.5371L10.4794 11.1309L10.2861 11.7246L10.1617 12.2441L10.0373 12.7637L9.99324 18.3301L9.94923 23.8965L9.80398 24.1781L9.65874 24.4599L9.0405 24.8712L8.42233 25.2826L8.06066 25.7171L7.69907 26.1517L7.47092 26.6198L7.24277 27.0879L7.12135 27.5694L7 28.0509L7.038 28.8311L7.076 29.6113L7.24381 30.089L7.41162 30.5666L7.79303 31.1274L8.17444 31.6882L8.61656 32.0452L9.05861 32.4022L9.50392 32.6194L9.94923 32.8367L10.3916 32.9495L10.8339 33.0625H20.377H29.92L30.3624 32.9495L30.8047 32.8367L31.25 32.6194L31.6953 32.4022L32.1374 32.0452L32.5795 31.6882L32.9609 31.1274L33.3423 30.5666L33.5101 30.089L33.6779 29.6113L33.7159 28.8311L33.7539 28.0509L33.6326 27.5694L33.5112 27.0879L33.2936 26.6426L33.076 26.1973L32.7182 25.7543L32.3605 25.3112L31.7354 24.8876L31.1103 24.464L30.9575 24.1802L30.8047 23.8965L30.7607 18.3301L30.7166 12.7637L30.5922 12.2441L30.4678 11.7246L30.2403 11.0377L30.0129 10.3508L29.651 9.63988L29.289 8.92894L28.8594 8.3245L28.4297 7.72006L27.723 7.01335L27.0163 6.30664L26.4118 5.87699L25.8074 5.44734L25.0797 5.07684L24.352 4.70634L23.5334 4.45117L22.7149 4.19601L22.2881 4.11422L21.8613 4.03243V3.06914V2.10593L21.7413 1.86836L21.6213 1.63086L21.463 1.45667L21.3047 1.2824L21.0293 1.14124L20.754 1L20.3614 1.00297L19.9688 1.00594L19.7461 1.12335ZM21.1563 7.01446L21.8242 7.09024L22.2695 7.21218L22.7149 7.33413L23.2755 7.56806L23.8362 7.80207L24.3888 8.15929L24.9414 8.5165L25.5235 9.08146L26.1056 9.64648L26.5138 10.2589L26.9221 10.8713L27.1622 11.4464L27.4022 12.0215L27.5242 12.4668L27.6461 12.9121L27.7219 13.5801L27.7977 14.248L27.7994 19.1836L27.8011 24.1191L27.9138 24.5976L28.0266 25.0761L28.2652 25.561L28.5039 26.0459L28.9229 26.4927L29.3419 26.9395L29.6555 27.125L29.9691 27.3105L30.2566 27.56L30.5441 27.8094L30.6563 28.1875L30.7686 28.5655L30.7211 28.8287L30.6736 29.0918L30.5759 29.2849L30.4783 29.478L30.2134 29.7106L29.9484 29.9432L29.7457 29.9999L29.543 30.0566H20.377H11.2109L11.0082 29.9999L10.8055 29.9432L10.5405 29.7106L10.2756 29.478L10.178 29.2849L10.0804 29.0918L10.0329 28.8287L9.9853 28.5655L10.0976 28.1875L10.2098 27.8094L10.4973 27.56L10.7849 27.3105L11.0984 27.125L11.412 26.9395L11.831 26.4927L12.25 26.0459L12.4887 25.561L12.7273 25.0761L12.8401 24.5976L12.9529 24.1191L12.9546 19.1836L12.9563 14.248L13.0321 13.5801L13.1078 12.9121L13.2298 12.4668L13.3517 12.0215L13.5857 11.4608L13.8197 10.9002L14.1769 10.3476L14.5341 9.79492L15.099 9.21208L15.6641 8.62924L16.3251 8.19246L16.9863 7.75569L17.5731 7.52939L18.1598 7.3031L18.612 7.18725L19.0641 7.07147L19.5536 7.01424L20.043 6.95702L20.2656 6.94789L20.4883 6.93869L21.1563 7.01446ZM16.7774 36.1546L16.5547 36.2719L16.3805 36.43L16.2062 36.5879L16.0651 36.8632L15.9238 37.1386V37.5164V37.8941L16.0439 38.1316L16.1639 38.3691L16.3222 38.5433L16.4805 38.7176L16.7558 38.8588L17.0312 39H20.377H23.7227L23.9981 38.8588L24.2734 38.7176L24.4318 38.5433L24.5901 38.3691L24.7101 38.1316L24.8301 37.8941V37.5156V37.1372L24.7101 36.8996L24.5901 36.6621L24.4318 36.4879L24.2734 36.3137L23.9981 36.1725L23.7227 36.0312L20.3614 36.0342L17 36.0372L16.7774 36.1546Z" fill="#FF7A00"/>
</svg>
