<svg width="40" height="40" viewBox="0 0 40 40" fill="none" xmlns="http://www.w3.org/2000/svg">
<path fill-rule="evenodd" clip-rule="evenodd" d="M8.97567 6.11675C6.27493 6.70358 5.76699 7.92749 5.76514 13.853L5.76387 17.9535H5.14862C3.23547 17.9535 1.55639 19.2619 1.12579 21.0884C0.952419 21.8236 0.960879 33.5158 1.13499 33.8828C1.74876 35.1762 3.24051 34.4733 3.24051 32.8907V32.1288H20.0134H36.7864V32.8783C36.7864 34.4651 38.2023 35.164 38.8752 33.9094C39.0647 33.5561 39.0883 21.8821 38.9011 21.0884C38.4693 19.2568 36.7968 17.9535 34.8783 17.9535H34.263L34.2618 13.853C34.2598 7.90626 33.7511 6.6929 31.0166 6.11349C30.2929 5.96008 9.68243 5.9632 8.97567 6.11675ZM30.9233 8.44359C31.3797 8.68324 31.5719 8.87197 31.8027 9.30725L31.9994 9.67833V13.7973V17.9164L29.9315 17.9361C27.9795 17.9547 27.8667 17.9485 27.9184 17.8248C29.0793 15.0471 27.9521 11.8904 25.4759 10.9844L24.9488 10.7916H20.0506C14.6192 10.7916 14.9505 10.7646 13.8915 11.2943C11.9375 12.2718 11.088 15.383 12.1085 17.8248C12.1602 17.9485 12.0474 17.9547 10.0954 17.9361L8.02748 17.9164V13.7973V9.67833L8.20285 9.34436C8.51938 8.7415 8.95845 8.40997 9.58602 8.29998C9.7493 8.27133 14.5418 8.25248 20.2361 8.25805L30.5893 8.26822L30.9233 8.44359ZM24.7918 13.1454C26.6885 13.7058 26.4397 17.5828 24.4863 17.9056C24.1215 17.9659 15.9054 17.9659 15.5406 17.9056C13.6192 17.588 13.3346 13.7368 15.1894 13.1522C15.5762 13.0302 24.381 13.0241 24.7918 13.1454ZM35.7112 20.3766C36.6345 20.8711 36.7437 21.1731 36.7735 23.3156L36.7982 25.0783H20.0134H3.22871L3.25335 23.3156C3.28482 21.0601 3.49292 20.6032 4.65018 20.2489C4.75245 20.2176 11.716 20.1976 20.1248 20.2045L35.4134 20.2171L35.7112 20.3766ZM36.7864 28.6035V29.8281H20.0134H3.24051V28.6035V27.379H20.0134H36.7864V28.6035Z" fill="#FF7A00"/>
</svg>
