<svg width="40" height="40" viewBox="0 0 40 40" fill="none" xmlns="http://www.w3.org/2000/svg">
<path fill-rule="evenodd" clip-rule="evenodd" d="M18.0947 0.120333L17.5624 0.240665L17.1363 0.380248L16.7103 0.51983L16.1269 0.811161L15.5436 1.10241L15.0458 1.44024L14.548 1.77799L13.9991 2.32699L13.4501 2.8759L13.1124 3.37365L12.7745 3.87148L12.4721 4.47247L12.1697 5.07338L11.9507 5.8058L11.7316 6.53813L11.6899 7.7147L11.6483 8.89128L9.9293 8.93428L8.21031 8.97728L7.68964 9.14478L7.16898 9.31219L6.76198 9.57336L6.35498 9.83452L5.92449 10.2898L5.49391 10.745L5.24007 11.2873L4.98633 11.8297L4.90758 12.3923L4.82883 12.9548L4.28941 24.5798L3.75 36.205L3.84208 36.7028L3.93408 37.2006L4.16191 37.703L4.38975 38.2055L4.87224 38.7267L5.35466 39.2478L6.06782 39.6012L6.78106 39.9546L19.4122 39.9772L32.0435 40L32.4317 39.9172L32.8201 39.8346L33.3067 39.6069L33.7935 39.3793L34.3443 38.8331L34.8951 38.2869L35.1217 37.8396L35.3484 37.3923L35.4681 36.8179L35.5879 36.2436L35.049 24.5992L34.51 12.9548L34.4199 12.3714L34.3298 11.7881L34.0854 11.2641L33.841 10.7402L33.3589 10.2347L32.8768 9.72919L32.5196 9.51977L32.1625 9.31044L31.6447 9.14386L31.1268 8.97728L29.4078 8.93428L27.6888 8.89128L27.6472 7.7147L27.6055 6.53813L27.3864 5.8058L27.1674 5.07338L26.865 4.47247L26.5626 3.87148L26.2248 3.37365L25.887 2.8759L25.338 2.32699L24.7891 1.77799L24.2914 1.44024L23.7935 1.10241L23.1925 0.799995L22.5916 0.49758L21.8592 0.277915L21.1269 0.0582496L19.8769 0.0291665L18.6269 0L18.0947 0.120333ZM21.0436 2.88373L21.5436 3.01065L22.1269 3.31215L22.7102 3.61364L23.3808 4.28422L24.0514 4.9548L24.3529 5.53813L24.6544 6.12146L24.7918 6.65412L24.9292 7.1867L24.9781 8.04995L25.0269 8.91311H19.6686H14.3102L14.359 8.04995L14.4079 7.1867L14.5453 6.65412L14.6828 6.12146L14.9843 5.53813L15.2858 4.9548L15.9563 4.28422L16.6269 3.61364L17.2102 3.31281L17.7936 3.0119L18.1686 2.91057L18.5436 2.80932L18.9602 2.74232L19.3769 2.67532L19.9602 2.71607L20.5436 2.75682L21.0436 2.88373ZM31.0865 11.8172L31.3768 11.9713L31.5589 12.2963L31.741 12.6214L32.2929 24.3297L32.8449 36.0379L32.7918 36.3237L32.7387 36.6094L32.4705 36.8776L32.2023 37.1458L31.8729 37.2372L31.5435 37.3287H19.6686H7.79364L7.46423 37.2372L7.13481 37.1458L6.86665 36.8776L6.59848 36.6094L6.54548 36.3237L6.49257 36.0379L7.04048 24.413L7.58839 12.7881L7.67256 12.5295L7.75681 12.2709L7.95481 12.0849L8.15281 11.8989L8.47322 11.7847L8.79363 11.6704L19.7949 11.6668L30.7961 11.6631L31.0865 11.8172ZM12.7181 14.4998L12.4759 14.5723L12.1956 14.8439L11.9154 15.1156L11.8262 15.4467L11.737 15.7778L11.8787 16.3607L12.0204 16.9436L12.2929 17.5896L12.5653 18.2356L12.9665 18.8451L13.3678 19.4547L13.9974 20.0892L14.6269 20.7236L15.2283 21.1123L15.8297 21.5009L16.3895 21.752L16.9493 22.0032L17.6215 22.1775L18.2936 22.3519L18.9797 22.4054L19.6659 22.4589L20.4381 22.3989L21.2102 22.3389L21.7017 22.2072L22.1932 22.0754L22.8167 21.8257L23.4403 21.576L24.1406 21.1195L24.841 20.663L25.4057 20.0983L25.9704 19.5336L26.325 19.0113L26.6798 18.489L27.0066 17.8052L27.3335 17.1214L27.5009 16.463L27.6682 15.8045L27.5775 15.468L27.4869 15.1315L27.2193 14.8639L26.9519 14.5964L26.6019 14.4916L26.2519 14.3867L25.9019 14.4916L25.5519 14.5964L25.2886 14.8597L25.0254 15.1229L24.886 15.6222L24.7466 16.1214L24.5397 16.6214L24.3329 17.1214L23.9143 17.6791L23.4957 18.2369L22.978 18.6287L22.4602 19.0205L21.9602 19.2552L21.4602 19.49L20.9636 19.6181L20.4669 19.7464H19.7189H18.9709L18.4239 19.6117L17.8769 19.477L17.2145 19.1355L16.5522 18.7939L15.964 18.2057L15.3758 17.6176L15.0729 17.0361L14.7701 16.4547L14.5552 15.7424L14.3402 15.0301L14.1491 14.8506L13.958 14.671L13.6493 14.5421L13.3406 14.4131L13.1504 14.4202L12.9603 14.4274L12.7181 14.4998Z" fill="#FF7A00"/>
</svg>
