<svg width="40" height="40" viewBox="0 0 40 40" fill="none" xmlns="http://www.w3.org/2000/svg">
<path fill-rule="evenodd" clip-rule="evenodd" d="M29.0391 1.08406C28.6801 1.22729 28.551 1.45721 26.2828 5.99222L23.9907 10.575H15.8752H7.75971L7.50753 10.7435C6.89354 11.1537 6.83417 11.8051 7.34284 12.5517C7.5338 12.8319 8.496 14.2301 9.48106 15.6588C10.4661 17.0874 11.4902 18.5736 11.7568 18.9614C12.0234 19.3491 13.7329 21.8277 15.5557 24.4693L18.8701 29.2722V33.0226V36.7731L15.1407 36.7732C11.7369 36.7733 11.3892 36.7846 11.1569 36.9031C10.3734 37.3026 10.3734 38.47 11.1569 38.8695C11.5504 39.0702 28.4162 39.0702 28.8096 38.8695C29.5932 38.47 29.5932 37.3026 28.8096 36.9031C28.5774 36.7846 28.2297 36.7733 24.8258 36.7732L21.0965 36.7731V33.0241V29.2752L24.3863 24.5079C26.1956 21.8859 27.8603 19.4734 28.0855 19.1469C33.3593 11.5 32.9711 12.0945 32.9708 11.6649C32.9704 10.6492 32.7248 10.575 29.3611 10.575H26.5153L28.5557 6.4908C30.1295 3.3405 30.5961 2.34349 30.5959 2.13064C30.5956 1.32415 29.7917 0.783783 29.0391 1.08406ZM22.8777 12.8391C22.8777 12.8598 22.429 13.7737 21.8805 14.87L20.8834 16.8633L20.5489 16.9475C19.8764 17.1169 19.4015 17.0261 18.6474 16.5842C17.1701 15.7185 15.4182 15.7832 13.9093 16.7594C13.6119 16.9518 13.34 17.1168 13.3052 17.1261C13.2517 17.1405 11.9812 15.3483 10.6209 13.3395L10.2565 12.8015H16.5672C20.0379 12.8015 22.8777 12.8184 22.8777 12.8391ZM29.671 12.8715C29.3092 13.4569 26.7085 17.1388 26.6649 17.1273C26.6319 17.1186 26.3424 16.9426 26.0216 16.7362C25.434 16.3582 24.4704 15.9927 24.0615 15.9927H23.8429L24.6397 14.3971L25.4365 12.8015H27.5754C28.8974 12.8015 29.6977 12.8282 29.671 12.8715ZM17.0222 18.3044C17.1609 18.3513 17.4915 18.5156 17.7568 18.6695C18.271 18.9679 19.117 19.2582 19.4722 19.2582H19.6877L19.2708 20.0894C18.6892 21.2492 18.7941 21.9691 19.583 22.2294C20.439 22.512 20.6678 22.2949 21.736 20.1869C22.7389 18.2077 22.7125 18.2368 23.5177 18.2248C24.1554 18.2154 25.4966 18.8866 25.3469 19.1401C25.1669 19.4452 20.014 26.8952 19.9833 26.8949C19.9563 26.8947 15.9392 21.089 14.6534 19.1921C14.5639 19.0601 14.5943 19.0216 15.0092 18.7398C15.7494 18.2372 16.404 18.0956 17.0222 18.3044Z" fill="#FF7A00"/>
</svg>
