<svg width="40" height="40" viewBox="0 0 40 40" fill="none" xmlns="http://www.w3.org/2000/svg">
<path fill-rule="evenodd" clip-rule="evenodd" d="M7.09449 1.12946C6.06873 1.35059 4.9703 2.09738 4.37864 2.97602C4.23389 3.19099 3.46715 5.00196 2.56396 7.26237L1 11.1765L1.03181 13.529C1.07408 16.6516 1.30966 17.5759 2.38681 18.8456L2.79361 19.3251L2.79473 27.0949C2.79562 33.7575 2.81171 34.9322 2.90759 35.339C3.24417 36.7668 4.41771 37.9372 5.85169 38.2752C6.55933 38.4422 32.8511 38.4399 33.5595 38.2729C34.9906 37.9356 36.1568 36.7662 36.4957 35.3288C36.5886 34.9352 36.6054 33.6803 36.6063 27.0691C36.6073 20.0166 36.6187 19.2642 36.726 19.1752C37.9232 18.1816 38.3476 16.6706 38.349 13.3973L38.35 10.9874L36.7859 7.12459C35.9256 5.0001 35.1189 3.11224 34.993 2.92931C34.4183 2.09405 33.4392 1.42333 32.4106 1.16024C31.6561 0.967292 7.98055 0.938446 7.09449 1.12946ZM32.4718 3.22295C33.2944 3.6279 33.3378 3.70361 34.705 7.12148L35.9251 10.1717L27.8128 10.1905C23.3511 10.2009 16.0499 10.2009 11.5881 10.1905L3.4756 10.1717L4.68392 7.1521C5.96566 3.94899 6.10381 3.68723 6.69636 3.34004C7.39666 2.9296 6.69466 2.9497 19.8133 2.96483L31.976 2.97884L32.4718 3.22295ZM36.4591 13.8304C36.4591 16.2491 36.2466 16.965 35.2558 17.8858C33.4474 19.5664 30.6491 19.2529 29.2772 17.2162C28.6118 16.2284 27.8039 16.1923 27.326 17.1291C26.1145 19.5038 22.2018 19.5609 20.7038 17.2258C20.0535 16.2123 19.3445 16.2456 18.6278 17.3236C17.138 19.5647 13.5887 19.5063 12.1428 17.2168C11.492 16.1865 10.7794 16.1868 10.1282 17.218C8.33329 20.0599 3.74856 19.2311 3.05085 15.9386C2.97699 15.5899 2.94407 14.9325 2.94318 13.7866L2.94192 12.1367H19.7005H36.4591V13.8304ZM11.4733 19.4072C13.5735 21.346 17.1602 21.3956 19.2371 19.5145L19.7005 19.0947L20.164 19.5145C22.1976 21.3565 25.5252 21.366 27.7727 19.5363L28.3184 19.092L28.6254 19.3851C30.0692 20.7625 32.2948 21.2737 34.2281 20.6721L34.6794 20.5316V25.641V30.7503L30.3229 30.7312L25.9664 30.7121L25.9159 30.1024C25.2948 22.6112 14.1063 22.6112 13.4851 30.1024L13.4346 30.7121L9.07808 30.7312L4.72159 30.7503V25.641V20.5316L5.17289 20.6721C7.04874 21.2559 9.28386 20.771 10.6679 19.48C11.1437 19.0363 11.0779 19.0422 11.4733 19.4072ZM20.2871 26.3782C23.2818 26.8641 24.0721 28.3295 24.0743 33.4001L24.0755 36.4589H19.7376H15.3996V33.2936C15.3996 30.6484 15.4191 30.0483 15.518 29.6416C16.0629 27.4004 18.08 26.0201 20.2871 26.3782ZM13.3975 34.568V36.4589L9.93084 36.4585C6.20984 36.458 6.13109 36.451 5.56746 36.0676C4.91076 35.621 4.76327 35.2278 4.73361 33.845L4.70854 32.6771H9.05302H13.3975V34.568ZM34.6674 33.845C34.6377 35.2278 34.4903 35.621 33.8336 36.0676C33.2699 36.451 33.1912 36.458 29.4702 36.4585L26.0035 36.4589V34.568V32.6771H30.348H34.6925L34.6674 33.845Z" fill="#FF7A00"/>
</svg>
