<svg width="40" height="40" viewBox="0 0 40 40" fill="none" xmlns="http://www.w3.org/2000/svg">
<path fill-rule="evenodd" clip-rule="evenodd" d="M30.3889 1.15009C27.7364 1.73118 26.7333 2.70527 23.6307 7.71289C23.2447 8.33583 23.2164 8.36337 23.0038 8.32411C20.606 7.88107 18.9591 8.46721 16.8433 10.5167C15.9709 11.3618 15.9421 11.382 15.4331 11.5059C13.5193 11.9717 11.9577 13.5332 11.4913 15.4476C11.3649 15.9666 11.3637 15.9682 10.2816 17.0845C8.38112 19.0452 7.79328 20.6485 8.22845 22.6842C8.35514 23.2768 8.55124 23.0876 6.37802 24.4683C3.97151 25.9971 3.54177 26.3072 2.9609 26.934C-0.903992 31.1049 1.2368 37.6793 6.82335 38.7957C7.71869 38.9746 8.71282 38.9013 11.0157 38.4861L13.1563 38.1003L13.7751 38.4037C15.7838 39.3882 16.8418 39.2804 20.4115 37.728L22.7056 36.7303L23.1612 37.0553C25.0465 38.4007 27.6276 38.4178 29.5455 37.0976C30.0742 36.7337 36.8043 29.9918 37.1403 29.4894C38.4026 27.6025 38.3622 25.0272 37.0411 23.176L36.7162 22.7207L37.6019 20.7171C39.2786 16.9233 39.4038 15.7377 38.3388 13.7405L38.0617 13.2209L38.4196 11.3282C39.0582 7.95077 38.9905 6.61907 38.0894 4.83381C36.6903 2.06154 33.4041 0.489587 30.3889 1.15009ZM32.9495 3.39932C35.7896 4.01425 37.0438 6.50151 36.3442 10.1315C36.0655 11.5782 36.1666 11.445 35.5426 11.186C35.1986 11.0433 33.4637 10.6333 30.3147 9.95061C27.7224 9.3886 25.5892 8.91914 25.5742 8.90742C25.4731 8.82837 27.9506 5.1494 28.4182 4.68433C29.618 3.49076 31.2432 3.02991 32.9495 3.39932ZM25.5543 11.2236C34.2196 13.1104 34.4914 13.1734 34.9593 13.4038C36.349 14.0879 37.088 15.9046 36.5752 17.3756C36.2483 18.3134 34.8772 21.2748 34.786 21.2399C34.7311 21.2188 31.4063 19.2348 27.3976 16.831C23.3889 14.4272 19.8153 12.2923 19.4563 12.0868L18.8033 11.7131L19.2289 11.3664C20.6339 10.2219 20.924 10.2154 25.5543 11.2236ZM17.8082 13.7929C18.4076 14.001 34.5715 23.766 34.8919 24.1135C35.8829 25.1887 36.0833 26.6586 35.4203 27.9911C35.2351 28.3633 28.5554 35.0844 28.1039 35.3528C26.8247 36.1132 25.2135 35.9336 24.0991 34.9064C23.7029 34.5412 13.9651 18.372 13.7434 17.7114C12.9229 15.2656 15.3396 12.936 17.8082 13.7929ZM17.2735 28.1601C21.9176 35.8804 21.4408 34.8207 20.4617 35.2457C20.0228 35.4361 19.1251 35.8256 18.4668 36.1112C15.9635 37.1972 14.1906 36.785 13.3169 34.9141C13.1114 34.4742 10.518 22.9075 10.3833 21.8307C10.2801 21.0053 10.6544 19.9685 11.3174 19.2431L11.7001 18.8243L12.4938 20.179C12.9303 20.9241 15.0812 24.5157 17.2735 28.1601ZM9.71905 29.5541C10.9623 35.2451 10.9396 35.1494 11.1656 35.6484L11.3731 36.1061L11.2136 36.1459C9.48458 36.5773 7.78133 36.7156 6.91791 36.4948C2.82805 35.4487 1.94005 30.1563 5.45024 27.7472C6.08669 27.3104 8.81859 25.5825 8.83959 25.6035C8.85117 25.6151 9.24692 27.3929 9.71905 29.5541Z" fill="#FF7A00"/>
</svg>
