<svg width="40" height="40" viewBox="0 0 40 40" fill="none" xmlns="http://www.w3.org/2000/svg">
<g clip-path="url(#clip0_1742_13987)">
<path fill-rule="evenodd" clip-rule="evenodd" d="M19.5817 5.07977L0.686875 10.1484L0.495937 10.2735L0.305078 10.3986L0.152812 10.6482L0.000546875 10.8979L0.0003125 11.2181L0 11.5384L0.306953 12.5853L0.613906 13.6323L0.925703 14.5002L1.2375 15.3682L1.64352 16.3752L2.04953 17.3823L2.73602 18.7885L3.42258 20.1948L3.98523 21.1713L4.54789 22.1479L5.27203 23.2416L5.99617 24.3354L6.70039 25.2729L7.40469 26.2104L8.03 26.956L8.65539 27.7016L9.53266 28.6357L10.41 29.5698L11.3573 30.4573L12.3047 31.3448L13.0469 31.9696L13.7891 32.5944L14.7266 33.2976L15.6641 34.0007L16.765 34.7293L17.866 35.4578L18.8353 36.0141L19.8047 36.5703L21.2109 37.2597L22.6172 37.9491L23.6242 38.3555L24.6313 38.762L25.4992 39.0737L26.3672 39.3855L27.4141 39.6925L28.4611 39.9995H28.7893H29.1175L29.383 39.8227L29.6484 39.6459L29.7794 39.3734L29.9103 39.101L34.9552 20.2678L40 1.43453L39.9997 1.12719L39.9995 0.819766L39.8441 0.565156L39.6889 0.310547L39.4343 0.155313L39.1797 0L38.8281 0.00554688L38.4766 0.0110938L19.5817 5.07977ZM37.0905 3.0268L37.0534 3.16352L35.813 7.79242L34.5726 12.4213H33.884H33.1954L32.9844 12.5311L32.7734 12.6409L32.5846 12.843L32.3958 13.0452L32.359 13.4884L32.3223 13.9317L32.4544 14.1727L32.5864 14.4135L32.7936 14.5659L33.0007 14.7184L33.4535 14.7511L33.9062 14.7838V14.8433V14.9027L31.9109 22.3534L29.9157 29.8041L29.8755 29.9376L29.8353 30.0709L28.8551 29.7232L27.8749 29.3755L27.0227 29.0158L26.1705 28.6561L25.136 28.1295L24.1016 27.603L23.1898 27.0513L22.278 26.4997L21.4869 25.9388L20.6958 25.3778L19.9377 24.7733L19.1797 24.1688L18.2667 23.3345L17.3537 22.5002L16.4846 21.5334L15.6155 20.5668L14.9523 19.7167L14.2891 18.8666L13.637 17.8901L12.9849 16.9135L12.4218 15.9053L11.8586 14.897L11.5087 14.1475L11.1588 13.3979L10.8818 12.7338L10.6048 12.0698L10.2666 11.117L9.92852 10.1641L10.0619 10.1233L10.1953 10.0825L16.2109 8.47484L22.2266 6.86727L22.3505 6.83055L22.4745 6.79391L22.573 7.12711L22.6715 7.46039L22.9437 7.98148L23.2159 8.50258L23.6397 8.97086L24.0635 9.43922L24.5686 9.7582L25.0737 10.0772L25.6689 10.277L26.2641 10.4768L26.9065 10.5221L27.5488 10.5675L28.0867 10.4738L28.6245 10.3802L29.2146 10.151L29.8047 9.9218L30.3276 9.52805L30.8505 9.1343L31.2178 8.64891L31.5852 8.16352L31.7655 7.77289L31.9458 7.38227L32.0691 6.91352L32.1923 6.44477L32.2363 5.85883L32.2804 5.27289L32.1701 4.75039L32.0598 4.22781L32.5338 4.10086L33.0078 3.97391L34.9609 3.44047L36.9141 2.90703L37.0209 2.89852L37.1276 2.89008L37.0905 3.0268ZM29.8113 5.12437L29.8641 5.40555L29.8239 5.84812L29.7838 6.29062L29.6141 6.6518L29.4443 7.01289L29.172 7.33102L28.8997 7.64914L28.3941 7.89805L27.8884 8.14703L27.3622 8.15023L26.8359 8.15352L26.432 8.01758L26.028 7.88164L25.663 7.56039L25.298 7.23906L25.123 6.95914L24.948 6.67914L24.861 6.4257L24.7741 6.17219L24.9847 6.11969L25.1953 6.06711L27.4219 5.46203L29.6484 4.85695L29.7035 4.85008L29.7585 4.8432L29.8113 5.12437ZM7.80523 11.3471L7.98492 11.9135L8.49305 13.2008L9.00109 14.488L9.54938 15.5836L10.0977 16.6791L10.4534 17.3041L10.8092 17.9291L11.4657 18.9391L12.1223 19.9491L12.6483 20.6579L13.1743 21.3666L13.7941 22.1088L14.4141 22.851L15.4297 23.8955L16.4453 24.9402L17.2656 25.6599L18.0859 26.3797L18.8672 26.9891L19.6484 27.5985L20.8594 28.3958L22.0703 29.193L22.6953 29.5474L23.3203 29.9018L24.4141 30.4473L25.5078 30.9929L26.4844 31.3855L27.4609 31.778L28.3203 32.0741L29.1797 32.3703L29.2002 32.3838L29.2206 32.3972L28.5947 34.7335L27.9687 37.0698L27.9101 37.2035L27.8516 37.3372L26.6406 36.9225L25.4297 36.5079L24.4341 36.097L23.4386 35.686L22.2857 35.1214L21.1328 34.5568L20.1953 34.0255L19.2578 33.4941L18.2422 32.8305L17.2266 32.1668L16.3281 31.4998L15.4297 30.8329L14.5312 30.0863L13.6328 29.3396L12.1443 27.8531L10.6559 26.3666L9.91125 25.4682L9.16656 24.5698L8.49961 23.6713L7.83266 22.7729L7.17016 21.7573L6.50773 20.7416L6.03688 19.9213L5.56609 19.101L4.98211 17.9291L4.39813 16.7573L3.94297 15.6635L3.48789 14.5698L3.07625 13.3612L2.66453 12.1526L2.69797 12.1192L2.73133 12.0859L5.09609 11.442L7.46094 10.7982L7.5432 10.7895L7.62547 10.7807L7.80523 11.3471ZM14.5015 11.5646L14.2765 11.632L14.0813 11.8118L13.8861 11.9916L13.779 12.243L13.6719 12.4945L13.6736 12.7118L13.6753 12.9291L13.824 13.2566L13.9727 13.5841L14.2879 13.7448L14.6031 13.9057H15.2847H15.9663L16.2987 13.7448L16.6313 13.5838L16.7922 13.2513L16.9531 12.9189V12.7066V12.4945L16.846 12.243L16.7389 11.9916L16.553 11.8267L16.3672 11.6617L16.1016 11.5728L15.8361 11.4838L15.2813 11.4905L14.7266 11.4973L14.5015 11.5646ZM21.9585 12.272L21.6123 12.3399L21.1127 12.5062L20.6131 12.6724L20.0309 13.0618L19.4487 13.4513L19.0645 13.926L18.6804 14.4007L18.4478 14.8759L18.2152 15.351L18.0818 15.8588L17.9484 16.3666V17.1479V17.9291L18.0826 18.437L18.2168 18.9448L18.4596 19.4335L18.7023 19.9222L19.0755 20.3834L19.4487 20.8445L20.0191 21.2261L20.5897 21.6077L21.2369 21.8216L21.884 22.0355L22.6022 22.0827L23.3203 22.1298L23.9696 21.9656L24.6188 21.8015L25.1415 21.5469L25.6641 21.2923L26.3301 20.6264L26.996 19.9604L27.2494 19.4402L27.5027 18.9201L27.6576 18.3145L27.8125 17.7088V17.1479V16.587L27.6576 15.9813L27.5027 15.3757L27.2494 14.8555L26.996 14.3354L26.3301 13.6694L25.6641 13.0034L25.1439 12.7501L24.6237 12.4967L24.0181 12.3419L23.4125 12.187L22.8586 12.1955L22.3047 12.2041L21.9585 12.272ZM24.0077 14.8712L24.4391 15.0823L24.7284 15.4023L25.0176 15.7225L25.1783 16.0837L25.339 16.4448L25.3724 17.0307L25.4059 17.6166L25.2341 18.0721L25.0622 18.5276L24.6467 18.943L24.2313 19.3585L23.7924 19.5227L23.3535 19.687H22.8516H22.3496L21.9107 19.5227L21.4719 19.3585L21.0564 18.943L20.6409 18.5276L20.4767 18.0887L20.3125 17.6498V17.1982V16.7466L20.4289 16.3545L20.5453 15.9625L20.7752 15.6453L21.0049 15.328L21.2902 15.1105L21.5754 14.893L21.9791 14.7487L22.3828 14.6045L22.9796 14.6323L23.5763 14.6601L24.0077 14.8712ZM26.7423 23.2088L26.4142 23.3713L26.2444 23.722L26.0746 24.0727L26.1175 24.3926L26.1605 24.7125L26.3077 24.9098L26.455 25.107L26.6707 25.268L26.8865 25.4291H27.7344H28.5823L28.798 25.268L29.0138 25.107L29.161 24.9098L29.3083 24.7125L29.3513 24.3926L29.3941 24.0727L29.2236 23.7205L29.0531 23.3682L28.7206 23.2073L28.3882 23.0463L27.7292 23.0464L27.0703 23.0465L26.7423 23.2088Z" fill="#FF7A00"/>
</g>
<defs>
<clipPath id="clip0_1742_13987">
<rect width="40" height="40" fill="white"/>
</clipPath>
</defs>
</svg>
