<svg width="40" height="40" viewBox="0 0 40 40" fill="none" xmlns="http://www.w3.org/2000/svg">
<path fill-rule="evenodd" clip-rule="evenodd" d="M18.8905 0.150859L18.4449 0.293281L18.0859 0.503672L17.7269 0.714141L17.3032 1.14461L16.8795 1.57508L16.6624 2.03359L16.4453 2.49219L14.9325 2.49609L13.4197 2.5L13.1253 2.66547L12.8309 2.83094L12.6655 3.12531L12.5 3.41969V4.20984V5H9.76859H7.03711L6.58742 5.16828L6.13766 5.33656L5.73711 5.73711L5.33656 6.13766L5.16828 6.58742L5 7.03711V22.5V37.9629L5.16828 38.4126L5.33656 38.8623L5.73711 39.2629L6.13766 39.6634L6.58742 39.8317L7.03711 40H20H32.9629L33.4126 39.8317L33.8623 39.6634L34.2629 39.2629L34.6634 38.8623L34.8317 38.4126L35 37.9629V22.5V7.03711L34.8317 6.58742L34.6634 6.13766L34.2629 5.73711L33.8623 5.33656L33.4126 5.16828L32.9629 5H30.2314H27.5V4.20984V3.41969L27.3345 3.12531L27.1691 2.83094L26.8747 2.66547L26.5803 2.5L25.0675 2.49609L23.5547 2.49219L23.3412 2.04094L23.1277 1.58969L22.7427 1.1882L22.3578 0.786719L21.9797 0.546797L21.6016 0.306875L21.1051 0.153437L20.6085 0L19.9723 0.00421875L19.3359 0.0084375L18.8905 0.150859ZM20.6641 2.73922L20.8984 2.87984L21.0277 3.10008L21.157 3.32031L21.2127 3.71094L21.2685 4.10156L21.4247 4.38531L21.5809 4.66906L21.8753 4.83453L22.1697 5H23.5848H25V6.25V7.5H20H15V6.25V5H16.4152H17.8303L18.1247 4.83453L18.4191 4.66906L18.5753 4.38531L18.7315 4.10156L18.7866 3.71094L18.8419 3.32031L18.9868 3.08594L19.1317 2.85156L19.312 2.74047L19.4922 2.62937L19.7266 2.57578L19.9609 2.52219L20.1953 2.56039L20.4297 2.59859L20.6641 2.73922ZM12.5 8.29016V9.08031L12.6655 9.37469L12.8309 9.66906L13.1253 9.83453L13.4197 10H20H26.5803L26.8747 9.83453L27.1691 9.66906L27.3345 9.37469L27.5 9.08031V8.29016V7.5H30H32.5V22.5V37.5H20H7.5V22.5V7.5H10H12.5V8.29016ZM18.125 15.1631L17.8516 15.3257L15.8027 17.3673L13.754 19.409L12.9121 18.5821L12.0703 17.7552L11.8203 17.6276L11.5702 17.5H11.245H10.9197L10.6253 17.6655L10.3309 17.8309L10.1655 18.1253L10 18.4197V18.745V19.0702L10.1267 19.3203L10.2534 19.5703L11.4744 20.8104L12.6953 22.0505L13.0427 22.2752L13.39 22.5H13.7301H14.0702L14.3203 22.3743L14.5703 22.2486L17.0598 19.7766L19.5492 17.3047L19.7746 16.9573L20 16.61V16.2648V15.9197L19.8345 15.6253L19.6691 15.3309L19.3747 15.1655L19.0803 15L18.7394 15.0003L18.3984 15.0005L18.125 15.1631ZM23.114 17.6686L22.8295 17.8335L22.6648 18.1266L22.5 18.4197V18.75V19.0803L22.6655 19.3747L22.8309 19.6691L23.1253 19.8345L23.4197 20H26.25H29.0803L29.3747 19.8345L29.6691 19.6691L29.8345 19.3747L30 19.0803V18.75V18.4197L29.8345 18.1253L29.6691 17.8309L29.3747 17.6655L29.0803 17.5L26.2394 17.5018L23.3984 17.5036L23.114 17.6686ZM18.125 25.1631L17.8516 25.3257L15.8027 27.3673L13.754 29.409L12.9121 28.5821L12.0703 27.7552L11.8203 27.6276L11.5702 27.5H11.245H10.9197L10.6253 27.6655L10.3309 27.8309L10.1655 28.1253L10 28.4197V28.745V29.0702L10.1267 29.3203L10.2534 29.5703L11.4744 30.8104L12.6953 32.0505L13.0427 32.2752L13.39 32.5H13.7301H14.0702L14.3203 32.3743L14.5703 32.2486L17.0598 29.7766L19.5492 27.3047L19.7746 26.9573L20 26.61V26.2648V25.9197L19.8345 25.6253L19.6691 25.3309L19.3747 25.1655L19.0803 25L18.7394 25.0003L18.3984 25.0005L18.125 25.1631ZM23.114 27.6686L22.8295 27.8335L22.6648 28.1266L22.5 28.4197V28.75V29.0803L22.6655 29.3747L22.8309 29.6691L23.1253 29.8345L23.4197 30H26.25H29.0803L29.3747 29.8345L29.6691 29.6691L29.8345 29.3747L30 29.0803V28.75V28.4197L29.8345 28.1253L29.6691 27.8309L29.3747 27.6655L29.0803 27.5L26.2394 27.5018L23.3984 27.5036L23.114 27.6686Z" fill="#FF7A00"/>
</svg>
