<svg width="40" height="40" viewBox="0 0 40 40" fill="none" xmlns="http://www.w3.org/2000/svg">
<path fill-rule="evenodd" clip-rule="evenodd" d="M13.8264 2.09141L13.395 2.15156L12.967 2.29055L12.5391 2.42953L11.9922 2.70906L11.4453 2.98852L10.7774 3.65648L10.1095 4.32437L9.82453 4.87477L9.53953 5.42516L9.36758 6.04664L9.19555 6.66812L9.19953 7.44937L9.20359 8.23062L9.36727 8.84797L9.53094 9.46531L9.75922 9.92219L9.9875 10.3791H7.31266H4.63773L4.21344 10.5031L3.78906 10.6273L3.42016 10.8615L3.05117 11.0957L2.81453 11.3652L2.57781 11.6348L2.39242 12.003L2.20695 12.3713L2.11906 12.7852L2.03125 13.1992V14.9884V16.7777L2.11906 17.1916L2.20695 17.6056L2.39242 17.9738L2.57781 18.342L2.81453 18.6116L3.05117 18.8812L3.42016 19.1176L3.78906 19.3541L4.15836 19.4526L4.52773 19.5512L4.54898 27.5627L4.57031 35.5744L4.70914 35.9259L4.84805 36.2775L5.125 36.682L5.40187 37.0866L5.80641 37.3634L6.21094 37.6404L6.5625 37.7793L6.91406 37.9181H20H33.0859L33.4375 37.7793L33.7891 37.6404L34.1936 37.3634L34.5981 37.0866L34.875 36.682L35.152 36.2775L35.2909 35.9259L35.4297 35.5744L35.451 27.5627L35.4723 19.5512L35.8416 19.4526L36.2109 19.3541L36.5798 19.1176L36.9488 18.8812L37.1855 18.6116L37.4222 18.342L37.6076 17.9738L37.793 17.6056L37.8809 17.1916L37.9688 16.7777V14.9884V13.1992L37.8809 12.7852L37.793 12.3713L37.6076 12.003L37.4222 11.6348L37.1855 11.3652L36.9488 11.0957L36.5798 10.8615L36.2109 10.6273L35.7866 10.5031L35.3623 10.3791H32.68H29.9977L30.2386 9.90203L30.4794 9.42492L30.6303 8.83484L30.7812 8.24469V7.45328V6.66187L30.662 6.19625L30.5428 5.73062L30.2453 5.10562L29.9477 4.48062L29.5452 3.99703L29.1428 3.51352L28.6414 3.1557L28.1401 2.79797L27.6442 2.57398L27.1484 2.35008L26.5303 2.21328L25.9122 2.07648L25.1631 2.11828L24.4141 2.16008L23.7577 2.37758L23.1014 2.59508L22.5468 2.95836L21.9922 3.32156L21.5202 3.82797L21.0481 4.33437L20.72 4.96508L20.3919 5.59586L20.2315 6.2882L20.0711 6.98062L20.0273 7.09781L19.9835 7.215L19.802 6.41883L19.6205 5.62273L19.3524 5.07844L19.0843 4.53422L18.7154 4.06469L18.3465 3.59508L17.8769 3.22617L17.4073 2.85727L16.8873 2.60156L16.3672 2.34578L15.8984 2.22578L15.4297 2.10586L14.8438 2.06852L14.2578 2.03125L13.8264 2.09141ZM15.6714 4.86383L16.1328 5.0743L16.4981 5.43289L16.8634 5.79148L17.058 6.22984L17.2527 6.66812L17.6109 8.465L17.9692 10.2619L17.969 10.3263L17.9688 10.3907L15.957 10.3654L13.9453 10.34L13.4986 10.1306L13.0519 9.92125L12.6725 9.56641L12.2931 9.21148L12.0787 8.77352L11.8642 8.33555L11.8089 7.85344L11.7536 7.37125L11.8183 6.94156L11.8829 6.51187L12.1395 6.04312L12.396 5.57437L12.7987 5.24547L13.2013 4.91648L13.6905 4.7568L14.1797 4.59711L14.6948 4.62523L15.21 4.65336L15.6714 4.86383ZM26.6566 4.85656L27.0898 5.06844L27.4439 5.44703L27.798 5.82562L27.9553 6.13391L28.1126 6.44219L28.2114 6.92078L28.3102 7.39945L28.2123 7.93141L28.1142 8.46336L27.8712 8.9193L27.6281 9.37531L27.3126 9.64547L26.997 9.91562L26.5648 10.1278L26.1328 10.34L24.082 10.3653L22.0312 10.3905V10.2956V10.2006L22.3891 8.35625L22.747 6.51187L22.9412 6.12125L23.1355 5.73062L23.4232 5.43273L23.7109 5.13484L23.9706 4.97359L24.2303 4.81227L24.5566 4.70578L24.8828 4.5993L25.5532 4.62195L26.2236 4.64469L26.6566 4.85656ZM15.3906 14.9884V17.0197H10.0809H4.77109L4.69023 16.8686L4.60938 16.7174V14.9884V13.2595L4.69023 13.1083L4.77109 12.9572H10.0809H15.3906V14.9884ZM22.0312 24.1681V35.3791H20H17.9688V24.1681V12.9572H20H22.0312V24.1681ZM35.3098 13.1083L35.3906 13.2595V14.9884V16.7174L35.3098 16.8686L35.2289 17.0197H29.9191H24.6094V14.9884V12.9572H29.9191H35.2289L35.3098 13.1083ZM15.3906 27.4884V35.3791H11.3727H7.35492L7.23211 35.2563L7.10938 35.1335V27.3657V19.5978H11.25H15.3906V27.4884ZM32.8906 27.3657V35.1335L32.7679 35.2563L32.6451 35.3791H28.6273H24.6094V27.4884V19.5978H28.75H32.8906V27.3657Z" fill="#FF7A00"/>
</svg>
