<svg width="40" height="40" viewBox="0 0 40 40" fill="none" xmlns="http://www.w3.org/2000/svg">
<path fill-rule="evenodd" clip-rule="evenodd" d="M35.0954 3.15477L34.822 3.26266L18.8888 11.6312L2.95578 19.9997L2.76812 20.1749L2.58055 20.3501L2.3925 20.6696L2.20453 20.9892L2.11789 21.4207L2.03125 21.8522L2.155 22.2779L2.27875 22.7037L2.4575 22.9689L2.63625 23.2341L2.94984 23.4718L3.26352 23.7095L8.9832 25.6626L14.7029 27.6157L14.7038 31.332L14.7048 35.0483L14.8278 35.4627L14.9509 35.8772L15.2995 36.2498L15.6479 36.6223L16.0494 36.795L16.4508 36.9677L16.9645 36.9364L17.4782 36.9051L17.7806 36.7588L18.083 36.6124L21.2608 33.7877L24.4386 30.9629L27.9116 32.1562L31.3845 33.3497L31.8198 33.3537L32.2551 33.3579L32.6348 33.2285L33.0145 33.0991L33.3339 32.7793L33.6534 32.4595L33.8013 32.1472L33.9491 31.835L35.9338 18.7878L37.9186 5.7407L37.9281 5.19383L37.9377 4.64695L37.7581 4.29539L37.5785 3.94383L37.333 3.68305L37.0876 3.42234L36.7751 3.26055L36.4626 3.09883L35.9157 3.07289L35.3688 3.04688L35.0954 3.15477ZM31.532 8.22148L30.9157 8.86633L23.1177 17.0054L15.3197 25.1445L14.3677 24.8101L13.4157 24.4755L9.33703 23.0794L5.25836 21.6831L5.66516 21.4655L6.07195 21.2478L19.0798 14.4154L32.0876 7.58305L32.1179 7.57984L32.1482 7.57664L31.532 8.22148ZM33.224 19.533L31.5407 30.63L31.4774 30.6404L31.4142 30.6507L24.7063 28.352L17.9985 26.0532L18.4834 25.5454L18.9684 25.0376L26.9206 16.7368L34.8728 8.43602H34.89H34.9072L33.224 19.533ZM19.4832 29.2605L21.4626 29.9387L21.5499 29.9881L21.6373 30.0376L19.4601 31.9729L17.2829 33.9081V31.2028V28.4974L17.3934 28.5398L17.5038 28.5822L19.4832 29.2605Z" fill="#FF7A00"/>
</svg>
