<svg width="40" height="40" viewBox="0 0 40 40" fill="none" xmlns="http://www.w3.org/2000/svg">
<path fill-rule="evenodd" clip-rule="evenodd" d="M34.27 1.33648L33.02 1.39977L31.7702 1.52656L30.5203 1.65336L29.5827 1.80594L28.645 1.95852L27.5903 2.1932L26.5356 2.42789L25.3954 2.80805L24.2552 3.1882L23.4393 3.57305L22.6234 3.95789L21.8752 4.42813L21.127 4.89836L20.5891 5.3282L20.0513 5.75805L19.4535 6.31703L18.8558 6.87602L18.1952 7.63719L17.5346 8.39844L16.9263 9.17969L16.318 9.96094L14.1221 10.0077L11.9263 10.0546L11.3794 10.1798L10.8325 10.3051L10.3285 10.472L9.82453 10.6391L9.1957 10.9536L8.56687 11.2681L8.05906 11.623L7.55125 11.978L5.14906 14.3649L2.74688 16.7519L2.62016 17.0835L2.49352 17.4152L2.54219 17.6724L2.59078 17.9297L2.74336 18.1798L2.89594 18.4299L3.15328 18.5704L3.41062 18.7109L7.05 18.75L10.6894 18.7891L9.95078 20.1172L9.21227 21.4453L8.36227 23.0991L7.51219 24.7529L7.51391 24.9741L7.51562 25.1953L7.66219 25.5078L7.80875 25.8203L11.0394 29.0402L14.27 32.2601L14.5605 32.3801L14.8509 32.5H15.0551H15.2593L16.913 31.6499L18.5669 30.7999L19.895 30.0614L21.2231 29.3228L21.2622 32.9622L21.3013 36.6016L21.4418 36.8589L21.5823 37.1163L21.8324 37.2688L22.0825 37.4214L22.3398 37.47L22.597 37.5187L22.9287 37.392L23.2603 37.2653L25.6473 34.8631L28.0341 32.4609L28.3988 31.9423L28.7634 31.4238L29.1489 30.6142L29.5344 29.8047L29.6951 29.1797L29.8558 28.5547L29.9316 27.9688L30.0073 27.3828L30.0098 25.5469L30.0123 23.7109L30.6959 23.1916L31.3794 22.6724L32.2482 21.9257L33.117 21.179L33.722 20.5309L34.327 19.8828L34.792 19.275L35.2571 18.6673L35.6563 18.025L36.0555 17.3828L36.4265 16.5981L36.7974 15.8134L37.1205 14.8794L37.4437 13.9453L37.7094 12.8678L37.975 11.7902L38.1723 10.6022L38.3697 9.41406L38.487 8.24219L38.6042 7.07031L38.6831 5.42969L38.762 3.78906L38.762 3.04391L38.7622 2.29875L38.5864 1.95016L38.4106 1.60156L38.062 1.42578L37.7134 1.25L36.6167 1.26164L35.52 1.2732L34.27 1.33648ZM36.2614 4.16016L36.2607 4.57031L36.1834 5.89844L36.1062 7.22656L35.9855 8.32031L35.8649 9.41406L35.7072 10.3516L35.5494 11.2891L35.3645 12.0703L35.1796 12.8516L34.9742 13.4995L34.7688 14.1474L34.4202 14.9798L34.0714 15.8122L33.7049 16.4373L33.3385 17.0623L32.8849 17.6741L32.4313 18.2859L31.8283 18.917L31.2252 19.5482L30.3648 20.2712L29.5044 20.9941L28.645 21.6373L27.7856 22.2804L26.4184 23.1998L25.0513 24.1192L23.9184 24.8222L22.7856 25.5252L21.9263 26.033L21.0669 26.5407L19.9731 27.1649L18.8794 27.7891L17.3559 28.6139L15.8325 29.4388L15.5364 29.5791L15.2403 29.7194L12.7825 27.2625L10.3247 24.8056V24.7317V24.6578L11.0781 23.2469L11.8316 21.8359L12.6491 20.3906L13.4667 18.9453L14.453 17.3047L15.4392 15.6641L16.5837 13.9453L17.728 12.2266L18.3731 11.3672L19.0181 10.5078L19.741 9.64734L20.464 8.78695L21.0779 8.20133L21.6919 7.6157L22.1753 7.24453L22.6587 6.87336L23.3081 6.47039L23.9575 6.06742L24.5434 5.79781L25.1294 5.52813L25.9541 5.23164L26.7789 4.93516L27.751 4.69648L28.7231 4.45781L29.9341 4.26391L31.145 4.07008L32.0434 3.98188L32.9419 3.89367L33.9575 3.83344L34.9731 3.7732L35.6177 3.76164L36.2622 3.75L36.2614 4.16016ZM25.2856 8.86016L24.8169 8.96828L24.412 9.12305L24.0071 9.27781L23.4641 9.63883L22.9212 9.99977L22.632 10.3198L22.343 10.6398L22.0361 11.1146L21.7293 11.5893L21.5211 12.2205L21.3129 12.8516V13.75V14.6484L21.5211 15.2795L21.7293 15.9107L22.0446 16.3985L22.3599 16.8864L22.7428 17.2694L23.1258 17.6523L23.6137 17.9676L24.1015 18.2829L24.7327 18.4911L25.3638 18.6993H26.2622H27.1606L27.7917 18.4911L28.4229 18.2829L28.9107 17.9676L29.3986 17.6523L29.7816 17.2694L30.1645 16.8864L30.4798 16.3985L30.7951 15.9107L31.0033 15.2795L31.2115 14.6484V13.75V12.8516L31.0033 12.2205L30.7951 11.5893L30.4798 11.1015L30.1645 10.6136L29.7816 10.2306L29.3986 9.84774L28.9107 9.53242L28.4229 9.21711L27.7917 9.01641L27.1606 8.8157L26.4575 8.78383L25.7544 8.75195L25.2856 8.86016ZM27.2931 11.4655L27.6601 11.6281L28.022 11.9902L28.3841 12.3521L28.5528 12.7191L28.7216 13.0859L28.7223 13.75L28.7231 14.4141L28.5319 14.8027L28.3407 15.1913L28.0004 15.5316L27.6601 15.8719L27.2931 16.0406L26.9263 16.2094H26.2622H25.5981L25.2312 16.0406L24.8643 15.8719L24.5023 15.5098L24.1403 15.1479L23.9802 14.7858L23.8199 14.4236L23.7815 13.9445L23.743 13.4653L23.868 13.0352L23.993 12.6052L24.2586 12.2574L24.5241 11.9096L24.8403 11.6905L25.1565 11.4714L25.4945 11.3613L25.8325 11.2511L26.3794 11.277L26.9263 11.3028L27.2931 11.4655ZM13.5738 14.0039L12.6171 15.5078L12.401 15.8789L12.1848 16.25H9.47844H6.77211L7.86477 15.1501L8.9575 14.0502L9.42625 13.7141L9.895 13.378L10.3191 13.165L10.7433 12.952L11.0613 12.8371L11.3794 12.7222L11.8872 12.6184L12.395 12.5147L13.4627 12.5073L14.5305 12.5L13.5738 14.0039ZM27.4909 26.8733L27.4513 28.0078L27.323 28.4766L27.1948 28.9453L26.9216 29.5243L26.6485 30.1033L26.3052 30.579L25.962 31.0547L24.8621 32.1474L23.7622 33.2401V30.5433V27.8465L25.3442 26.8566L26.9263 25.8666L27.1997 25.676L27.4731 25.4853L27.5018 25.612L27.5305 25.7388L27.4909 26.8733ZM5.57648 28.9463L5.08617 29.1351L4.66586 29.414L4.24563 29.693L3.70039 30.267L3.15508 30.841L2.8375 31.3776L2.51984 31.9141L2.28445 32.4695L2.04906 33.0251L1.84703 33.7195L1.645 34.4141L1.49742 35.2734L1.34992 36.1328L1.29992 36.9141L1.25 37.6953L1.43188 38.0469L1.61375 38.3984L1.96531 38.5797L2.31687 38.7609L3.09812 38.7102L3.87937 38.6595L4.73875 38.5134L5.59812 38.3672L6.30125 38.1635L7.00437 37.9598L7.68187 37.6619L8.3593 37.3639L8.90086 37.0039L9.44234 36.6439L9.9907 36.0666L10.5391 35.4894L10.8586 34.8509L11.1782 34.2124L11.2279 33.9473L11.2777 33.682L11.1825 33.384L11.0874 33.0859L9.08492 31.0656L7.0825 29.0453L6.77 28.8994L6.4575 28.7534L6.26219 28.7556L6.06687 28.7577L5.57648 28.9463ZM8.02719 34.5079L7.51891 34.9923L6.87102 35.3025L6.22312 35.6127L5.67625 35.7702L5.12937 35.9277L4.51367 36.0526L3.89797 36.1774L3.86633 36.1459L3.83477 36.1142L3.95961 35.4985L4.08453 34.8828L4.24195 34.3359L4.39945 33.7891L4.70758 33.1455L5.0157 32.502L5.49633 31.9881L5.97695 31.4744L7.25617 32.7489L8.53539 34.0234L8.02719 34.5079Z" fill="#FF7A00"/>
</svg>
