<svg width="40" height="40" viewBox="0 0 40 40" fill="none" xmlns="http://www.w3.org/2000/svg">
<path fill-rule="evenodd" clip-rule="evenodd" d="M29.8173 2.3075L27.4736 2.56773L27.3038 2.61023L27.1341 2.65273L26.8909 2.85742L26.6477 3.06203L26.5333 3.2832L26.4189 3.50445V3.84828V4.19219L26.5966 4.45578L26.7742 4.71938L27.0378 4.89703L27.3014 5.07469H27.7411H28.1808L28.8327 4.99297L29.4846 4.91117L29.5245 4.95117L29.5645 4.99117L29.1543 5.44305L28.7441 5.895L28.1479 6.43414L27.5517 6.97328L26.6923 7.61469L25.833 8.25609L24.8955 8.8418L23.958 9.42742L23.0174 9.93914L22.0769 10.4509L20.869 11.0113L19.6611 11.5716L18.4111 12.0667L17.1611 12.562L15.872 12.9911L14.583 13.4202L13.4342 13.7351L12.2855 14.0499L11.2077 14.2895L10.1298 14.5289L8.99703 14.7165L7.86422 14.9041L7.35641 14.9596L6.84859 15.0151L6.55258 15.1652L6.25656 15.3154L6.10359 15.5661L5.95062 15.8169L5.90375 16.0647L5.85695 16.3125L5.91172 16.5617L5.96641 16.811L6.24016 17.114L6.51391 17.417L6.81547 17.4981L7.11711 17.5794L8.48969 17.3804L9.86227 17.1814L11.0117 16.9436L12.1611 16.7057L12.9423 16.5101L13.7236 16.3145L14.7783 16.0105L15.833 15.7067L16.9658 15.3195L18.0986 14.9323L18.997 14.5828L19.8955 14.2333L20.9111 13.7896L21.9267 13.3459L23.333 12.623L24.7392 11.9L25.933 11.165L27.1267 10.4299L28.2583 9.585L29.3898 8.74008L30.4034 7.75797L31.4171 6.77594L31.4507 6.88234L31.4844 6.98875L31.5578 7.70391L31.6313 8.41914L31.8106 8.7093L31.9899 8.99938L32.3099 9.14469L32.6298 9.29L32.9033 9.29047L33.1767 9.29086L33.4892 9.11641L33.8017 8.94188L33.9872 8.56797L34.1726 8.19406L33.92 5.75547L33.6674 3.31688L33.5976 3.03414L33.5277 2.75133L33.3584 2.53602L33.189 2.3207L32.8704 2.17594L32.5517 2.03125L32.3564 2.03922L32.1611 2.04727L29.8173 2.3075ZM28.4251 13.8671L28.1266 13.9766L27.8237 14.2164L27.5209 14.4563L27.302 14.9022L27.083 15.3481L27.062 25.3677L27.041 35.3872H25.8316H24.622L24.6216 28.8052L24.6212 22.2231L24.5413 21.9359L24.4616 21.6485L24.2098 21.2784L23.958 20.9081L23.5283 20.6672L23.0986 20.4263H20.0127H16.9267L16.497 20.6672L16.0673 20.9081L15.8155 21.2784L15.5638 21.6485L15.484 21.9359L15.4041 22.2231L15.4037 28.8052L15.4033 35.3872H14.1955H12.9878L12.9651 31.188L12.9423 26.9888L12.8116 26.7005L12.6809 26.4123L12.3551 26.0588L12.0293 25.7055L11.604 25.5463L11.1787 25.3872H8.34398H5.50922L5.15289 25.5086L4.79648 25.6301L4.4818 25.8995L4.16711 26.1688L3.96484 26.5746L3.76266 26.9804V31.1838V35.3872H3.43578H3.10883L2.77461 35.549L2.44039 35.7108L2.28781 35.9591L2.13516 36.2075L2.0832 36.4878L2.03125 36.7682L2.15773 37.0709L2.28422 37.3737L2.41797 37.5243L2.55172 37.6748L2.86422 37.8184L3.17672 37.9619H20.0127H36.8486L37.1611 37.8184L37.4736 37.6748L37.6073 37.5243L37.7411 37.3737L37.8676 37.0709L37.9941 36.7682L37.9421 36.4878L37.8902 36.2075L37.7375 35.9591L37.5849 35.7108L37.2507 35.549L36.9165 35.3872H36.5895H36.2627L36.2619 25.3677L36.2611 15.3481L36.0762 14.9575L35.8912 14.5669L35.6277 14.3174L35.3642 14.0679L35.0127 13.909L34.6611 13.75L31.6923 13.7537L28.7236 13.7576L28.4251 13.8671ZM33.7627 25.8169V35.3872H31.6923H29.622V25.8169V16.2466H31.6923H33.7627V25.8169ZM22.0439 29.1763V35.3872H20.0127H17.9814V29.1763V22.9653H20.0127H22.0439V29.1763ZM10.4033 31.6763V35.3872H8.33297H6.26266V31.6763V27.9653H8.33297H10.4033V31.6763Z" fill="#FF7A00"/>
</svg>
