<svg width="40" height="40" viewBox="0 0 40 40" fill="none" xmlns="http://www.w3.org/2000/svg">
<path fill-rule="evenodd" clip-rule="evenodd" d="M18.6754 3.06204L18.3101 3.12407L17.8451 3.23374L17.3802 3.34346L16.7061 3.60198L16.0321 3.86042L15.4773 4.19379L14.9226 4.52716L14.4431 4.8944L13.9637 5.26157L13.4324 5.82277L12.9012 6.38396L12.4687 7.03369L12.0361 7.68342L11.8059 8.18178L11.5756 8.68021L11.4106 9.17391L11.2456 9.66769L11.1247 10.2323L11.0038 10.7968V12.0256V13.2544L11.1247 13.819L11.2456 14.3836L11.4108 14.8818L11.5759 15.3799L11.8371 15.9224L12.0982 16.4649L12.4932 17.0555L12.8883 17.6462L13.3409 18.1351L13.7934 18.624L14.1734 18.9403L14.5534 19.2565L14.3062 19.3364L14.0591 19.4163L13.4945 19.6471L12.93 19.8779L12.0665 20.3156L11.203 20.7533L10.4392 21.2664L9.67533 21.7795L9.11075 22.2312L8.54617 22.6828L7.7806 23.4484L7.01509 24.2139L6.5633 24.7785L6.1115 25.3431L5.62397 26.0737L5.1365 26.8043L4.81297 27.4027L4.48949 28.0012L4.17519 28.7053L3.86095 29.4093L3.62655 30.0995L3.39222 30.7896L3.19608 31.585L3 32.3804L3.001 32.9466L3.00199 33.5129L3.0999 33.9283L3.1978 34.3436L3.43997 34.825L3.68208 35.3063L4.18794 35.8121L4.69374 36.3179L5.16447 36.5547L5.63513 36.7915L6.03751 36.8957L6.43989 37H13.5905H20.741L20.9536 36.8926L21.1662 36.7852L21.3221 36.6435L21.478 36.5018L21.6044 36.2554L21.7308 36.009V35.6709V35.3329L21.6234 35.1203L21.516 34.9077L21.3743 34.752L21.2326 34.5962L21.0333 34.4863L20.8341 34.3764L13.7602 34.3432L6.68637 34.3099L6.4539 34.1857L6.22143 34.0615L6.09815 33.9532L5.9748 33.845L5.85804 33.6125L5.7412 33.38L5.69889 33.1464L5.65658 32.9127L5.85259 32.1103L6.04853 31.3078L6.31581 30.5962L6.58309 29.8846L6.95644 29.1415L7.32973 28.3985L7.75987 27.7416L8.19002 27.0846L8.56609 26.6124L8.94217 26.1401L9.4748 25.5835L10.0074 25.0269L10.6384 24.4973L11.2694 23.9678L11.9669 23.5051L12.6643 23.0423L13.5942 22.5857L14.5241 22.1292L15.2215 21.8885L15.9189 21.6478L16.5831 21.4917L17.2473 21.3357L17.9116 21.2319L18.5758 21.1282L19.6385 21.0905L20.7012 21.0529L21.2326 20.9861L21.764 20.9191L22.3902 20.7513L23.0164 20.5833L23.6705 20.2955L24.3245 20.0077L25.0037 19.5578L25.6828 19.1079L26.3845 18.4063L27.0861 17.7046L27.536 17.0255L27.9858 16.3463L28.2737 15.6923L28.5615 15.0382L28.7294 14.412L28.8973 13.7858L28.9759 13.2307L29.0544 12.6757L29.017 11.6698L28.9796 10.664L28.8728 10.1826L28.766 9.70117L28.6 9.19298L28.4342 8.68479L28.2028 8.18411L27.9715 7.68342L27.5288 7.01503L27.0861 6.34663L26.3845 5.64496L25.6828 4.94335L25.0144 4.50065L24.346 4.05796L23.8477 3.82767L23.3493 3.59739L22.8555 3.4328L22.3618 3.26821L21.8636 3.15788L21.3655 3.04756L20.2031 3.02378L19.0407 3L18.6754 3.06204ZM21.5979 5.89018L22.2289 6.0484L22.8269 6.3451L23.4248 6.64174L23.9701 7.07799L24.5153 7.51418L24.9515 8.05937L25.3877 8.60462L25.6844 9.20254L25.9811 9.80053L26.1546 10.4647L26.328 11.129V12.0256V12.9223L26.1546 13.5865L25.9811 14.2507L25.6844 14.8487L25.3877 15.4467L24.9531 15.9899L24.5184 16.5331L24.0216 16.9328L23.5248 17.3325L23.1077 17.5657L22.6906 17.799L22.2564 17.9624L21.8221 18.1259L21.2949 18.2367L20.7677 18.3475L19.9342 18.3428L19.1007 18.3381L18.4397 18.1705L17.7787 18.0029L17.1807 17.7062L16.5828 17.4095L16.0375 16.9733L15.4924 16.5371L15.0562 15.9919L14.6199 15.4467L14.3233 14.8487L14.0266 14.2507L13.8531 13.5865L13.6797 12.9223V12.0256V11.129L13.8531 10.4647L14.0266 9.80053L14.3233 9.20254L14.6199 8.60462L15.0562 8.05937L15.4924 7.51418L16.0375 7.07799L16.5828 6.64174L17.1807 6.34723L17.7787 6.05265L18.3082 5.90925L18.8377 5.76591L19.3045 5.71477L19.7713 5.66362L20.3691 5.69776L20.9669 5.73197L21.5979 5.89018ZM25.1515 23.8262L24.9522 23.9312L24.7963 24.0726L24.6403 24.2139L24.514 24.4603L24.3876 24.7068V25.0449V25.3829L24.495 25.5955L24.6024 25.808L24.7441 25.9639L24.8858 26.1199L25.1322 26.2462L25.3786 26.3726H30.6983H36.0179L36.2305 26.2652L36.4431 26.1578L36.5988 26.0161L36.7546 25.8745L36.8479 25.6951L36.9412 25.5157V25.0442V24.5727L36.8479 24.3933L36.7546 24.2139L36.5988 24.0722L36.4431 23.9306L36.2305 23.8232L36.0179 23.7158L30.6843 23.7184L25.3507 23.7211L25.1515 23.8262ZM25.1515 29.1399L24.9522 29.2449L24.7963 29.3863L24.6403 29.5276L24.514 29.774L24.3876 30.0205V30.3585V30.6966L24.495 30.9092L24.6024 31.1217L24.7441 31.2776L24.8858 31.4336L25.1322 31.5599L25.3786 31.6863H30.6983H36.0179L36.2305 31.5789L36.4431 31.4715L36.5988 31.3298L36.7546 31.1881L36.8479 31.0088L36.9412 30.8294V30.3579V29.8864L36.8479 29.707L36.7546 29.5276L36.5988 29.3859L36.4431 29.2443L36.2305 29.1369L36.0179 29.0295L30.6843 29.0321L25.3507 29.0348L25.1515 29.1399ZM25.1515 34.4535L24.9522 34.5586L24.7963 34.7L24.6403 34.8413L24.514 35.0877L24.3876 35.3342V35.6722V36.0103L24.495 36.2229L24.6024 36.4354L24.7441 36.5913L24.8858 36.7473L25.1322 36.8736L25.3786 37H30.6983H36.0179L36.2305 36.8926L36.4431 36.7852L36.5988 36.6435L36.7546 36.5018L36.8479 36.3225L36.9412 36.1431V35.6716V35.2001L36.8479 35.0206L36.7546 34.8413L36.5988 34.6996L36.4431 34.558L36.2305 34.4506L36.0179 34.3432L30.6843 34.3458L25.3507 34.3485L25.1515 34.4535Z" fill="#FF7A00"/>
</svg>
