<svg width="40" height="40" viewBox="0 0 40 40" fill="none" xmlns="http://www.w3.org/2000/svg">
<path fill-rule="evenodd" clip-rule="evenodd" d="M17.5653 1.39992L17.1229 1.54141L16.8231 1.72008L16.5234 1.89867L16.1098 2.29703L15.6962 2.69531L15.5006 3.02805L15.3051 3.36086L15.1858 3.69211L15.0666 4.02344L15.0012 4.69742L14.9359 5.37133L14.8079 5.61883L14.6799 5.86625L14.4298 6.01875L14.1797 6.17133L13.7763 6.17156L13.373 6.17188L12.917 5.79594L12.4609 5.42L12.2266 5.26008L11.9922 5.10023L11.547 4.93555L11.1017 4.77078L10.6095 4.72094L10.1172 4.67109L9.65133 4.75789L9.18547 4.84461L8.67477 5.08352L8.16406 5.3225L6.77289 6.70422L5.3818 8.08594L5.1075 8.63898L4.8332 9.19203L4.74758 9.745L4.66203 10.298L4.74836 10.8191L4.83469 11.3403L5.06055 11.8225L5.28641 12.3047L5.61734 12.6868L5.94828 13.0688L6.06656 13.2494L6.18492 13.4299V13.7865V14.143L6.03984 14.3957L5.89484 14.6484L5.54805 14.8242L5.20125 15H4.76328H4.32523L3.90094 15.1245L3.47656 15.249L3.08594 15.4717L2.69531 15.6944L2.29492 16.1089L1.89453 16.5234L1.69609 16.875L1.49773 17.2266L1.37383 17.6509L1.25 18.0752V20V21.9248L1.37445 22.3491L1.49898 22.7734L1.72172 23.1641L1.94438 23.5547L2.35891 23.9551L2.77344 24.3555L3.125 24.5539L3.47656 24.7523L3.90094 24.8762L4.32523 25L4.76031 25.0017L5.19531 25.0034L5.52125 25.1514L5.84719 25.2994L5.97828 25.4995L6.10938 25.6996L6.16523 25.9552L6.22102 26.2109L6.16977 26.4527L6.11852 26.6943L5.69148 27.1977L5.26445 27.701L5.09648 28.0497L4.92859 28.3984L4.80805 28.8641L4.6875 29.3297V29.7266V30.1234L4.80406 30.5709L4.92055 31.0183L5.12531 31.4271L5.33 31.8359L6.70797 33.2265L8.08594 34.617L8.60758 34.8785L9.12914 35.14L9.69148 35.2405L10.2537 35.341L10.8105 35.2461L11.3672 35.1512L11.8359 34.9326L12.3047 34.7139L12.7665 34.3097L13.2283 33.9055L13.5112 33.8293L13.794 33.7532L14.0979 33.8371L14.4017 33.921L14.6154 34.1346L14.829 34.3483L14.9141 34.6546L14.9991 34.9609L14.9995 35.3238L15 35.6866L15.1534 36.1832L15.3069 36.6797L15.5331 37.0312L15.7593 37.3828L16.0633 37.6867L16.3672 37.9907L16.7188 38.2169L17.0703 38.4431L17.5668 38.5966L18.0634 38.75H19.9941H21.9248L22.3491 38.6255L22.7734 38.501L23.1641 38.2783L23.5547 38.0556L23.953 37.6411L24.3513 37.2266L24.519 36.9445L24.6867 36.6626L24.8101 36.3195L24.9334 35.9766L24.9988 35.3026L25.0641 34.6287L25.1921 34.3812L25.3201 34.1338L25.5702 33.9813L25.8203 33.8287L26.224 33.8284L26.6277 33.8281L27.1615 34.2688L27.6953 34.7095L28.1836 34.9402L28.6718 35.1709L29.2115 35.2545L29.7511 35.338L30.2723 35.2516L30.7934 35.1653L31.3147 34.9214L31.8359 34.6775L33.2265 33.2958L34.617 31.9141L34.8785 31.3924L35.14 30.8709L35.2395 30.3141L35.339 29.7574L35.255 29.2146L35.1709 28.6718L34.9413 28.1836L34.7118 27.6953L34.3002 27.2046L33.8887 26.7139L33.8338 26.4624L33.779 26.2109L33.8323 25.959L33.8857 25.707L34.0193 25.5032L34.1528 25.2994L34.4788 25.1514L34.8047 25.0034L35.2397 25.0017L35.6748 25L36.0991 24.8755L36.5234 24.751L36.9141 24.5283L37.3047 24.3056L37.7051 23.8911L38.1055 23.4766L38.3039 23.125L38.5023 22.7734L38.6262 22.3491L38.75 21.9248V20V18.0752L38.6262 17.6509L38.5023 17.2266L38.3039 16.875L38.1055 16.5234L37.7051 16.1089L37.3047 15.6944L36.9141 15.4717L36.5234 15.249L36.0991 15.1245L35.6748 15L35.3178 14.9995L34.9609 14.9991L34.6546 14.9141L34.3483 14.829L34.1346 14.6154L33.921 14.4017L33.8428 14.1187L33.7647 13.8358L33.8271 13.5593L33.8895 13.2828L34.2855 12.8256L34.6815 12.3685L34.8774 11.9784L35.0734 11.5883L35.193 11.1293L35.3125 10.6703V10.3458V10.0213L35.2327 9.60086L35.153 9.18039L34.9153 8.67219L34.6775 8.16406L33.2958 6.77352L31.9141 5.38305L31.3924 5.12148L30.8709 4.86L30.3085 4.75953L29.7463 4.65898L29.1895 4.75391L28.6328 4.84875L28.1641 5.06742L27.6953 5.28609L27.2335 5.69031L26.7717 6.09453L26.4601 6.17844L26.1485 6.26234L25.8182 6.13617L25.4879 6.01L25.3537 5.86172L25.2195 5.71344L25.1132 5.41531L25.0069 5.11719L25.0034 4.72125L25 4.32523L24.8762 3.90094L24.7523 3.47656L24.5539 3.125L24.3555 2.77344L23.9551 2.35891L23.5547 1.94438L23.1641 1.72172L22.7734 1.49898L22.3491 1.37445L21.9248 1.25L19.9662 1.25422L18.0078 1.25844L17.5653 1.39992ZM21.9233 3.95016L22.1388 4.11125L22.2848 4.30687L22.4309 4.50258L22.503 5.27859L22.5752 6.05469L22.889 6.69125L23.2027 7.32773L23.6435 7.73055L24.0843 8.13344L24.4478 8.31766L24.8113 8.50187L25.2725 8.63586L25.7336 8.76992L26.402 8.72961L27.0703 8.6893L27.5176 8.51945L27.9648 8.34961L28.4427 7.98344L28.9205 7.61719L29.1593 7.44141L29.3981 7.26562H29.703H30.0077L30.2188 7.37742L30.4297 7.4893L31.4955 8.56883L32.5612 9.64844L32.6478 9.81906L32.7344 9.98977V10.2958V10.6019L32.5586 10.8407L32.3828 11.0795L32.0166 11.5573L31.6504 12.0352L31.4789 12.4824L31.3073 12.9297L31.2681 13.5437L31.2289 14.1577L31.3258 14.5984L31.4226 15.0391L31.6952 15.5621L31.9679 16.0851L32.389 16.4833L32.8101 16.8816L33.3797 17.152L33.9493 17.4226L34.7234 17.4958L35.4974 17.5691L35.6931 17.7152L35.8888 17.8612L36.0498 18.077L36.2109 18.2927V20V21.7073L36.0498 21.923L35.8888 22.1388L35.6931 22.2848L35.4974 22.4309L34.7495 22.5017L34.0016 22.5725L33.661 22.706L33.3203 22.8395L32.9273 23.0875L32.5343 23.3355L32.1965 23.7185L31.8587 24.1016L31.6784 24.4565L31.4981 24.8113L31.3641 25.2725L31.2301 25.7336L31.2704 26.402L31.3107 27.0703L31.4805 27.5176L31.6504 27.9648L32.0166 28.4427L32.3828 28.9205L32.5586 29.1593L32.7344 29.3981V29.7042V30.0102L32.6478 30.1809L32.5612 30.3516L31.4955 31.4312L30.4297 32.5107L30.2188 32.6226L30.0077 32.7344H29.703H29.3981L29.1593 32.5586L28.9205 32.3828L28.4427 32.0166L27.9648 31.6504L27.5176 31.4805L27.0703 31.3107L26.402 31.2704L25.7336 31.2301L25.2725 31.3641L24.8113 31.4981L24.4478 31.6823L24.0843 31.8666L23.6435 32.2695L23.2027 32.6723L22.889 33.3088L22.5752 33.9453L22.503 34.7214L22.4309 35.4974L22.2848 35.6931L22.1388 35.8888L21.923 36.0498L21.7073 36.2109H20H18.2927L18.077 36.0498L17.8612 35.8888L17.7134 35.6909L17.5656 35.4929L17.5016 34.7582L17.4375 34.0234L17.2711 33.6044L17.1046 33.1853L16.8759 32.8528L16.647 32.5202L16.2487 32.1621L15.8503 31.804L15.4406 31.6101L15.0309 31.4162L14.6629 31.3236L14.295 31.231L13.6123 31.2682L12.9297 31.3054L12.4824 31.4779L12.0352 31.6504L11.5573 32.0166L11.0795 32.3828L10.8407 32.5586L10.6019 32.7344H10.297H9.99227L9.78125 32.6226L9.57031 32.5107L8.50453 31.4312L7.43875 30.3516L7.35219 30.1809L7.26562 30.0102V29.7042V29.3981L7.44141 29.1593L7.61719 28.9205L7.98344 28.4427L8.34961 27.9648L8.52109 27.5176L8.69266 27.0703L8.73187 26.4563L8.77109 25.8423L8.67297 25.4016L8.57492 24.9609L8.34555 24.5052L8.11609 24.0494L7.78852 23.6921L7.46094 23.3348L7.07031 23.0872L6.67969 22.8395L6.32812 22.7007L5.97656 22.5619L5.2418 22.4981L4.50711 22.4344L4.30914 22.2866L4.11125 22.1388L3.95016 21.923L3.78906 21.7073V20V18.2927L3.95016 18.077L4.11125 17.8612L4.30687 17.7152L4.50258 17.5691L5.27859 17.497L6.05469 17.4248L6.69125 17.111L7.32773 16.7973L7.73055 16.3565L8.13344 15.9157L8.31766 15.5522L8.50187 15.1887L8.63586 14.7275L8.76992 14.2664L8.72961 13.598L8.6893 12.9297L8.51945 12.4824L8.34961 12.0352L7.98344 11.5573L7.61719 11.0795L7.44141 10.8407L7.26562 10.6019V10.2958V9.98977L7.35219 9.81906L7.43875 9.64844L8.50453 8.56883L9.57031 7.4893L9.78125 7.37742L9.99227 7.26562H10.297H10.6019L10.8407 7.44141L11.0795 7.61719L11.5573 7.98344L12.0352 8.34961L12.4824 8.51945L12.9297 8.6893L13.598 8.72961L14.2664 8.76992L14.7275 8.63586L15.1887 8.50187L15.5522 8.31766L15.9157 8.13344L16.3565 7.73055L16.7973 7.32773L17.111 6.69125L17.4248 6.05469L17.4949 5.30008L17.565 4.54555L17.6425 4.40164L17.72 4.25781L17.9123 4.07797L18.1046 3.8982L18.3296 3.82797L18.5547 3.75773L20.1312 3.77336L21.7077 3.78906L21.9233 3.95016ZM18.2116 11.4107L17.4778 11.5691L16.8834 11.7987L16.2891 12.0283L15.6741 12.3791L15.0593 12.7299L14.6439 13.0504L14.2286 13.3708L13.6498 13.9766L13.071 14.5823L12.7368 15.0746L12.4025 15.5668L12.0567 16.2969L11.7109 17.027L11.5041 17.7909L11.2973 18.5547L11.297 20L11.2968 21.4453L11.5119 22.2238L11.727 23.0023L12.027 23.6424L12.3269 24.2825L12.6837 24.8341L13.0405 25.3857L13.6452 26.0186L14.2498 26.6515L14.7616 27.0405L15.2734 27.4296L16.1328 27.8527L16.9922 28.2759L17.7734 28.4895L18.5547 28.7032L20 28.703L21.4453 28.7027L22.2091 28.4959L22.973 28.2891L23.7031 27.9433L24.4332 27.5975L24.9219 27.2656L25.4105 26.9338L25.9993 26.377L26.5881 25.8203L27.0497 25.2005L27.5113 24.5807L27.8962 23.7924L28.2812 23.0041L28.492 22.2248L28.7027 21.4453V20V18.5547L28.492 17.7752L28.2812 16.9959L27.8962 16.2076L27.5113 15.4193L27.0497 14.7995L26.5881 14.1797L26.0089 13.6322L25.4297 13.0847L24.868 12.7113L24.3064 12.338L23.6341 12.023L22.9619 11.708L22.2036 11.5078L21.4453 11.3077L20.1953 11.2799L18.9453 11.2522L18.2116 11.4107ZM21.5625 13.9952L22.1484 14.1442L22.6352 14.372L23.1218 14.5997L23.4945 14.8547L23.8672 15.1098L24.2868 15.5041L24.7064 15.8984L25.0473 16.3755L25.3884 16.8526L25.6221 17.3521L25.8558 17.8516L26.02 18.4766L26.1842 19.1016L26.1855 20L26.1869 20.8984L26.0213 21.5234L25.8558 22.1484L25.6221 22.6479L25.3884 23.1474L25.0473 23.6245L24.7064 24.1016L24.2868 24.4959L23.8672 24.8902L23.4945 25.1453L23.1218 25.4003L22.6352 25.628L22.1484 25.8558L21.5234 26.0213L20.8984 26.1869L20 26.1855L19.1016 26.1842L18.4766 26.02L17.8516 25.8558L17.3521 25.6221L16.8526 25.3884L16.3755 25.0473L15.8984 24.7064L15.5041 24.2868L15.1098 23.8672L14.8547 23.4945L14.5997 23.1218L14.372 22.6352L14.1442 22.1484L13.9786 21.5234L13.813 20.8984V20V19.1016L13.9786 18.4766L14.1442 17.8516L14.3779 17.3521L14.6116 16.8526L14.9527 16.3755L15.2936 15.8984L15.7132 15.5041L16.1328 15.1098L16.4844 14.8701L16.8359 14.6304L17.2285 14.4322L17.6211 14.2339L18.1708 14.067L18.7204 13.9L19.2235 13.8317L19.7266 13.7634L20.3516 13.8048L20.9766 13.8462L21.5625 13.9952Z" fill="#FF7A00"/>
</svg>
