<svg width="40" height="40" viewBox="0 0 40 40" fill="none" xmlns="http://www.w3.org/2000/svg">
<path fill-rule="evenodd" clip-rule="evenodd" d="M7.29858 2.10561C8.20223 2.71369 8.01423 3.33225 6.42953 4.96437C4.71024 6.7352 3.46227 8.55196 2.59678 10.5438C1.76954 12.4479 -0.430153 12.3357 0.0742912 10.4151C1.03631 6.7525 5.89665 1.16211 7.29858 2.10561ZM27.1655 2.87495C29.0001 3.62857 29.9253 5.49865 29.3169 7.22327C29.2397 7.44196 29.1766 7.63334 29.1766 7.64849C29.1766 7.66364 29.3134 7.70555 29.4806 7.74156C31.3889 8.15218 32.6383 9.89954 32.3436 11.7455C32.2833 12.1229 31.7314 13.4706 30.5623 16.0949C29.6307 18.1863 28.7746 20.1079 28.6601 20.3651L28.4518 20.8328L29.4923 20.8349C33.7073 20.8432 34.8591 25.2188 31.4818 28.3927C30.8152 29.0192 29.7861 30.0999 29.1951 30.7945C21.8953 39.3705 13.4204 40.5769 6.81462 33.9801C2.69818 29.8692 2.63654 25.7021 6.56497 17.0914C7.62119 14.7763 9.02086 11.6826 9.67534 10.2164C11.2313 6.73099 11.3025 6.59611 11.8618 6.07296C13.1211 4.89506 15.1021 4.80536 16.4893 5.86335L16.8067 6.10551L17.1391 5.40577C18.1268 3.3258 20.5197 2.65935 22.4232 3.93406L22.8254 4.20345L23.4054 3.62399C24.4056 2.62455 25.8537 2.33609 27.1655 2.87495ZM25.3378 5.12067C24.9872 5.30194 25.1711 4.9205 21.98 12.0872C20.4796 15.4568 19.1596 18.4031 19.0464 18.6346C18.5782 19.5926 17.5563 19.7457 16.9315 18.9513C16.5297 18.4405 16.5676 18.3314 19.1682 12.4974C21.9777 6.19475 21.95 6.31083 20.77 5.7787C19.7762 5.33056 19.7781 5.32729 16.7801 12.0872C13.8272 18.7449 13.8611 18.6894 12.861 18.5018C11.5566 18.2571 11.6403 17.7185 13.7305 12.9027C15.6258 8.53606 15.6406 8.48284 15.1195 7.91423C14.1387 6.84398 13.6142 7.29502 12.2241 10.4038C11.6145 11.7669 10.1316 15.0499 8.92864 17.6994C5.09841 26.1351 5.10983 29.4763 8.98018 32.7691C14.8342 37.7496 20.9732 36.5945 27.2666 29.3281C28.2493 28.1933 29.369 27.0529 30.374 26.1628C31.4269 25.2304 31.2611 23.7585 30.0463 23.2508C29.2545 22.92 29.1513 22.9709 25.6945 25.3993C22.1262 27.906 22.1601 27.8897 21.4661 27.4322C20.3346 26.6862 20.7097 25.9475 23.0499 24.3134L24.8271 23.0724L27.4176 17.2758C30.4084 10.5832 30.3884 10.6638 29.1887 10.1607C28.2043 9.74773 28.1648 9.80694 25.6163 15.5189C23.0491 21.2727 22.9597 21.3941 21.805 20.6901C20.892 20.1335 20.8177 20.3775 24.182 12.8889C25.7553 9.38696 27.0641 6.39145 27.0905 6.23225C27.2264 5.41269 26.1245 4.71388 25.3378 5.12067ZM37.9222 9.62426C39.8289 10.1249 40.8593 21.4152 39.0822 22.3342C37.9267 22.9317 37.2099 22.0727 37.4439 20.3709C37.8218 17.6221 37.5606 14.6619 36.6956 11.8906C36.1726 10.2149 36.6702 9.29557 37.9222 9.62426Z" fill="#FF7A00"/>
</svg>
