<svg width="40" height="40" viewBox="0 0 40 40" fill="none" xmlns="http://www.w3.org/2000/svg">
<path fill-rule="evenodd" clip-rule="evenodd" d="M7.3449 5.09708C5.31249 5.59084 4.99944 6.37983 5 11.0063C5.00049 15.2388 5.09351 15.5105 6.54168 15.5105C7.98004 15.5105 8.08287 15.2197 8.08336 11.1502L8.08378 8.0835L11.1505 8.08308C13.1492 8.08287 14.3148 8.05602 14.4975 8.00611C15.8864 7.62676 15.8864 5.45604 14.4975 5.07669C14.0875 4.96467 7.81622 4.98255 7.3449 5.09708ZM25.4674 5.08166C24.1105 5.46726 24.1365 7.633 25.5025 8.00611C25.6852 8.05602 26.8508 8.08287 28.8495 8.08308L31.9162 8.0835L31.9166 11.1502C31.9171 15.2197 32.02 15.5105 33.4583 15.5105C34.9065 15.5105 34.9995 15.2388 35 11.0063C35.0006 6.39189 34.6816 5.57878 32.6863 5.10851C32.1459 4.98115 25.9029 4.95794 25.4674 5.08166ZM13.3868 12.6018C13.0398 12.7255 12.7943 12.9544 12.6323 13.3056C12.432 13.7394 12.4314 26.256 12.6316 26.6967C13.1226 27.7777 14.8303 27.7872 15.3816 26.7121C15.5116 26.4584 15.5154 26.2383 15.4974 19.9018L15.4788 13.3536L15.2645 13.0843C14.8413 12.5525 14.0763 12.356 13.3868 12.6018ZM19.4042 12.5888C19.0045 12.7521 18.8821 12.8539 18.6879 13.1842L18.4929 13.5159V20.0052V26.4946L18.7032 26.8332C18.996 27.3047 19.3248 27.4649 20 27.4649C20.6752 27.4649 21.004 27.3047 21.2968 26.8332L21.5071 26.4946V19.9997V13.5049L21.2968 13.1663C20.9494 12.6069 20.0395 12.3292 19.4042 12.5888ZM25.2586 12.6572C25.0888 12.744 24.8534 12.9361 24.7355 13.0843L24.5212 13.3537V19.9997V26.6457L24.7355 26.9151C25.4746 27.8439 27.1253 27.6208 27.4221 26.552C27.5741 26.0044 27.5241 13.6454 27.3684 13.3027C27.0395 12.5786 26.0218 12.2673 25.2586 12.6572ZM5.75689 24.6289C5.02657 25.0146 5.00021 25.1671 5.00098 29.007C5.00182 32.9298 5.03393 33.1322 5.79271 33.999C6.60427 34.9258 6.99176 35.0002 11.0065 34.9997C15.2511 34.9992 15.5076 34.9103 15.5124 33.4377C15.5169 32.0217 15.2163 31.9169 11.1505 31.9164L8.08378 31.9159L8.08336 28.8493C8.08301 25.6028 8.06576 25.4019 7.75209 24.9864C7.38507 24.5002 6.35123 24.3149 5.75689 24.6289ZM32.6735 24.6289C31.9481 25.012 31.9171 25.185 31.9166 28.8493L31.9162 31.9159L28.8495 31.9164C24.7837 31.9169 24.4831 32.0217 24.4876 33.4377C24.4924 34.9099 24.7499 34.9992 28.9863 34.9997C34.8244 35.0005 35.0008 34.8243 35 28.9932C34.9996 25.5954 34.9837 25.4037 34.6687 24.9864C34.3017 24.5002 33.2679 24.3149 32.6735 24.6289Z" fill="#FF7A00"/>
</svg>
