<svg width="40" height="40" viewBox="0 0 40 40" fill="none" xmlns="http://www.w3.org/2000/svg">
<g clip-path="url(#clip0_1748_10402)">
<path fill-rule="evenodd" clip-rule="evenodd" d="M2.96764 0.173086C2.40467 0.544258 2.44982 -0.37043 2.44982 10.6498C2.44982 21.67 2.40467 20.7554 2.96764 21.1265C3.31771 21.3573 36.7362 21.3573 37.0862 21.1265C37.6492 20.7554 37.604 21.67 37.604 10.6498C37.604 -0.37043 37.6492 0.544258 37.0862 0.173086C36.7362 -0.0576953 3.31771 -0.0576953 2.96764 0.173086ZM35.2613 10.6498V18.9311H20.0269H4.79256V10.6498V2.36855H20.0269H35.2613V10.6498ZM7.65514 4.86059C7.10654 5.2223 7.13732 4.87793 7.13732 10.6498C7.13732 17.19 6.89912 16.5863 9.48006 16.5863C11.5107 16.5863 11.8228 16.4303 11.8228 15.4154C11.8228 14.5463 11.4258 14.2448 10.2808 14.2441L9.48006 14.2436V10.6498V7.05605L10.2808 7.05551C11.8414 7.05457 12.498 5.64715 11.305 4.86059C10.9667 4.63754 7.99342 4.63754 7.65514 4.86059ZM18.5816 4.86145C11.9336 6.67426 13.1554 16.5873 20.0269 16.5873C26.0014 16.5873 28.1474 8.54871 22.9908 5.48527C21.7833 4.76785 19.9012 4.5016 18.5816 4.86145ZM28.7489 4.86059C27.5558 5.64715 28.2125 7.05457 29.773 7.05551L30.5738 7.05605V10.6498V14.2436L29.773 14.2441C28.628 14.2448 28.2311 14.5463 28.2311 15.4154C28.2311 16.4303 28.5432 16.5863 30.5738 16.5863C33.1547 16.5863 32.9165 17.19 32.9165 10.6498C32.9165 4.10965 33.1547 4.71332 30.5738 4.71332C29.136 4.71332 28.9494 4.7284 28.7489 4.86059ZM21.0582 7.28238C23.0406 7.96441 24.0428 10.3071 23.1366 12.1407C21.7947 14.8557 18.2591 14.8557 16.9172 12.1407C15.6048 9.48504 18.2931 6.33105 21.0582 7.28238ZM11.6556 24.7935C10.8721 24.885 9.93928 25.1464 8.86467 25.5759L7.89764 25.9623L4.33342 25.9629C-0.582129 25.9636 0.0279489 24.9672 0.0279489 32.9936C0.0279489 41.0427 -0.656895 40.0238 4.7535 40.0238C9.65615 40.0238 9.4785 40.0801 9.47951 38.5246L9.48006 37.7665L9.77303 37.6835C10.5003 37.4772 11.5376 37.3443 12.4097 37.3455C13.4054 37.3469 13.5597 37.3684 15.5738 37.786C24.8151 39.7022 32.4163 37.5468 38.9191 31.166C40.4076 29.7054 40.4258 29.1075 39.0171 27.9389C36.5654 25.9051 33.7444 26.08 30.6968 28.4546C30.049 28.9592 29.4137 29.4444 29.2847 29.5328L29.0504 29.6936L28.793 29.1671C27.7391 27.011 26.0089 26.0726 22.8785 25.9592C19.9222 25.8521 18.5987 25.7059 16.1597 25.2167C13.7002 24.7234 12.9002 24.6482 11.6556 24.7935ZM14.7535 27.4132C17.7055 28.0467 19.4516 28.2621 22.3316 28.3482C24.4737 28.4122 24.954 28.5323 25.7821 29.2109C26.0748 29.4507 26.7457 30.3433 26.7457 30.4929C26.7457 30.5257 24.6044 30.5787 21.9871 30.6107C17.6244 30.6639 17.211 30.6802 17.0176 30.807C16.3 31.2778 16.3338 32.4751 17.0758 32.868C17.3126 32.9933 17.7265 33.0016 22.6441 32.9789L27.9566 32.9545L28.6412 32.6929C29.4458 32.3853 30.6559 31.6002 32.3019 30.3177C34.1335 28.8907 35.16 28.6474 36.6082 29.2973C37.1781 29.5531 37.2032 29.4852 36.2183 30.3536C30.1274 35.7239 24.0109 37.1414 15.1832 35.2281C13.2554 34.8103 10.6901 34.8115 9.59748 35.2308C9.49404 35.2705 9.48006 34.8389 9.48006 31.6033V27.9307L9.6949 27.8514C11.8401 27.0596 12.7415 26.9815 14.7535 27.4132ZM7.13631 32.9936V37.6811H4.7535H2.37068V32.9936V28.3061H4.7535H7.13631V32.9936Z" fill="#FF7A00"/>
</g>
<defs>
<clipPath id="clip0_1748_10402">
<rect width="40" height="40" fill="white"/>
</clipPath>
</defs>
</svg>
