<svg width="40" height="40" viewBox="0 0 40 40" fill="none" xmlns="http://www.w3.org/2000/svg">
<g clip-path="url(#clip0_1748_10391)">
<path fill-rule="evenodd" clip-rule="evenodd" d="M7.4691 0.188644C6.30761 0.620128 5.44816 1.54872 5.14964 2.69489C5.048 3.08513 5.02949 3.87599 5.02949 7.82732V12.4984H4.20503C0.296206 12.4984 -1.60332 16.9929 1.39543 19.1465L1.73261 19.3886L1.52558 19.8303C0.895504 21.1742 1.45972 23.316 2.67371 24.1886L2.96894 24.4009L2.77339 24.8754C2.18363 26.3064 2.6148 28.0711 3.80543 29.099L4.2323 29.4675L4.03457 29.8994C3.50574 31.0545 3.79082 32.7452 4.68144 33.7358L5.02949 34.1229V35.4818C5.02949 38.0098 5.72738 39.2087 7.56746 39.8418C8.2598 40.08 26.681 40.0879 27.4443 39.8504C29.1378 39.3233 30.0295 37.9291 30.0295 35.8081V34.9984H30.9935C33.4849 34.9984 35.4281 33.6848 36.0499 31.5804L36.148 31.2484L37.6395 31.2483C39.3152 31.2482 39.5268 31.1966 39.8521 30.7095L40.0295 30.444L40.0289 25.0064C40.0283 18.2026 40.2555 18.8279 37.7834 18.8271L36.2795 18.8265V16.5383C36.2795 11.9033 34.7103 9.99841 30.8921 9.99841H30.0295V6.68872C30.0295 2.57497 29.9522 2.13974 29.0503 1.1756C27.8757 -0.0801063 28.6445 -0.00229377 17.4639 0.00247185L7.95918 0.00653435L7.4691 0.188644ZM10.047 3.41638C10.1177 5.57333 11.1275 6.91357 12.9771 7.30552C13.7399 7.46716 21.3103 7.46903 22.071 7.30778C23.9783 6.90349 25.027 5.39927 25.0289 3.06482L25.0295 2.34216L25.635 2.34403C27.567 2.34997 27.6076 2.44044 27.6076 6.73372V9.99841L24.3068 9.99857C20.026 9.99872 20.055 9.98669 20.1309 11.7172C20.2896 15.3376 23.2761 18.4008 26.885 18.645L27.6076 18.6939V27.6108V36.5278L27.4318 36.8718C27.2171 37.2919 26.9509 37.4955 26.5028 37.5821C26.0379 37.6718 8.89972 37.6697 8.51207 37.5799C7.73402 37.3994 7.4973 37.0179 7.46418 35.8914L7.43793 34.9984H7.74293C10.3024 34.9984 11.8494 32.2147 10.7821 29.5297C10.7512 29.452 10.8443 29.3333 11.058 29.1781C12.5406 28.1009 12.88 25.7382 11.7816 24.1414L11.5127 23.7504L11.7722 23.3783C13.6739 20.6518 11.6906 17.5153 8.05566 17.5008L7.44894 17.4984L7.46972 10.3557C7.49027 3.27966 7.49191 3.21091 7.65152 2.99724C8.02816 2.49286 8.3748 2.36278 9.37613 2.35013L10.0118 2.34216L10.047 3.41638ZM22.6042 3.06482C22.595 5.00208 22.6136 4.99497 17.5295 4.99497C12.4317 4.99497 12.4514 5.00224 12.4514 3.11833V2.34216H17.5295H22.6076L22.6042 3.06482ZM32.3089 12.6282C32.8013 12.8558 33.3578 13.3834 33.6107 13.8625L33.8186 14.2562L33.8576 17.3031C33.91 21.3924 33.7761 21.1695 36.1818 21.17L37.6857 21.1703V24.9938V28.8172L36.1678 28.8415C34.2146 28.8726 34.0086 28.9914 33.8598 30.1726C33.6592 31.7652 32.7767 32.5093 31.0256 32.5622L30.0295 32.5922V24.9256C30.0295 15.4329 30.2539 16.3273 27.8496 16.24C25.1809 16.1431 23.2081 14.7564 22.7178 12.6327L22.6676 12.4155L27.3056 12.4374C31.8706 12.459 31.9493 12.462 32.3089 12.6282ZM5.02949 16.2093V17.4984H4.18168C2.97925 17.4984 2.45136 17.1072 2.45136 16.2159C2.45136 15.3337 3.02535 14.9248 4.26777 14.922L5.02949 14.9203V16.2093ZM9.05293 20.0075C9.95582 20.2569 10.3133 21.3776 9.70949 22.0653C9.27988 22.5546 9.07097 22.589 6.69902 22.5618L4.58793 22.5375L4.27402 22.3296C3.35472 21.7208 3.56496 20.3777 4.63503 20.024C5.00425 19.9018 8.62191 19.8884 9.05293 20.0075ZM9.29714 25.1255C10.2777 25.5908 10.2133 27.0448 9.19339 27.471C8.76972 27.648 6.09832 27.615 5.68582 27.4277C4.75871 27.0066 4.69503 25.7658 5.57027 25.1761C5.91988 24.9404 8.82418 24.9011 9.29714 25.1255ZM7.94339 30.104C8.48988 30.3323 8.87285 31.0204 8.74293 31.5408C8.36621 33.0503 6.24043 32.8467 6.24043 31.3013C6.24043 30.3472 7.09222 29.7483 7.94339 30.104ZM14.5882 32.6618C13.7177 32.914 13.5436 34.2442 14.308 34.8031C14.5629 34.9895 20.0853 35.0914 20.5052 34.9174C21.4222 34.5376 21.4543 33.1381 20.5552 32.73C20.1903 32.5643 15.1246 32.5065 14.5882 32.6618Z" fill="#FF7A00"/>
</g>
<defs>
<clipPath id="clip0_1748_10391">
<rect width="40" height="40" fill="white"/>
</clipPath>
</defs>
</svg>
