<svg width="40" height="40" viewBox="0 0 40 40" fill="none" xmlns="http://www.w3.org/2000/svg">
<path fill-rule="evenodd" clip-rule="evenodd" d="M18.4321 1.1436L17.5154 1.26828L16.2854 1.57977L15.0554 1.89126L14.1876 2.23326L13.3198 2.57526L12.3292 3.07867L11.3386 3.58217L10.548 4.10257L9.7573 4.62297L9.0722 5.17625L8.3871 5.72963L7.57559 6.53841L6.76407 7.34719L6.24367 7.98734L5.72327 8.6274L5.16304 9.46395L4.60273 10.3006L4.15138 11.1539L3.70004 12.0072L3.28433 13.0577L2.86852 14.1082L2.59576 15.1674L2.323 16.2267L2.1615 17.2684L2 18.3101V20V21.6899L2.1615 22.7316L2.323 23.7733L2.59576 24.8326L2.86852 25.8918L3.28451 26.9423L3.70041 27.9928L4.16262 28.8606L4.62492 29.7284L5.1741 30.5505L5.72327 31.3726L6.24358 32.012L6.76388 32.6514L7.52982 33.4174L8.29576 34.1833L8.95637 34.7235L9.61699 35.2639L10.4872 35.8456L11.3573 36.4274L12.3386 36.9261L13.3198 37.4247L14.1876 37.7667L15.0554 38.1087L16.2723 38.4169L17.4893 38.7251L18.5379 38.8625L19.5863 39H21.0227H22.4592L23.2332 38.904L24.0073 38.8079L24.9208 38.6216L25.8342 38.4352L27.0217 38.0397L28.2092 37.6441L28.9923 37.2832L29.7754 36.9222L30.7279 36.3486L31.6804 35.7749L32.3198 35.2955L32.9592 34.8159L33.7515 34.1212L34.5438 33.4264L34.7217 33.1303L34.8997 32.8341L34.9597 32.5796L35.0197 32.3249L34.9176 31.9456L34.8155 31.5663L34.5212 31.2721L34.227 30.9779L33.8444 30.8748L33.4616 30.7718L33.0915 30.8715L32.7213 30.9711L32.0638 31.5864L31.4063 32.2017L30.9496 32.5746L30.4929 32.9475L29.6957 33.4662L28.8984 33.9847L27.8688 34.4789L26.839 34.973L25.9862 35.2508L25.1335 35.5286L24.2506 35.7078L23.3679 35.887L22.2102 35.9803L21.0526 36.0736L19.8647 35.9832L18.6769 35.8929L17.7892 35.7102L16.9016 35.5276L15.9328 35.2058L14.964 34.8839L13.9592 34.393L12.9544 33.902L12.2236 33.4236L11.4929 32.9453L10.8535 32.4218L10.214 31.8983L9.42763 31.081L8.64123 30.2638L8.14157 29.585L7.64199 28.9062L7.20006 28.1755L6.75813 27.4447L6.45714 26.7851L6.15616 26.1255L5.87225 25.3236L5.58835 24.5216L5.40611 23.7576L5.22388 22.9937L5.09453 22.022L4.96519 21.0505V20V18.9495L5.09453 17.978L5.22388 17.0063L5.40611 16.2424L5.58835 15.4784L5.87225 14.6764L6.15616 13.8745L6.45714 13.2149L6.75813 12.5553L7.20006 11.8245L7.64199 11.0938L8.14157 10.415L8.64123 9.73616L9.42763 8.91898L10.214 8.10171L10.8535 7.57811L11.4929 7.05451L12.2913 6.53402L13.0897 6.01363L14.0269 5.56658L14.964 5.11962L15.9328 4.79607L16.9016 4.47243L17.7991 4.28773L18.6968 4.10303L20.0732 4.0031L21.4496 3.90307L21.6961 3.7761L21.9426 3.64922L22.197 3.31572L22.4514 2.98212V2.46154V1.94096L22.197 1.60736L21.9426 1.27386L21.6778 1.13693L21.413 1L20.3809 1.00941L19.3486 1.01882L18.4321 1.1436ZM36.4304 7.26178L36.1563 7.40227L28.2785 15.2759L20.4005 23.1496L16.9059 19.667L13.4111 16.1842L13.0683 16.0753L12.7254 15.9664L12.4289 16.0291L12.1323 16.0918L11.8326 16.2739L11.5329 16.456L11.353 16.8085L11.1732 17.161V17.4872V17.8135L11.3004 18.1075L11.4276 18.4014L15.5708 22.5278L19.714 26.6543L20.0566 26.7171L20.3991 26.78L20.7417 26.7181L21.0842 26.6564L29.7415 18.0073L38.3989 9.35817L38.4997 9.02439L38.6007 8.69071L38.5409 8.37236L38.4812 8.05412L38.2779 7.75624L38.0746 7.45845L37.7564 7.28936L37.438 7.12019L37.0713 7.12074L36.7044 7.12129L36.4304 7.26178Z" fill="#FF7A00"/>
</svg>
