<svg width="40" height="40" viewBox="0 0 40 40" fill="none" xmlns="http://www.w3.org/2000/svg">
<g clip-path="url(#clip0_1743_14079)">
<path fill-rule="evenodd" clip-rule="evenodd" d="M21.2705 0.155859L21.0159 0.311094L20.8607 0.565703L20.7054 0.820312L20.7052 1.17852L20.7048 1.53664L21.4153 2.78008L22.1259 4.02344L22.2552 4.17094L22.3845 4.31844L22.6359 4.42484L22.8873 4.53125L23.1437 4.53109L23.4002 4.53102L23.672 4.39437L23.9439 4.25781L24.1213 3.99234L24.2986 3.72687V3.36383V3.00078L23.593 1.75766L22.8873 0.514531L22.7533 0.366406L22.6193 0.218359L22.4081 0.109219L22.197 0L21.8611 0.0003125L21.5252 0.000546875L21.2705 0.155859ZM31.2755 0.152812L31.0259 0.305078L30.9095 0.484531L30.7932 0.664062L30.124 1.8318L29.4548 2.99953V3.30438V3.60922L29.5816 3.87648L29.7085 4.14367L29.9432 4.31086L30.178 4.47797L30.5456 4.51328L30.9134 4.54867L31.1566 4.42281L31.3999 4.29703L31.5896 4.04305L31.7793 3.78906L32.4026 2.69531L33.0259 1.60156L33.0673 1.37703L33.1087 1.15242L33.0321 0.869219L32.9555 0.585938L32.7872 0.402734L32.6189 0.219531L32.408 0.109766L32.197 0L31.8611 0.0003125L31.5252 0.000546875L31.2755 0.152812ZM25.2205 6.17406L24.8534 6.23594L24.4503 6.45531L24.0472 6.67469L23.7867 6.97906L23.5262 7.28344L23.3709 7.61367L23.2157 7.94398L23.128 8.60094L23.0404 9.25781L22.8892 9.90445L22.738 10.551L22.468 11.2034L22.198 11.8557L21.8375 12.4654L21.4771 13.075L20.9843 13.7062L20.4914 14.3373L19.7583 15.0352L19.0252 15.7333L18.2294 16.3237L17.4336 16.9141L16.6462 17.4048L15.8588 17.8955L14.4732 18.6323L13.0877 19.3691L13.0484 18.8838L13.0091 18.3984L12.8602 18.1519L12.7111 17.9054L12.42 17.7417L12.1289 17.5781H6.81906H1.50922L1.25094 17.7539L0.992656 17.9297L0.829219 18.1502L0.665781 18.3708L0.645391 28.6902L0.625 39.0096L0.782109 39.3342L0.939219 39.6587L1.24281 39.8294L1.54641 40H5.67953H9.81266L10.2724 39.8802L10.7322 39.7605L11.1173 39.5509L11.5023 39.3413L11.8369 39.0469L12.1714 38.7524L12.4169 38.3698L12.6623 37.9873L13.5188 38.3312L14.3752 38.6751L15.333 38.9509L16.2908 39.2267L16.9548 39.3746L17.6189 39.5224L18.7127 39.6801L19.8064 39.8377L20.9002 39.9185L21.9939 39.9994L27.7207 39.9997L33.4474 40L33.9829 39.8782L34.5184 39.7564L34.9749 39.4823L35.4314 39.2083L35.6569 38.9987L35.8823 38.7891L36.1854 38.3259L36.4884 37.8628L36.6435 37.3607L36.7986 36.8585L36.7966 36.2613L36.7945 35.6641L36.614 35.1562L36.4334 34.6484L36.3859 34.5312L36.3384 34.4141L36.7128 34.1293L37.0873 33.8445L37.4125 33.3574L37.7377 32.8703L37.9034 32.3251L38.069 31.7798L38.0312 31.0589L37.9936 30.338L37.7855 29.8837L37.5776 29.4293L37.5983 29.4167L37.6189 29.4041L37.9896 29.107L38.3603 28.8099L38.6725 28.3425L38.9846 27.875L39.1416 27.3668L39.2986 26.8585V26.2393V25.6201L39.1353 25.1342L38.972 24.6484L38.6802 24.2109L38.3885 23.7733L38.5773 23.5468L38.766 23.3203L38.9908 22.8516L39.2155 22.3828L39.312 21.8164L39.4085 21.25L39.3155 20.7077L39.2225 20.1654L39.0378 19.7506L38.8531 19.3359L38.5225 18.9199L38.1919 18.5038L37.7157 18.1961L37.2395 17.8883L36.7374 17.7332L36.2352 17.5781H32.6498H29.0642V17.5375V17.4969L29.4061 16.8148L29.748 16.1328L29.9868 15.4297L30.2255 14.7266L30.3531 14.1016L30.4806 13.4766L30.5624 12.5391L30.6443 11.6016L30.6009 10.9659L30.5574 10.3302L30.4291 9.83305L30.3009 9.33594L30.0183 8.78906L29.7356 8.24219L29.107 7.60984L28.4783 6.97758L27.8923 6.69273L27.3064 6.40781L26.8377 6.29656L26.3689 6.18531L25.9783 6.14875L25.5877 6.11219L25.2205 6.17406ZM26.693 8.78805L27.0952 8.96844L27.4236 9.29688L27.752 9.62531L27.9552 10.0666L28.1584 10.5078L28.1906 11.2238L28.2229 11.9397L28.13 12.7388L28.0371 13.5377L27.8423 14.2103L27.6476 14.8828L27.3915 15.4688L27.1355 16.0547L26.7047 16.7969L26.2739 17.5391L25.0963 17.5781L23.9188 17.6172L23.6985 17.779L23.4783 17.9408L23.3373 18.2087L23.1962 18.4766L23.2287 18.8534L23.2612 19.2304L23.417 19.4394L23.5727 19.6484L23.838 19.8047L24.1033 19.9609L30.1328 20L36.1623 20.0391L36.378 20.2002L36.5936 20.3612L36.748 20.568L36.9024 20.7748L36.9319 21.1882L36.9614 21.6016L36.7823 21.9082L36.6033 22.2148L36.259 22.3965L35.9146 22.5781H34.3946H32.8745L32.5709 22.7487L32.2673 22.9194L32.1016 23.262L31.9357 23.6045L31.9786 23.9244L32.0216 24.2443L32.1721 24.4463L32.3227 24.6484L32.588 24.8047L32.8533 24.9609L34.4939 25L36.1345 25.0391L36.348 25.1838L36.5615 25.3287L36.7281 25.5983L36.8948 25.8679V26.2407V26.6135L36.7759 26.842L36.6572 27.0703L36.474 27.2409L36.2908 27.4115L36.0709 27.4948L35.8509 27.5781H34.4082H32.9655L32.7104 27.6847L32.4554 27.7913L32.2473 28.0385L32.0392 28.2859L31.9853 28.5728L31.9315 28.8598L32.0409 29.1688L32.1502 29.4779L32.4483 29.7177L32.7464 29.9576L33.7803 29.9983L34.8142 30.0391L35.0447 30.1891L35.2752 30.3391L35.3923 30.497L35.5095 30.655L35.5944 30.972L35.6793 31.2891L35.6191 31.5565L35.559 31.8238L35.4123 32.0204L35.2655 32.2169L35.0498 32.378L34.8342 32.5391L33.7656 32.5781L32.697 32.6172L32.442 32.7991L32.1869 32.9811L32.0582 33.2288L31.9296 33.4766L31.9292 33.7986L31.9288 34.1206L32.0813 34.3818L32.2338 34.6429L32.4776 34.7853L32.7214 34.9277L33.1776 35.002L33.6337 35.0762L33.8295 35.221L34.0252 35.3659L34.2009 35.6242L34.3767 35.8825V36.2891V36.6956L34.2009 36.9539L34.0252 37.2122L33.8047 37.3756L33.5842 37.5391L29.2734 37.5781L24.9627 37.6172L22.7752 37.5626L20.5877 37.508L19.6111 37.3841L18.6345 37.2603L17.673 37.063L16.7114 36.8657L15.7198 36.551L14.7283 36.2363L13.8884 35.8843L13.0486 35.5322V28.7821V22.032L14.5952 21.258L16.1417 20.4839L16.9194 20.0387L17.697 19.5936L18.6736 18.9437L19.6502 18.2938L20.3136 17.7602L20.977 17.2266L21.7346 16.4653L22.4921 15.704L23.1162 14.8729L23.7402 14.0418L24.2066 13.1341L24.6728 12.2266L24.8821 11.6406L25.0913 11.0547L25.2398 10.4297L25.3881 9.80469L25.4694 9.22922L25.5506 8.65367L25.5967 8.57914L25.6427 8.50461L25.9668 8.55617L26.2908 8.60766L26.693 8.78805ZM16.2755 8.82469L16.0259 8.97695L15.9017 9.16641L15.7776 9.35586L15.7091 9.59437L15.6407 9.83289L15.7058 10.1213L15.7708 10.4097L16.0238 10.6706L16.2766 10.9316L16.7048 11.0205L17.1329 11.1094L18.3916 11.082L19.6502 11.0547L19.9234 10.8942L20.1965 10.7337L20.3726 10.4725L20.5486 10.2112L20.5483 9.85172L20.548 9.49219L20.3927 9.23758L20.2375 8.98297L19.9829 8.82773L19.7283 8.67242H18.1267H16.5252L16.2755 8.82469ZM33.8354 8.80875L33.5675 8.94531L33.4057 9.16586L33.2439 9.38648V9.84375V10.301L33.4084 10.5216L33.5727 10.7422L33.838 10.8984L34.1033 11.0547H35.6658H37.2283L37.5017 10.8843L37.7752 10.7139L37.9269 10.4562L38.0787 10.1984V9.82547V9.4525L37.9197 9.23797L37.7608 9.02344L37.5025 8.84766L37.2442 8.67188L35.6737 8.67203L34.1033 8.67211L33.8354 8.80875ZM10.6267 28.3478V36.6956L10.4491 36.9592L10.2714 37.2228L10.0078 37.4005L9.74422 37.5781H8.89641H8.04859V35.5834V33.5887L7.93969 33.3281L7.83078 33.0675L7.56602 32.8655L7.30117 32.6635L6.99125 32.6164L6.68141 32.5693L6.32984 32.7495L5.97828 32.9297L5.8025 33.2783L5.62672 33.6269V35.6025V37.5781H4.33766H3.04859V28.7891V20H6.83766H10.6267V28.3478Z" fill="#FF7A00"/>
</g>
<defs>
<clipPath id="clip0_1743_14079">
<rect width="40" height="40" fill="white"/>
</clipPath>
</defs>
</svg>
