<svg width="40" height="40" viewBox="0 0 40 40" fill="none" xmlns="http://www.w3.org/2000/svg">
<g clip-path="url(#clip0_1742_14077)">
<path fill-rule="evenodd" clip-rule="evenodd" d="M19.0717 0.0459375L18.9545 0.091875L11.9623 2.63102L4.97016 5.17016L4.74305 5.28719L4.51594 5.40422L4.14766 5.74867L3.77945 6.09305L3.55453 6.58016L3.32953 7.06719L3.33727 7.73125L3.345 8.39531L3.66984 9.24766L3.99469 10.1L3.97461 10.1128L3.95453 10.1257L3.46383 10.2133L2.97312 10.3008L2.38914 10.5816L1.80516 10.8626L1.27453 11.3932L0.743906 11.9238L0.461406 12.5034L0.178906 13.0828L0.0894531 13.5125L0 13.9422L0.0241406 25.3094L0.0482813 36.6766L0.259922 37.2047L0.471563 37.7329L0.705938 38.0735L0.940234 38.4141L1.34609 38.8115L1.75187 39.2088L2.27445 39.4834L2.79703 39.758L3.25547 39.8775L3.71391 39.9969H18.8373H33.9608L34.4192 39.8775L34.8777 39.758L35.4062 39.4803L35.9348 39.2025L36.403 38.7344L36.8711 38.2663L37.1489 37.7377L37.4266 37.2091L37.5461 36.7506L37.6655 36.2922V33.5772V30.8623L37.9975 30.7748L38.3295 30.6873L38.6466 30.5038L38.9635 30.3204L39.298 29.9575L39.6325 29.5946L39.8013 29.2294L39.9702 28.8641V24.9969V21.1297L39.7675 20.7L39.5648 20.2703L39.2241 19.9315L38.8835 19.5927L38.5284 19.4138L38.1733 19.2348L37.9194 19.18L37.6655 19.1251L37.6645 16.4555L37.6636 13.7859L37.5495 13.3569L37.4352 12.9277L37.1793 12.423L36.9233 11.9184L36.4155 11.4067L35.9077 10.8952L35.3992 10.6392L34.8909 10.3834L34.4617 10.2691L34.0327 10.155L33.7827 10.1541L33.5329 10.1531L33.5093 8.33672L33.4858 6.52031L33.2831 6.09062L33.0804 5.66094L32.7402 5.32258L32.4001 4.98422L32.0858 4.82391L31.7715 4.66352L31.5348 4.58141L31.2983 4.49922L27.2768 4.45508L23.2553 4.41094L22.7419 3.00469L22.2284 1.59844L22.0913 1.34039L21.9541 1.08234L21.657 0.785234L21.3598 0.488125L20.9078 0.266953L20.4558 0.0458594L19.8223 0.0228906L19.1889 0L19.0717 0.0459375ZM19.9873 2.51641L20.0625 2.61406L20.3413 3.39531L20.62 4.17656L20.6703 4.30234L20.7206 4.42812L20.0564 4.51383L19.3922 4.59961L19.0135 4.79148L18.6349 4.98336L18.2943 5.32211L17.9537 5.66094L17.7509 6.09062L17.5483 6.52031L17.5247 8.29766L17.501 10.075L12.0169 10.0747L6.53266 10.0744L6.1225 8.95453L5.71234 7.83477V7.67039V7.50609L5.81 7.44516L5.90766 7.3843L12.7045 4.90625L19.5014 2.42828L19.7067 2.42352L19.912 2.41875L19.9873 2.51641ZM31.0248 7.02812L31.1811 7.18437V8.62969V10.075H25.517H19.853V8.62969V7.18437L20.0092 7.02812L20.1655 6.87187H25.517H30.8686L31.0248 7.02812ZM34.1889 12.7048L34.5014 12.8738L34.7513 13.1345L35.0013 13.3953L35.142 13.7078L35.2827 14.0203L35.3071 16.5398L35.3315 19.0594L33.3149 19.0614L31.2983 19.0634L30.5369 19.1375L29.7755 19.2116L29.1697 19.4134L28.5639 19.6153L28.0341 19.9282L27.5045 20.2411L26.9991 20.7137L26.4938 21.1864L26.1504 21.7049L25.8069 22.2234L25.6026 22.7112L25.3982 23.1991L25.283 23.6878L25.1678 24.1766L25.1666 24.9424L25.1655 25.7082L25.2909 26.2705L25.4163 26.8328L25.7088 27.4578L26.0011 28.0828L26.3786 28.5809L26.756 29.0791L27.2594 29.4943L27.7627 29.9095L28.2805 30.1798L28.7983 30.4502L29.3452 30.6302L29.892 30.8102L32.6116 30.8387L35.3311 30.8671L35.3069 33.4984L35.2827 36.1297L35.1199 36.4813L34.9572 36.8328L34.6569 37.0965L34.3565 37.3602L34.0995 37.4676L33.8423 37.575H18.8373H3.83234L3.57 37.4654L3.30773 37.3558L2.99117 37.0698L2.67461 36.7838L2.53328 36.4177L2.39203 36.0516V24.9969V13.9422L2.5375 13.6688L2.68297 13.3953L2.92812 13.1348L3.17328 12.8741L3.40766 12.7505L3.64203 12.627L3.87641 12.5695L4.11078 12.5119L18.9936 12.5239L33.8764 12.5359L34.1889 12.7048ZM37.5092 21.6375L37.6655 21.7937V24.982V28.1702L37.5667 28.3052L37.4679 28.4403L33.7972 28.4178L30.1264 28.3953L29.5961 28.1441L29.0659 27.893L28.6092 27.4574L28.1526 27.0219L27.9106 26.5303L27.6687 26.0388L27.5911 25.4922L27.5136 24.9455L27.5941 24.4454L27.6747 23.9452L27.9074 23.4576L28.1402 22.97L28.5085 22.5918L28.8769 22.2136L29.2673 21.9847L29.6577 21.7557L30.1655 21.623L30.6733 21.4902L34.0131 21.4858L37.353 21.4812L37.5092 21.6375ZM30.4187 23.9809L30.1641 24.1361L30.0088 24.3907L29.8535 24.6453L29.8533 25.0048L29.853 25.3644L30.0303 25.6298L30.2077 25.8953L30.4795 26.0319L30.7514 26.1685H31.0248H31.2983L31.5702 26.0319L31.842 25.8953L32.0194 25.6298L32.1967 25.3644L32.1964 25.0048L32.1962 24.6453L32.0409 24.3907L31.8856 24.1361L31.631 23.9809L31.3764 23.8255H31.0248H30.6733L30.4187 23.9809Z" fill="#FF7A00"/>
</g>
<defs>
<clipPath id="clip0_1742_14077">
<rect width="40" height="40" fill="white"/>
</clipPath>
</defs>
</svg>
