<svg width="40" height="40" viewBox="0 0 40 40" fill="none" xmlns="http://www.w3.org/2000/svg">
<g clip-path="url(#clip0_1743_14100)">
<path fill-rule="evenodd" clip-rule="evenodd" d="M19.9221 0.117969L20.3518 0.235938L20.8205 0.464922L21.2893 0.693984L21.7546 1.06977L22.22 1.44555L22.6215 2.03586L23.023 2.62617L23.1996 3.12891L23.3763 3.63172L23.4163 4.45297L23.4563 5.2743L23.3285 5.78109L23.2007 6.28797L22.9717 6.75672L22.7427 7.22547L22.3669 7.69078L21.9911 8.15617L21.4008 8.55766L20.8105 8.95914L20.3077 9.13578L19.8049 9.31242L18.9837 9.35242L18.1623 9.39242L17.6555 9.26469L17.1487 9.13688L16.6799 8.90789L16.2112 8.67883L15.7459 8.30305L15.2805 7.92727L14.879 7.33695L14.4775 6.74664L14.3009 6.24391L14.1242 5.74109L14.0842 4.91984L14.0442 4.09852L14.172 3.59172L14.2998 3.08484L14.5287 2.61609L14.7578 2.14734L15.1336 1.68203L15.5094 1.21664L16.0997 0.815156L16.69 0.413672L17.1927 0.23625L17.6955 0.0588281L18.594 0.029375L19.4924 0L19.9221 0.117969ZM17.893 2.55664L17.5437 2.68133L17.1788 3.02266L16.8139 3.36391L16.6423 3.76273L16.4709 4.16148V4.69008V5.21867L16.6377 5.59703L16.8046 5.97547L17.1252 6.30297L17.4457 6.63047L17.8355 6.79812L18.2253 6.96578H18.7502H19.2752L19.6649 6.79812L20.0548 6.63047L20.3753 6.30297L20.6959 5.97547L20.8627 5.59703L21.0296 5.21867V4.68641V4.15414L20.8627 3.77578L20.6956 3.39734L20.4066 3.09773L20.1174 2.7982L19.8112 2.64016L19.5048 2.48211L19.1471 2.4257L18.7893 2.3693L18.5159 2.40062L18.2424 2.43195L17.893 2.55664ZM34.747 9.68602L35.0016 9.84125L35.1569 10.0959L35.3122 10.3505L35.3124 10.6515L35.3127 10.9525L34.7198 13.4035L34.1268 15.8545L34.5163 16.3056L34.9059 16.7567L35.3429 17.3693L35.7799 17.9819L36.0214 18.4351L36.263 18.8883L36.784 18.9232L37.3049 18.9582L37.7534 19.1323L38.2019 19.3065L38.6007 19.6062L38.9995 19.9059L39.2992 20.3047L39.5989 20.7035L39.7801 21.152L39.9612 21.6005L39.9855 23.9833L40.0098 26.3661L39.8785 26.8566L39.7473 27.3472L39.4579 27.7941L39.1685 28.2411L38.8911 28.484L38.6137 28.7268L37.5522 29.4805L36.4906 30.2342L36.2815 30.6048L36.0723 30.9755L35.7759 31.488L35.4796 32.0006L35.1037 32.5005L34.7279 33.0005L33.9332 33.8327L33.1385 34.6648L33.0542 34.9686L32.9698 35.2723L32.9695 36.8781L32.969 38.4838L32.7676 38.888L32.5662 39.2921L32.3184 39.5013L32.0705 39.7105L31.758 39.853L31.4455 39.9955H28.8674H26.2893L25.9768 39.853L25.6643 39.7105L25.4165 39.5013L25.1687 39.2921L24.9673 38.888L24.7659 38.4838V38.0695V37.6552H21.1721H17.5784V38.0695V38.4838L17.377 38.888L17.1755 39.2921L16.9277 39.5013L16.6799 39.7105L16.3674 39.853L16.0549 39.9955L13.4726 39.9972L10.8903 39.9989L10.4862 39.7975L10.082 39.5961L9.87281 39.3483L9.66359 39.1005L9.52109 38.788L9.37867 38.4755L9.37539 37.3817L9.37211 36.288L9.30219 35.8048L9.23227 35.3215L9.01148 34.8282L8.79062 34.3348L8.11672 33.5489L7.44281 32.7629L7.03851 32.1963L6.63422 31.6296L6.28008 30.9901L5.92586 30.3505L5.66687 29.7255L5.40781 29.1005L5.20805 28.4364L5.00836 27.7723L4.87766 27.1083L4.74703 26.4442L4.70805 25.0284L4.66906 23.6126L4.19016 23.5736L3.71117 23.5346L3.15055 23.3391L2.58992 23.1436L2.03242 22.773L1.475 22.4024L1.09398 21.9446L0.712967 21.4867L0.476406 20.991L0.239841 20.4953L0.119999 20.0354L0.000232697 19.5755L0.000549316 18.4786L0.000782013 17.3817L0.156094 17.1271L0.311325 16.8725L0.565937 16.7173L0.820545 16.562H1.17211H1.52367L1.77828 16.7173L2.03289 16.8725L2.1775 17.1102L2.32203 17.3479L2.36375 18.3804L2.40547 19.413L2.56625 19.7817L2.72703 20.1504L3.04508 20.4955L3.3632 20.8405L3.76516 21.0135L4.16711 21.1864H4.63055H5.09399L5.15195 21.12L5.20992 21.0536L5.42437 20.4286L5.63875 19.8036L6.02547 19.0334L6.41227 18.2632L6.83391 17.6229L7.25555 16.9827L7.83289 16.3223L8.41023 15.6619L8.91227 15.2052L9.4143 14.7484L10.11 14.2487L10.8057 13.749L11.7262 13.2796L12.6468 12.8103L13.4797 12.5316L14.3126 12.2529L15.0666 12.0901L15.8205 11.9273L20.8205 11.8773L25.8205 11.8272L25.8398 11.8115L25.859 11.7958L26.4144 11.286L26.9698 10.7763L27.3191 10.5361L27.6683 10.2958L28.2288 10.039L28.7893 9.78219L29.3516 9.65617L29.9139 9.53016L32.2031 9.53047L34.4924 9.5307L34.747 9.68602ZM29.5712 12.0757L29.1812 12.214L28.9071 12.3714L28.633 12.5288L28.111 13.0152L27.5891 13.5016L27.2491 13.7009L26.9091 13.9001L26.5602 14.0373L26.2112 14.1744L21.2502 14.2237L16.2893 14.273L15.5159 14.4446L14.7426 14.6163L14.0791 14.8462L13.4155 15.0761L12.7665 15.4213L12.1174 15.7666L11.7034 16.0416L11.2893 16.3166L10.7034 16.8211L10.1174 17.3255L9.74828 17.7563L9.37922 18.187L8.96367 18.7662L8.54812 19.3454L8.22664 19.9651L7.90516 20.5848L7.62914 21.4122L7.35313 22.2395L7.22375 22.9747L7.09445 23.7098L7.09727 24.8036L7.10015 25.8973L7.22578 26.6002L7.35149 27.3029L7.58609 28.0064L7.8207 28.7098L8.13187 29.3553L8.44305 30.0007L8.88023 30.6427L9.31742 31.2848L9.87976 31.9168L10.4421 32.5488L10.6977 32.9204L10.9534 33.292L11.2102 33.8524L11.467 34.413L11.593 34.9752L11.719 35.5376V36.5963V37.6552H13.4768H15.2346L15.2349 35.7216L15.2352 33.788L15.3905 33.5334L15.5457 33.2787L15.8003 33.1235L16.0549 32.9682H16.4065H16.758L17.0127 33.1235L17.2673 33.2787L17.4225 33.5334L17.5778 33.788L17.578 34.5497L17.5784 35.3114H21.1721H24.7659L24.7662 34.5497L24.7664 33.788L24.9217 33.5334L25.077 33.2787L25.3316 33.1235L25.5862 32.9682H25.9377H26.2893L26.5439 33.1235L26.7985 33.2787L26.9538 33.5334L27.1091 33.788L27.1093 35.7216L27.1096 37.6552H28.8674H30.6252V36.185V34.7148L30.7501 34.2905L30.8749 33.8661L31.136 33.4364L31.3971 33.0067L31.8777 32.538L32.3582 32.0692L32.8088 31.5223L33.2595 30.9755L33.6121 30.4286L33.9648 29.8817L34.2471 29.3193L34.5294 28.757L34.7062 28.5907L34.883 28.4245L35.9824 27.6524L37.0819 26.8803L37.2909 26.6713L37.4998 26.4623L37.5841 26.1493L37.6684 25.8362L37.643 23.9387L37.6174 22.0412L37.4563 21.8257L37.2952 21.6102L37.0938 21.4598L36.8924 21.3094L35.9659 21.2558L35.0393 21.2023L34.8305 21.0644L34.6219 20.9265L34.2916 20.2869L33.9613 19.6473L33.6104 19.1005L33.2595 18.5536L32.8101 18.0067L32.3607 17.4598L32.111 17.2255L31.8612 16.9911L31.7461 16.7705L31.6309 16.5499L31.6276 16.2627L31.6242 15.9755L32.1013 14.0209L32.5784 12.0664V11.9594V11.8523L31.2698 11.8949L29.9612 11.9375L29.5712 12.0757ZM23.6729 16.7372L23.9312 16.913L24.0841 17.1195L24.237 17.3259V17.7333V18.1406L24.0841 18.3471L23.9312 18.5536L23.6729 18.7294L23.4146 18.9052L20.3207 18.9048L17.2268 18.9046L16.9722 18.7493L16.7176 18.5941L16.5623 18.3395L16.407 18.0848V17.7333V17.3817L16.5623 17.1271L16.7176 16.8725L16.9722 16.7173L17.2268 16.562L20.3207 16.5617L23.4146 16.5614L23.6729 16.7372ZM32.4033 20.2329L32.6579 20.3881L32.8131 20.6427L32.9684 20.8973V21.2489V21.6005L32.8131 21.8551L32.6579 22.1097L32.4033 22.2649L32.1487 22.4202H31.7971H31.4455L31.1909 22.2649L30.9363 22.1097L30.7811 21.8551L30.6258 21.6005V21.2489V20.8973L30.7811 20.6427L30.9363 20.3881L31.1909 20.2329L31.4455 20.0776H31.7971H32.1487L32.4033 20.2329Z" fill="#FF7A00"/>
</g>
<defs>
<clipPath id="clip0_1743_14100">
<rect width="40" height="40" fill="white"/>
</clipPath>
</defs>
</svg>
