<svg width="137" height="24" viewBox="0 0 137 24" fill="none" xmlns="http://www.w3.org/2000/svg">
<path d="M31.5978 9.7651C31.5978 8.63505 31.9215 7.75185 32.5688 7.1155C33.2271 6.46819 34.1322 6.14453 35.2842 6.14453H39.8428C40.0513 6.14453 40.1939 6.18842 40.2707 6.27619C40.3585 6.35299 40.4024 6.49562 40.4024 6.70407V17.2696C40.4024 17.478 40.3585 17.6261 40.2707 17.7139C40.1939 17.7907 40.0513 17.8291 39.8428 17.8291H38.8883C38.6799 17.8291 38.5318 17.7907 38.444 17.7139C38.3672 17.6261 38.3288 17.478 38.3288 17.2696V13.3857H37.0616C36.4911 13.3857 36.0742 13.4625 35.8108 13.6161C35.5475 13.7697 35.3116 14.0769 35.1032 14.5377L33.8524 17.3354C33.7647 17.5438 33.644 17.681 33.4904 17.7468C33.3478 17.8017 33.0954 17.8291 32.7334 17.8291H31.7788C31.4168 17.8291 31.3235 17.6426 31.4991 17.2696L33.1777 13.7971C33.3313 13.4789 33.5014 13.2376 33.6879 13.073C32.2945 12.5793 31.5978 11.4766 31.5978 9.7651ZM35.4817 8.07002C34.9222 8.07002 34.4943 8.21813 34.198 8.51436C33.9018 8.79962 33.7537 9.21653 33.7537 9.7651C33.7537 10.3137 33.9018 10.7361 34.198 11.0323C34.5052 11.3176 34.9331 11.4602 35.4817 11.4602H38.3288V8.07002H35.4817Z" fill="#191C1F"/>
<path d="M49.2631 9.3043C49.4497 9.3043 49.5758 9.3427 49.6417 9.4195C49.7185 9.48533 49.7569 9.6115 49.7569 9.79802V17.3189C49.7569 17.5054 49.7185 17.6371 49.6417 17.7139C49.5758 17.7907 49.4497 17.8291 49.2631 17.8291H48.358C48.1715 17.8291 48.0398 17.7907 47.963 17.7139C47.8862 17.6371 47.8478 17.5054 47.8478 17.3189V14.3731H44.4083V17.3189C44.4083 17.5054 44.3699 17.6371 44.2931 17.7139C44.2163 17.7907 44.0846 17.8291 43.8981 17.8291H42.993C42.8065 17.8291 42.6748 17.7907 42.598 17.7139C42.5322 17.6371 42.4993 17.5054 42.4993 17.3189V9.79802C42.4993 9.6115 42.5322 9.48533 42.598 9.4195C42.6748 9.3427 42.8065 9.3043 42.993 9.3043H43.8981C44.0846 9.3043 44.2163 9.3427 44.2931 9.4195C44.3699 9.48533 44.4083 9.6115 44.4083 9.79802V12.5957H47.8478V9.79802C47.8478 9.6115 47.8862 9.48533 47.963 9.4195C48.0398 9.3427 48.1715 9.3043 48.358 9.3043H49.2631Z" fill="#191C1F"/>
<path d="M60.1189 16.0517C60.3055 16.0517 60.4371 16.0901 60.5139 16.1669C60.5907 16.2437 60.6291 16.3809 60.6291 16.5784V19.6065C60.6291 19.793 60.5907 19.9246 60.5139 20.0014C60.4371 20.0782 60.3055 20.1166 60.1189 20.1166H59.2961C59.1096 20.1166 58.9724 20.0782 58.8847 20.0014C58.8079 19.9246 58.7695 19.793 58.7695 19.6065V17.8291H52.9107V19.6065C52.9107 19.793 52.8723 19.9246 52.7955 20.0014C52.7187 20.0782 52.5871 20.1166 52.4005 20.1166H51.5612C51.3747 20.1166 51.2431 20.0782 51.1663 20.0014C51.1004 19.9246 51.0675 19.793 51.0675 19.6065V16.5784C51.0675 16.3809 51.1004 16.2437 51.1663 16.1669C51.2431 16.0901 51.3747 16.0517 51.5612 16.0517H51.9233C52.6035 15.5251 52.9436 14.2414 52.9436 12.2008V9.79802C52.9436 9.6115 52.9765 9.48533 53.0424 9.4195C53.1192 9.3427 53.2508 9.3043 53.4373 9.3043H58.8517C59.0383 9.3043 59.1699 9.3427 59.2467 9.4195C59.3235 9.48533 59.3619 9.6115 59.3619 9.79802V16.0517H60.1189ZM54.7868 12.3324C54.7868 14.011 54.5619 15.2508 54.1121 16.0517H57.4529V11.0652H54.7868V12.3324Z" fill="#191C1F"/>
<path d="M61.553 12.6122C61.553 11.4602 61.8767 10.5825 62.524 9.97905C63.1823 9.36465 64.1313 9.05745 65.3711 9.05745C66.6218 9.05745 67.5654 9.37562 68.2017 10.012C68.849 10.6483 69.1727 11.4657 69.1727 12.4641V13.468C69.1727 13.9397 68.9258 14.1756 68.4321 14.1756H63.4621V14.7845C63.4621 15.3221 63.6211 15.7336 63.9393 16.0188C64.2685 16.2931 64.7347 16.4302 65.3382 16.4302C66.2598 16.4302 66.9071 16.1395 67.2801 15.558C67.4118 15.3715 67.5325 15.2673 67.6422 15.2453C67.7629 15.2124 67.9219 15.2508 68.1194 15.3605L68.6954 15.6732C69.0685 15.8488 69.1343 16.123 68.8929 16.4961C68.2456 17.5493 67.0607 18.076 65.3382 18.076C64.0545 18.076 63.1 17.7578 62.4746 17.1214C61.8602 16.4851 61.553 15.6293 61.553 14.5541V12.6122ZM67.2637 12.3489C67.2637 11.8113 67.1046 11.3998 66.7864 11.1146C66.4682 10.8184 65.9965 10.6702 65.3711 10.6702C64.7567 10.6702 64.2849 10.8184 63.9558 11.1146C63.6266 11.3998 63.4621 11.8113 63.4621 12.3489V12.7109H67.2637V12.3489Z" fill="#191C1F"/>
<path d="M77.9955 17.2202C78.1052 17.4396 78.1381 17.5987 78.0943 17.6974C78.0504 17.7852 77.9077 17.8291 77.6664 17.8291H76.8435C76.5583 17.8291 76.3608 17.8017 76.2511 17.7468C76.1523 17.692 76.0536 17.5658 75.9548 17.3683L74.9345 15.1795C74.8028 14.8833 74.6383 14.6748 74.4408 14.5541C74.2433 14.4334 73.9745 14.3731 73.6344 14.3731H72.5976V17.3025C72.5976 17.5 72.5592 17.6371 72.4824 17.7139C72.4056 17.7907 72.2629 17.8291 72.0545 17.8291H71.2152C71.0067 17.8291 70.8641 17.7907 70.7873 17.7139C70.7215 17.6371 70.6885 17.5 70.6885 17.3025V9.81447C70.6885 9.61699 70.7215 9.48533 70.7873 9.4195C70.8641 9.3427 71.0067 9.3043 71.2152 9.3043H72.0545C72.2629 9.3043 72.4056 9.3427 72.4824 9.4195C72.5592 9.48533 72.5976 9.61699 72.5976 9.81447V12.5957H73.5027L75.7244 9.68282C75.8451 9.50727 75.9603 9.40305 76.07 9.37013C76.1907 9.32625 76.4047 9.3043 76.7119 9.3043H77.5183C78.0449 9.3043 78.1546 9.50179 77.8474 9.89676L75.3788 12.9742C75.8177 13.1937 76.2127 13.649 76.5637 14.3402L77.9955 17.2202Z" fill="#191C1F"/>
<path d="M78.9106 12.4312C78.9106 11.356 79.2232 10.5276 79.8486 9.94613C80.485 9.35367 81.434 9.05745 82.6957 9.05745C83.6283 9.05745 84.3908 9.25493 84.9832 9.6499C85.5867 10.0449 85.9981 10.566 86.2175 11.2133C86.2834 11.4218 86.2888 11.5809 86.234 11.6906C86.1791 11.7893 86.053 11.8771 85.8555 11.9539L85.1314 12.1843C84.9339 12.2611 84.7803 12.2721 84.6706 12.2172C84.5718 12.1624 84.484 12.0362 84.4072 11.8387C84.122 11.1036 83.524 10.7361 82.6134 10.7361C81.4175 10.7361 80.8196 11.2737 80.8196 12.3489V14.7845C80.8196 15.3002 80.9732 15.7006 81.2804 15.9859C81.5876 16.2602 82.0319 16.3973 82.6134 16.3973C83.524 16.3973 84.122 16.0188 84.4072 15.2618C84.484 15.0643 84.5718 14.9436 84.6706 14.8997C84.7803 14.8558 84.9339 14.8668 85.1314 14.9326L85.8719 15.1466C86.245 15.2892 86.3602 15.5361 86.2175 15.8872C85.647 17.3464 84.4237 18.076 82.5476 18.076C81.3298 18.076 80.4191 17.7852 79.8157 17.2037C79.2123 16.6113 78.9106 15.7774 78.9106 14.7022V12.4312Z" fill="#191C1F"/>
<path d="M88.6631 15.6897C89.069 15.6897 89.3433 15.7665 89.4859 15.9201C89.6395 16.0737 89.7163 16.348 89.7163 16.7429V16.891C89.7163 17.297 89.6395 17.5768 89.4859 17.7304C89.3433 17.873 89.069 17.9443 88.6631 17.9443H88.5479C88.1419 17.9443 87.8622 17.873 87.7086 17.7304C87.5659 17.5768 87.4946 17.297 87.4946 16.891V16.7429C87.4946 16.348 87.5659 16.0737 87.7086 15.9201C87.8622 15.7665 88.1419 15.6897 88.5479 15.6897H88.6631Z" fill="#191C1F"/>
<path d="M100.489 17.2696C100.686 17.6426 100.593 17.8291 100.209 17.8291H99.2543C98.8922 17.8291 98.6399 17.8017 98.4973 17.7468C98.3546 17.681 98.2339 17.5438 98.1352 17.3354L96.473 13.9946C96.2426 13.5448 95.9958 13.243 95.7325 13.0894C95.4801 12.9249 95.0742 12.8426 94.5146 12.8426H93.6753V17.2696C93.6753 17.478 93.6314 17.6261 93.5437 17.7139C93.4669 17.7907 93.3242 17.8291 93.1158 17.8291H92.1777C91.9693 17.8291 91.8211 17.7907 91.7334 17.7139C91.6456 17.6261 91.6017 17.478 91.6017 17.2696V6.70407C91.6017 6.49562 91.6456 6.35299 91.7334 6.27619C91.8211 6.18842 91.9693 6.14453 92.1777 6.14453H93.1158C93.3242 6.14453 93.4669 6.18842 93.5437 6.27619C93.6314 6.35299 93.6753 6.49562 93.6753 6.70407V10.9665H94.5475L97.8554 6.60533C97.9981 6.40785 98.1352 6.28167 98.2669 6.22682C98.4095 6.17196 98.6454 6.14453 98.9745 6.14453H100.028C100.214 6.14453 100.329 6.19939 100.373 6.3091C100.428 6.41882 100.401 6.54499 100.291 6.68762L96.6211 11.3779C97.3233 11.6851 97.9158 12.3105 98.3985 13.254L100.489 17.2696Z" fill="#191C1F"/>
<path d="M101.446 10.769C102.038 9.62796 103.174 9.05745 104.852 9.05745C107.2 9.05745 108.374 10.1875 108.374 12.4476V16.71C108.374 16.9953 108.33 17.1982 108.243 17.3189C108.166 17.4396 108.012 17.5493 107.782 17.6481C107.123 17.9333 106.136 18.076 104.819 18.076C103.426 18.076 102.466 17.862 101.939 17.4341C101.413 16.9953 101.15 16.3205 101.15 15.4099C101.15 14.4334 101.435 13.7477 102.005 13.3528C102.587 12.9578 103.547 12.7603 104.885 12.7603C105.006 12.7603 105.533 12.7877 106.465 12.8426V12.3818C106.465 11.8442 106.339 11.4382 106.087 11.164C105.834 10.8897 105.412 10.7525 104.819 10.7525C104.008 10.7525 103.432 11.0158 103.091 11.5425C102.971 11.718 102.867 11.8222 102.779 11.8552C102.702 11.8771 102.57 11.8552 102.384 11.7893L101.726 11.5096C101.363 11.345 101.27 11.0981 101.446 10.769ZM106.465 14.406C105.313 14.3512 104.715 14.3237 104.671 14.3237C104.079 14.3237 103.667 14.4115 103.437 14.587C103.207 14.7626 103.091 15.0314 103.091 15.3934C103.091 15.7665 103.196 16.0462 103.404 16.2328C103.624 16.4083 104.035 16.4961 104.638 16.4961C105.341 16.4961 105.889 16.4522 106.284 16.3644C106.405 16.3205 106.465 16.2437 106.465 16.134V14.406Z" fill="#191C1F"/>
<path d="M110.737 9.5347C111.603 9.21653 112.668 9.05745 113.929 9.05745C115.092 9.05745 115.959 9.3427 116.53 9.91322C117.111 10.4837 117.402 11.3066 117.402 12.3818V14.6364C117.402 16.9294 116.179 18.076 113.732 18.076C113.337 18.076 112.761 17.9772 112.004 17.7797V20.9395C112.004 21.126 111.966 21.2577 111.889 21.3345C111.823 21.4113 111.697 21.4497 111.51 21.4497H110.605C110.419 21.4497 110.287 21.4113 110.21 21.3345C110.133 21.2577 110.095 21.126 110.095 20.9395V10.4728C110.095 10.2094 110.133 10.0174 110.21 9.89676C110.298 9.7651 110.473 9.64442 110.737 9.5347ZM115.493 12.4312C115.493 11.345 114.878 10.8019 113.65 10.8019C113.09 10.8019 112.596 10.8622 112.169 10.9829C112.059 11.0268 112.004 11.0981 112.004 11.1969V16.0846C112.64 16.2492 113.172 16.3315 113.6 16.3315C114.862 16.3315 115.493 15.7445 115.493 14.5706V12.4312Z" fill="#191C1F"/>
<path d="M124.941 9.3043C125.128 9.3043 125.259 9.3427 125.336 9.4195C125.413 9.48533 125.451 9.6115 125.451 9.79802V10.555C125.451 10.7416 125.413 10.8732 125.336 10.95C125.259 11.0268 125.128 11.0652 124.941 11.0652H122.802V17.3189C122.802 17.5054 122.763 17.6371 122.686 17.7139C122.61 17.7907 122.478 17.8291 122.291 17.8291H121.403C121.216 17.8291 121.085 17.7907 121.008 17.7139C120.931 17.6371 120.893 17.5054 120.893 17.3189V11.0652H118.737C118.55 11.0652 118.419 11.0268 118.342 10.95C118.265 10.8732 118.227 10.7416 118.227 10.555V9.79802C118.227 9.6115 118.265 9.48533 118.342 9.4195C118.419 9.3427 118.55 9.3043 118.737 9.3043H124.941Z" fill="#191C1F"/>
<path d="M130.698 11.74C131.664 11.74 132.421 12.0088 132.97 12.5464C133.529 13.084 133.809 13.8245 133.809 14.7681C133.809 15.7226 133.529 16.4741 132.97 17.0227C132.421 17.5603 131.664 17.8291 130.698 17.8291H127.111C126.924 17.8291 126.793 17.7907 126.716 17.7139C126.65 17.6371 126.617 17.5054 126.617 17.3189V9.79802C126.617 9.6115 126.65 9.48533 126.716 9.4195C126.793 9.3427 126.924 9.3043 127.111 9.3043H128.016C128.202 9.3043 128.334 9.3427 128.411 9.4195C128.488 9.48533 128.526 9.6115 128.526 9.79802V11.74H130.698ZM135.998 9.3043C136.184 9.3043 136.316 9.3427 136.393 9.4195C136.469 9.48533 136.508 9.6115 136.508 9.79802V17.3189C136.508 17.5054 136.469 17.6371 136.393 17.7139C136.316 17.7907 136.184 17.8291 135.998 17.8291H135.109C134.922 17.8291 134.791 17.7907 134.714 17.7139C134.637 17.6371 134.599 17.5054 134.599 17.3189V9.79802C134.599 9.6115 134.637 9.48533 134.714 9.4195C134.791 9.3427 134.922 9.3043 135.109 9.3043H135.998ZM130.468 16.1176C130.885 16.1176 131.214 15.9969 131.456 15.7555C131.697 15.5032 131.818 15.174 131.818 14.7681C131.818 14.3731 131.697 14.0604 131.456 13.83C131.214 13.5886 130.885 13.468 130.468 13.468H128.526V16.1176H130.468Z" fill="#191C1F"/>
<path d="M12 1.5C7.0293 1.5 3 5.5293 3 10.5C3 12.9845 4.00665 15.234 5.63475 16.8626C7.2633 18.492 11.1 20.85 11.325 23.325C11.3587 23.6961 11.6274 24 12 24C12.3726 24 12.6413 23.6961 12.675 23.325C12.9 20.85 16.7367 18.492 18.3652 16.8626C19.9933 15.234 21 12.9845 21 10.5C21 5.5293 16.9707 1.5 12 1.5Z" fill="#FF4433"/>
<path d="M11.9996 13.6506C13.7393 13.6506 15.1496 12.2403 15.1496 10.5006C15.1496 8.76089 13.7393 7.35059 11.9996 7.35059C10.2599 7.35059 8.84961 8.76089 8.84961 10.5006C8.84961 12.2403 10.2599 13.6506 11.9996 13.6506Z" fill="white"/>
</svg>
